<svg xmlns="http://www.w3.org/2000/svg" viewBox="0 0 100 100" x="0px" y="0px"><title>TiNY2_EXTRAS</title><g data-name="Layer 3"><path d="M94.59,46.19l-3-3a1.41,1.41,0,0,0-2,0l-8,8V50A31.65,31.65,0,0,0,37.89,20.76a3.52,3.52,0,0,0,2.69,6.49A24.61,24.61,0,0,1,74.61,50v1.19l-8-8a1.41,1.41,0,0,0-2,0l-3,3a1.41,1.41,0,0,0,0,2L77.13,63.65a1.41,1.41,0,0,0,2,0L94.59,48.18a1.41,1.41,0,0,0,0-2Z"></path><path d="M59.42,72.74A24.62,24.62,0,0,1,25.39,50V48.81l8,8a1.41,1.41,0,0,0,2,0l3-3a1.41,1.41,0,0,0,0-2L22.87,36.35a1.41,1.41,0,0,0-2,0L5.41,51.82a1.41,1.41,0,0,0,0,2l3,3a1.41,1.41,0,0,0,2,0l8-8V50A31.65,31.65,0,0,0,62.11,79.24a3.52,3.52,0,1,0-2.69-6.49Z"></path></g></svg>