<?xml version="1.0" encoding="UTF-8"?>
<svg fill="#1871B9" width="100pt" height="100pt" version="1.1" viewBox="0 0 100 100" xmlns="http://www.w3.org/2000/svg">
 <g>
  <path d="m64.199 17.602c-0.19922-0.30078-0.39844-0.39844-0.69922-0.5l-48.301-5.6016c-0.39844-0.10156-0.80078 0.10156-1 0.5-0.19922 0.30078-0.19922 0.69922 0 1.1016l6.8008 10.598-7.8008 12.398c-1 1.6016-1.1992 3.6992-0.39844 5.5 3.3984 7.8008 16.699 32.5 49.301 32.5 0.89844 0 1.8008 0 2.6992-0.10156 2-0.10156 3.6992-1.1016 4.8008-2.8008l7.8008-12.5 3.8984 0.5-0.10156 12.199c-1.3984 0.39844-2.5 1.6992-2.5 3.3008 0 0.89844 0.30078 1.8008 1 2.3984 0.19922 0.19922 0.5 0.39844 0.69922 0.5-0.5 0.5-0.89844 1.3008-1.3008 2.1992-0.60156 1.3984-1 3.1016-1 4.1016 0 1.1016 0.39844 2.1016 1.1016 2.8008 0.69922 0.80078 1.6992 1.1992 2.8008 1.1992s2-0.39844 2.8008-1.1016c0.80078-0.69922 1.1992-1.6992 1.1992-2.8008 0-1.1016-0.69922-4.6992-2.1992-6.3008 0.30078-0.10156 0.5-0.30078 0.69922-0.5 0.69922-0.60156 1-1.5 1-2.3984 0-0.89844-0.30078-1.8008-1-2.3984-0.39844-0.39844-0.89844-0.69922-1.3984-0.89844l0.10156-11.898 6.1016 0.69922h0.10156c0.30078 0 0.69922-0.19922 0.80078-0.5 0.19922-0.30078 0.19922-0.69922 0-1.1016zm19.902 66.398c0 0.5-0.19922 1-0.60156 1.3984-0.39844 0.39844-0.89844 0.60156-1.3984 0.60156s-1-0.19922-1.3984-0.60156c-0.39844-0.39844-0.60156-0.89844-0.60156-1.3984 0-1.6992 1.3008-5 2-5.1992 0.69922 0.19922 2 3.5 2 5.1992zm-0.5-9.3008c0 0.39844-0.19922 0.69922-0.39844 1-0.30078 0.30078-0.60156 0.39844-1 0.39844s-0.69922-0.19922-1-0.39844c-0.30078-0.30078-0.39844-0.60156-0.39844-1 0-0.80078 0.69922-1.3984 1.3984-1.3984 0.39844 0 0.69922 0.19922 1 0.39844 0.29688 0.19922 0.39844 0.60156 0.39844 1zm-15.801-4.5c-0.69922 1.1016-1.8984 1.8008-3.1992 1.8008-0.89844 0-1.6992 0.10156-2.6016 0.10156-31.301 0-44.199-23.801-47.398-31.301-0.5-1.1992-0.39844-2.5 0.30078-3.6016l7.3008-11.602 18.199 28.5c0.19922 0.30078 0.39844 0.39844 0.69922 0.5l34.102 3.8984zm-26.102-17.598l-24.699-38.801 45.801 5.1992 24.801 38.898z"/>
  <path d="m23.699 64.199c-0.60156 0-1 0.39844-1 1v8.3008c0 0.60156 0.39844 1 1 1 0.60156 0 1-0.39844 1-1v-8.3008c0-0.5-0.5-1-1-1z"/>
  <path d="m23.699 76.301c-0.60156 0-1 0.39844-1 1v9.5c0 0.60156 0.39844 1 1 1 0.60156 0 1-0.39844 1-1v-9.5c0-0.60156-0.5-1-1-1z"/>
  <path d="m29.801 69.898c-0.60156 0-1 0.39844-1 1v2.5c0 0.60156 0.39844 1 1 1 0.60156 0 1-0.39844 1-1v-2.5c0-0.5-0.5-1-1-1z"/>
  <path d="m29.801 76.301c-0.60156 0-1 0.39844-1 1v9.5c0 0.60156 0.39844 1 1 1 0.60156 0 1-0.39844 1-1v-9.5c0-0.60156-0.5-1-1-1z"/>
  <path d="m36.398 75.398c-0.60156 0-1 0.39844-1 1v10.398c0 0.60156 0.39844 1 1 1 0.60156 0 1-0.39844 1-1v-10.398c0-0.59766-0.39844-1-1-1z"/>
  <path d="m43 79.199c-0.60156 0-1 0.39844-1 1v6.5c0 0.60156 0.39844 1 1 1s1-0.39844 1-1v-6.5c0-0.5-0.5-1-1-1z"/>
 </g>
</svg>
