<svg xmlns="http://www.w3.org/2000/svg" xmlns:xlink="http://www.w3.org/1999/xlink" version="1.1" x="0px" y="0px" viewBox="0 0 100 100" style="enable-background:new 0 0 100 100;" xml:space="preserve"><style type="text/css">
	.st0{fill:none;stroke:#000000;stroke-width:2;stroke-linecap:round;stroke-linejoin:round;stroke-miterlimit:10;}
	.st1{stroke:#000000;stroke-width:2;stroke-linecap:round;stroke-linejoin:round;stroke-miterlimit:10;}
	.st2{fill:none;stroke:#000000;stroke-width:2;stroke-linejoin:round;stroke-miterlimit:10;}
</style><path d="M64.2,17.6c-0.2-0.3-0.4-0.4-0.7-0.5l-48.3-5.6c-0.4-0.1-0.8,0.1-1,0.5c-0.2,0.3-0.2,0.7,0,1.1L21,23.7l-7.8,12.4  c-1,1.6-1.2,3.7-0.4,5.5c3.4,7.8,16.7,32.5,49.3,32.5c0.9,0,1.8,0,2.7-0.1c2-0.1,3.7-1.1,4.8-2.8l7.8-12.5c0,0,0,0,0,0l3.9,0.5  l-0.1,12.2c-1.4,0.4-2.5,1.7-2.5,3.3c0,0.9,0.3,1.8,1,2.4c0.2,0.2,0.5,0.4,0.7,0.5c-0.5,0.5-0.9,1.3-1.3,2.2c-0.6,1.4-1,3.1-1,4.1  c0,1.1,0.4,2.1,1.1,2.8c0.7,0.8,1.7,1.2,2.8,1.2c0,0,0,0,0,0c1.1,0,2-0.4,2.8-1.1c0.8-0.7,1.2-1.7,1.2-2.8c0-1.1-0.7-4.7-2.2-6.3  c0.3-0.1,0.5-0.3,0.7-0.5c0.7-0.6,1-1.5,1-2.4s-0.3-1.8-1-2.4c-0.4-0.4-0.9-0.7-1.4-0.9l0.1-11.9l6.1,0.7c0,0,0.1,0,0.1,0  c0.3,0,0.7-0.2,0.8-0.5c0.2-0.3,0.2-0.7,0-1.1L64.2,17.6z M84.1,84c0,0.5-0.2,1-0.6,1.4c-0.4,0.4-0.9,0.6-1.4,0.6c0,0,0,0,0,0  c-0.5,0-1-0.2-1.4-0.6c-0.4-0.4-0.6-0.9-0.6-1.4c0-1.7,1.3-5,2-5.2C82.8,79,84.1,82.3,84.1,84z M83.6,74.7c0,0.4-0.2,0.7-0.4,1  c-0.3,0.3-0.6,0.4-1,0.4c0,0,0,0,0,0c-0.4,0-0.7-0.2-1-0.4c-0.3-0.3-0.4-0.6-0.4-1c0-0.8,0.7-1.4,1.4-1.4c0,0,0,0,0,0  c0.4,0,0.7,0.2,1,0.4C83.5,73.9,83.6,74.3,83.6,74.7z M67.8,70.2c-0.7,1.1-1.9,1.8-3.2,1.8c-0.9,0-1.7,0.1-2.6,0.1  c-31.3,0-44.2-23.8-47.4-31.3c-0.5-1.2-0.4-2.5,0.3-3.6l7.3-11.6l18.2,28.5c0.2,0.3,0.4,0.4,0.7,0.5l34.1,3.9L67.8,70.2z M41.7,52.6  L17,13.8L62.8,19l24.8,38.9L41.7,52.6z"></path><path d="M23.7,64.2c-0.6,0-1,0.4-1,1v8.3c0,0.6,0.4,1,1,1s1-0.4,1-1v-8.3C24.7,64.7,24.2,64.2,23.7,64.2z"></path><path d="M23.7,76.3c-0.6,0-1,0.4-1,1v9.5c0,0.6,0.4,1,1,1s1-0.4,1-1v-9.5C24.7,76.7,24.2,76.3,23.7,76.3z"></path><path d="M29.8,69.9c-0.6,0-1,0.4-1,1v2.5c0,0.6,0.4,1,1,1s1-0.4,1-1v-2.5C30.8,70.4,30.3,69.9,29.8,69.9z"></path><path d="M29.8,76.3c-0.6,0-1,0.4-1,1v9.5c0,0.6,0.4,1,1,1s1-0.4,1-1v-9.5C30.8,76.7,30.3,76.3,29.8,76.3z"></path><path d="M36.4,75.4c-0.6,0-1,0.4-1,1v10.4c0,0.6,0.4,1,1,1s1-0.4,1-1V76.4C37.4,75.8,37,75.4,36.4,75.4z"></path><path d="M43,79.2c-0.6,0-1,0.4-1,1v6.5c0,0.6,0.4,1,1,1s1-0.4,1-1v-6.5C44,79.7,43.5,79.2,43,79.2z"></path></svg>