<svg xmlns="http://www.w3.org/2000/svg" xmlns:xlink="http://www.w3.org/1999/xlink" version="1.1" x="0px" y="0px" viewBox="0 0 100 100" style="enable-background:new 0 0 100 100;" xml:space="preserve"><style type="text/css">
	.st0{fill:none;stroke:#000000;stroke-width:2;stroke-linecap:round;stroke-linejoin:round;stroke-miterlimit:10;}
	.st1{fill:none;stroke:#000000;stroke-width:2;stroke-miterlimit:10;}
	.st2{fill:none;stroke:#000000;stroke-width:2;stroke-linecap:round;stroke-linejoin:round;}
	.st3{fill:none;stroke:#000000;stroke-width:2;stroke-linecap:round;stroke-linejoin:round;stroke-dasharray:4.1329,4.1329;}
</style><path d="M80.2,41.2l-9.8-16.7l6.5-9.3c0.2-0.3,0.2-0.7,0-1.1c-0.2-0.3-0.6-0.5-1-0.5l-41.5,4.4c-0.3,0-0.5,0.2-0.7,0.4L9.8,52.8  c-0.2,0.3-0.2,0.7,0,1.1c0.2,0.3,0.5,0.5,0.9,0.5c0,0,0.1,0,0.1,0l11.4-1.2l9.8,16.6c0.1,0.2,0.2,0.3,0.4,0.4  c0.1,0.1,1.1,0.5,3.2,0.5c3.8,0,11.2-1.4,23.9-8.9l0.5-0.3c5.5-3.2,10-6.4,13.4-9.5l1.1,2.5c0.1,0.3,0.3,0.5,0.6,0.6  c0.1,0,0.2,0.1,0.3,0.1c0.2,0,0.4,0,0.5-0.1l3.9-2.3c0.2-0.1,0.4-0.4,0.5-0.7c0.1-0.3,0-0.6-0.2-0.8l-2.6-3.4c2.9-3.6,3.1-5.7,3.1-6  C80.4,41.6,80.3,41.4,80.2,41.2z M35.1,20.1L74,16L64,30.3L43.6,32c-0.5,0-1,0.5-0.9,1.1s0.5,1,1.1,0.9l18.7-1.6L51.6,48l-38.9,4.1  L35.1,20.1z M58.9,59.7L58.4,60c-16.8,9.9-23.7,8.8-25,8.4l-9.1-15.5L52.2,50c0.3,0,0.5-0.2,0.7-0.4l11.4-16.3l4.2,7.1  c-0.5,0.5-0.9,1.2-1.1,1.9c-0.3,1.1-0.1,2.2,0.4,3.2c0.6,1,1.5,1.6,2.5,1.9c0.3,0.1,0.7,0.1,1.1,0.1c0,0,0,0,0,0l1,2.4  C69.1,53.1,64.5,56.4,58.9,59.7z M72.5,45.2c-0.5,0.3-1.1,0.4-1.6,0.2c-0.6-0.1-1-0.5-1.3-1c-0.3-0.5-0.4-1.1-0.2-1.6  c0.1-0.6,0.5-1,1-1.3c0.3-0.2,0.7-0.3,1.1-0.3c0.7,0,1.5,0.4,1.9,1.1C73.9,43.3,73.6,44.6,72.5,45.2z M75.8,52.6L73.4,47  c0,0,0.1,0,0.1-0.1c0.1-0.1,0.3-0.2,0.4-0.3l1.1,1.5c0.1,0.1,0.1,0.3,0.3,0.4c0,0,0,0,0.1,0l2.3,2.9L75.8,52.6z M76,46.1l-0.8-1  c0.5-1.2,0.5-2.6-0.2-3.8c-1-1.7-3-2.4-4.8-1.9l-4.7-7.9l3.6-5.1l9.2,15.6C78.2,42.5,77.7,43.9,76,46.1z"></path><path d="M64.3,67c-0.6,0-1,0.4-1,1v10.3c0,0.6,0.4,1,1,1s1-0.4,1-1V68C65.3,67.5,64.9,67,64.3,67z"></path><path d="M69.7,67.4c-0.6,0-1,0.4-1,1v12c0,0.6,0.4,1,1,1s1-0.4,1-1v-12C70.7,67.8,70.2,67.4,69.7,67.4z"></path><path d="M74.7,59.7c-0.6,0-1,0.4-1,1V74c0,0.6,0.4,1,1,1s1-0.4,1-1V60.7C75.7,60.2,75.2,59.7,74.7,59.7z"></path><path d="M37.7,75.4c-0.6,0-1,0.4-1,1v9c0,0.6,0.4,1,1,1s1-0.4,1-1v-9C38.7,75.8,38.2,75.4,37.7,75.4z"></path><path d="M64.3,80.8c-0.6,0-1,0.4-1,1v3.6c0,0.6,0.4,1,1,1s1-0.4,1-1v-3.6C65.3,81.3,64.8,80.8,64.3,80.8z"></path><path d="M74.5,76.8c-0.6,0-1,0.4-1,1v3.6c0,0.6,0.4,1,1,1s1-0.4,1-1v-3.6C75.5,77.3,75.1,76.8,74.5,76.8z"></path><path d="M33.4,74.3c-0.6,0-1,0.4-1,1v3.6c0,0.6,0.4,1,1,1s1-0.4,1-1v-3.6C34.4,74.8,34,74.3,33.4,74.3z"></path></svg>