<?xml version="1.0" encoding="UTF-8"?>
<svg fill="#2E75B6" width="100pt" height="100pt" version="1.1" viewBox="0 0 100 100" xmlns="http://www.w3.org/2000/svg">
 <path d="m34.891 86.684c-0.54688 1.6797-2.0938 2.8555-3.8516 2.9219l-0.48047 0.019531v3.4609h49.816v-3.4609h-0.5c-1.832 0-3.4453-1.1836-4.0195-2.9414l-0.11328-0.34766-14.492 0.003906-2.3281-7.0898c2.7734-0.96484 5.3945-2.2891 7.793-3.9375l-0.35156-0.97656c-2.3828 1.6641-4.9922 3.0039-7.7578 3.9688l-1.4727-4.4844c9.1523-3.1953 16.281-11.242 17.793-21.48 2.1641-14.68-8.0156-28.379-22.688-30.543-4.1133-0.60547-8.1523-0.24219-11.883 0.91797l-1.457-4.4336c2.2109-0.69141 4.5156-1.1484 6.8789-1.3359l-0.35156-0.97656c-2.3477 0.20703-4.6367 0.66797-6.8398 1.3594l-0.89453-2.7266-0.94922 0.3125 0.89453 2.7266c-11.117 3.8594-19.781 13.617-21.613 26.043-2.625 17.785 9.7109 34.391 27.496 37.016 5.0039 0.73828 9.9141 0.28125 14.445-1.1406l2.2266 6.7812h-25.188zm17.203-63.902c14.133 2.0859 23.93 15.277 21.844 29.41-2.0859 14.129-15.277 23.934-29.406 21.848-14.133-2.0859-23.93-15.277-21.848-29.406 2.0859-14.133 15.281-23.934 29.41-21.852zm-8.4258 56.926c-17.242-2.543-29.199-18.641-26.652-35.879 1.7773-12.043 10.164-21.496 20.938-25.242l1.4609 4.4453c-9.1172 3.2148-16.207 11.242-17.715 21.453-2.1641 14.676 8.0156 28.379 22.691 30.547 4.0859 0.60156 8.0938 0.24609 11.801-0.89453l1.4688 4.4766c-4.3906 1.3672-9.1445 1.8086-13.992 1.0938zm31.359 7.6328c0.73438 1.8242 2.4062 3.0781 4.3438 3.2656v1.4844l-47.812-0.003906v-1.5195c1.8516-0.24609 3.4531-1.4844 4.1602-3.2266z"/>
</svg>
