<svg xmlns="http://www.w3.org/2000/svg" xmlns:xlink="http://www.w3.org/1999/xlink" version="1.1" x="0px" y="0px" viewBox="0 0 100 100" enable-background="new 0 0 100 100" xml:space="preserve"><path d="M34.892,86.685c-0.546,1.679-2.094,2.854-3.853,2.923l-0.48,0.02v3.459h49.815l-0.001-3.46h-0.5  c-1.832,0-3.447-1.183-4.019-2.941l-0.112-0.346H61.249l-2.327-7.09c2.772-0.965,5.394-2.291,7.794-3.939l-0.35-0.977  c-2.381,1.664-4.991,3.003-7.757,3.968l-1.472-4.483c9.154-3.197,16.282-11.241,17.793-21.48  c2.165-14.678-8.014-28.379-22.689-30.544c-4.115-0.607-8.153-0.243-11.882,0.917l-1.456-4.433c2.212-0.691,4.515-1.149,6.877-1.336  l-0.35-0.975c-2.348,0.207-4.638,0.668-6.84,1.358l-0.896-2.725l-0.95,0.312l0.896,2.727c-11.119,3.859-19.781,13.616-21.615,26.044  c-2.624,17.787,9.712,34.391,27.498,37.015c5.005,0.738,9.914,0.282,14.446-1.139l2.227,6.78H35.004L34.892,86.685z M52.094,22.783  C66.225,24.867,76.025,38.06,73.939,52.19c-2.084,14.13-15.276,23.932-29.407,21.847c-14.131-2.084-23.931-15.278-21.846-29.408  C24.771,30.499,37.963,20.698,52.094,22.783z M43.669,79.708c-17.241-2.543-29.198-18.64-26.654-35.88  c1.777-12.042,10.166-21.498,20.937-25.242l1.459,4.444c-9.117,3.215-16.208,11.243-17.715,21.453  c-2.165,14.677,8.014,28.379,22.69,30.545c4.085,0.603,8.095,0.246,11.801-0.895l1.47,4.475  C53.269,79.982,48.517,80.423,43.669,79.708z M75.029,87.339c0.734,1.825,2.408,3.078,4.345,3.264v1.483H31.559v-1.521  c1.853-0.248,3.453-1.486,4.159-3.227H75.029z"></path></svg>