<svg xmlns="http://www.w3.org/2000/svg" xmlns:xlink="http://www.w3.org/1999/xlink" version="1.1" x="0px" y="0px" viewBox="0 0 100 100" enable-background="new 0 0 100 100" xml:space="preserve"><path d="M94.68,76.873l-9.445-9.443c6.575-7.42,10.175-16.861,10.175-26.859c0-10.836-4.22-21.024-11.883-28.686  C75.864,4.222,65.677,0.002,54.841,0.002c-9.999,0-19.44,3.6-26.86,10.174l-5.132-5.132c-0.002-0.002-0.003-0.004-0.004-0.005  c-0.002-0.002-0.004-0.003-0.005-0.004l-4.303-4.303c-0.977-0.976-2.559-0.976-3.536,0c-0.976,0.976-0.976,2.559,0,3.536l2.59,2.589  C-0.208,26.518,0.412,57.21,19.307,76.104c8.899,8.9,20.55,14.052,33.034,14.659V95H28.455c-1.381,0-2.5,1.119-2.5,2.5  s1.119,2.5,2.5,2.5h52.77c1.381,0,2.5-1.119,2.5-2.5s-1.119-2.5-2.5-2.5H57.341v-4.237c11.654-0.567,22.581-5.095,31.223-12.935  l2.581,2.58c0.488,0.488,1.128,0.732,1.768,0.732s1.28-0.244,1.768-0.732C95.656,79.432,95.656,77.849,94.68,76.873z M79.991,15.42  c6.718,6.718,10.418,15.65,10.418,25.151s-3.7,18.432-10.418,25.151c-6.718,6.718-15.649,10.417-25.15,10.417  s-18.434-3.699-25.152-10.417c-6.718-6.718-10.417-15.65-10.417-25.151s3.7-18.433,10.417-25.151  c6.718-6.718,15.65-10.418,25.152-10.418C64.342,5.002,73.273,8.702,79.991,15.42z M54.841,85.823  c-12.087,0-23.452-4.708-31.999-13.255C5.886,55.611,5.271,28.103,21.128,10.395l3.317,3.317  c-6.574,7.419-10.174,16.86-10.174,26.859c0,10.836,4.22,21.024,11.882,28.686c7.663,7.662,17.851,11.882,28.687,11.882  c9.999,0,19.439-3.6,26.858-10.174l3.32,3.319C76.711,81.74,66.091,85.823,54.841,85.823z"></path></svg>