<svg xmlns="http://www.w3.org/2000/svg" xmlns:xlink="http://www.w3.org/1999/xlink" version="1.1" x="0px" y="0px" viewBox="0 0 100 100" style="enable-background:new 0 0 100 100;" xml:space="preserve"><style type="text/css">
	.st0{fill:none;stroke:#000000;stroke-width:2;stroke-linecap:round;stroke-linejoin:round;stroke-miterlimit:10;}
	.st1{fill:none;stroke:#000000;stroke-width:2;stroke-linecap:round;stroke-linejoin:round;}
	.st2{fill:none;stroke:#000000;stroke-width:2;stroke-linecap:round;stroke-linejoin:round;stroke-dasharray:4.0506,4.0506;}
	.st3{fill:none;stroke:#000000;stroke-width:2;stroke-miterlimit:10;}
</style><path d="M77.8,64.8c-1,0-1.9,0.1-2.8,0.3l15.2-35.4c0.1-0.2,0.1-0.5,0-0.8c-0.1-0.2-0.3-0.4-0.5-0.5L83.9,26c0,0,0,0,0,0  c0,0,0,0,0,0l-3.2-1.4c0.2-2-1-4-3.1-5l-2.3-1c0.8-3-0.8-6.2-3.7-7.4c-2.9-1.2-6.3-0.1-7.9,2.5l-2.3-1c-1.2-0.5-2.5-0.6-3.7-0.2  c-0.8,0.3-1.5,0.8-2,1.4l-8.9-3.8c-0.5-0.2-1.1,0-1.3,0.5L29,49.5L25,24.2c-0.1-0.5-0.6-0.9-1.1-0.8l-12.8,2c-0.3,0-0.5,0.2-0.7,0.4  s-0.2,0.5-0.2,0.7l9.7,62c0.1,0.5,0.5,0.8,1,0.8c0.1,0,0.1,0,0.2,0l12.8-2c0.3,0,0.5-0.2,0.7-0.4s0.2-0.5,0.2-0.7l-2-12.6l13.3,5.7  L44.2,87c-0.1,0.5,0.2,1.1,0.7,1.2l4.3,1.1c0.1,0,0.2,0,0.2,0c0.2,0,0.4,0,0.5-0.1c0.2-0.1,0.4-0.4,0.5-0.6l1.7-6.6l12.4,5.3  c0.1,0.1,0.3,0.1,0.4,0.1c0.4,0,0.8-0.2,0.9-0.6l1.3-3.1c2.2,3.7,6.1,6.1,10.7,6.1c6.9,0,12.5-5.6,12.5-12.5S84.6,64.8,77.8,64.8z   M84.2,69.1c-1.8,1.5-4.1,2.3-6.4,2.3c-2.4,0-4.6-0.8-6.5-2.3c1.8-1.4,4-2.2,6.4-2.2C80.2,66.8,82.4,67.7,84.2,69.1z M55.4,50.1  l2.3,0.6l-8.2,32.9L47.2,83L55.4,50.1z M59,48.9L55.2,48l4.2-17l3.8,0.9L59,48.9z M59.7,51.1c0.4,0,0.9-0.3,1-0.8l3.6-14.5l1,0.3  l-4.6,18.4c-0.1,0.5,0.2,1.1,0.7,1.2c0.1,0,0.2,0,0.2,0c0.4,0,0.9-0.3,1-0.8l4.8-19.4c0.1-0.5-0.2-1.1-0.7-1.2l-2-0.5l0.6-2.6  c0.1-0.3,0-0.5-0.1-0.8c-0.1-0.2-0.4-0.4-0.6-0.5l-5.7-1.4c-0.5-0.1-1.1,0.2-1.2,0.7l-4.7,19c-0.1,0.3,0,0.5,0.1,0.8  c0.1,0.2,0.2,0.3,0.4,0.3l-5.4,21.6l-16.5-7.1l21.1-49.3l2.1,0.9L53,20c-0.1,0.2-0.1,0.5,0,0.8c0.1,0.2,0.3,0.4,0.5,0.5l23.4,10  c0.1,0.1,0.3,0.1,0.4,0.1c0.4,0,0.8-0.2,0.9-0.6l1.8-4.3l2.1,0.9L61.1,76.7l-7.1-3L59.7,51.1z M58.4,14.5c0.7-0.2,1.5-0.2,2.3,0.1  l3.1,1.3c0.5,0.2,1.1,0,1.3-0.5c1-2.2,3.5-3.2,5.7-2.3c2.2,1,3.2,3.5,2.3,5.7c-0.2,0.5,0,1.1,0.5,1.3l3.1,1.3  c1.5,0.6,2.3,2.2,1.8,3.4l-1.8,4.2l-21.6-9.3l1.8-4.2C57.3,15.1,57.8,14.7,58.4,14.5z M47,12.4l3.8,1.6L30.7,61l-1.2-7.7L47,12.4z   M21.8,87.2l-9.4-60l10.8-1.7l0.6,4.1l-3.4,0.5c-0.5,0.1-0.9,0.6-0.8,1.1c0.1,0.5,0.5,0.8,1,0.8c0.1,0,0.1,0,0.2,0l3.4-0.5l0.3,2.2  L21,34.3c-0.5,0.1-0.9,0.6-0.8,1.1c0.1,0.5,0.5,0.8,1,0.8c0.1,0,0.1,0,0.2,0l3.4-0.5l0.3,2.2l-3.4,0.5c-0.5,0.1-0.9,0.6-0.8,1.1  c0.1,0.5,0.5,0.8,1,0.8c0.1,0,0.1,0,0.2,0l3.4-0.5l0.3,2.2l-3.4,0.5c-0.5,0.1-0.9,0.6-0.8,1.1c0.1,0.5,0.5,0.8,1,0.8  c0.1,0,0.1,0,0.2,0l3.4-0.5l0.3,2.2L23,46.9c-0.5,0.1-0.9,0.6-0.8,1.1c0.1,0.5,0.5,0.8,1,0.8c0.1,0,0.1,0,0.2,0l3.4-0.5l0.3,2.2  l-3.4,0.5c-0.5,0.1-0.9,0.6-0.8,1.1c0.1,0.5,0.5,0.8,1,0.8c0.1,0,0.1,0,0.2,0l3.4-0.5l0.3,2.2l-3.4,0.5c-0.5,0.1-0.9,0.6-0.8,1.1  c0.1,0.5,0.5,0.8,1,0.8c0.1,0,0.1,0,0.2,0l3.4-0.5l0.3,2.2L25,59.5c-0.5,0.1-0.9,0.6-0.8,1.1c0.1,0.5,0.5,0.8,1,0.8  c0.1,0,0.1,0,0.2,0l3.4-0.5l0.3,2.2l-3.4,0.5c-0.5,0.1-0.9,0.6-0.8,1.1c0.1,0.5,0.5,0.8,1,0.8c0.1,0,0.1,0,0.2,0l3.4-0.5l0.3,2.2  l-3.4,0.5c-0.5,0.1-0.9,0.6-0.8,1.1c0.1,0.5,0.5,0.8,1,0.8c0.1,0,0.1,0,0.2,0l3.4-0.5l0.3,2.2l-3.4,0.5c-0.5,0.1-0.9,0.6-0.8,1.1  c0.1,0.5,0.5,0.8,1,0.8c0.1,0,0.1,0,0.2,0l3.4-0.5l0.3,2.2l-3.4,0.5c-0.5,0.1-0.9,0.6-0.8,1.1c0.1,0.5,0.5,0.8,1,0.8  c0.1,0,0.1,0,0.2,0l3.4-0.5l0.3,2.2l-3.4,0.5c-0.5,0.1-0.9,0.6-0.8,1.1c0.1,0.5,0.5,0.8,1,0.8c0.1,0,0.1,0,0.2,0l3.4-0.5l0.6,3.6  L21.8,87.2z M32.4,71.3l-0.8-5.1l16.1,6.9l-1.1,4.3L32.4,71.3z M46.3,86.6l0.4-1.6l2.3,0.6l-0.4,1.6L46.3,86.6z M65.9,81.2L64.3,85  l-11.8-5l1.1-4.3l7.7,3.3c0.1,0.1,0.3,0.1,0.4,0.1c0.1,0,0.3,0,0.4-0.1c0.2-0.1,0.4-0.3,0.5-0.5l21.5-50.2l3.8,1.6L72.4,66  c-4.2,2-7.1,6.3-7.1,11.2C65.3,78.6,65.5,79.9,65.9,81.2C65.9,81.2,65.9,81.2,65.9,81.2z M71.5,85.6c1.8-1.4,4-2.2,6.3-2.2  c2.3,0,4.5,0.8,6.3,2.2c-1.8,1.3-3.9,2.1-6.3,2.1C75.4,87.7,73.2,86.9,71.5,85.6z M85.5,84.2c-2.2-1.8-4.9-2.8-7.8-2.8  c-2.9,0-5.6,1-7.8,2.8c-1.7-1.9-2.7-4.3-2.7-7c0-2.6,1-5,2.6-6.8c2.2,1.9,5,2.9,7.9,2.9c2.9,0,5.7-1,7.9-2.9  c1.6,1.8,2.5,4.2,2.5,6.8C88.2,79.9,87.2,82.4,85.5,84.2z"></path><ellipse transform="matrix(0.3938 -0.9192 0.9192 0.3938 26.1612 73.9866)" cx="69.2" cy="17.2" rx="1.4" ry="1.4"></ellipse></svg>