<?xml version="1.0" encoding="UTF-8"?>
<svg fill="#2E75B6" width="100pt" height="100pt" version="1.1" viewBox="0 0 100 100" xmlns="http://www.w3.org/2000/svg">
 <g>
  <path d="m77.801 64.801c-1 0-1.8984 0.10156-2.8008 0.30078l15.199-35.398c0.10156-0.19922 0.10156-0.5 0-0.80078-0.10156-0.19922-0.30078-0.39844-0.5-0.5l-5.8008-2.4023-3.1992-1.3984c0.19922-2-1-4-3.1016-5l-2.3008-1c0.80078-3-0.80078-6.1992-3.6992-7.3984-2.8984-1.1992-6.3008-0.10156-7.8984 2.5l-2.3008-1c-1.1992-0.5-2.5-0.60156-3.6992-0.19922-0.80078 0.30078-1.5 0.80078-2 1.3984l-8.8984-3.8008c-0.5-0.19922-1.1016 0-1.3008 0.5l-16.5 38.898-4-25.301c-0.10156-0.5-0.60156-0.89844-1.1016-0.80078l-12.801 2c-0.30078 0-0.5 0.19922-0.69922 0.39844-0.19922 0.19922-0.19922 0.5-0.19922 0.69922l9.6992 62c0.10156 0.5 0.5 0.80078 1 0.80078h0.19922l12.801-2c0.30078 0 0.5-0.19922 0.69922-0.39844 0.19922-0.19922 0.19922-0.5 0.19922-0.69922l-2-12.602 13.301 5.6992-1.8984 7.7031c-0.10156 0.5 0.19922 1.1016 0.69922 1.1992l4.3008 1.1016h0.19922c0.19922 0 0.39844 0 0.5-0.10156 0.19922-0.10156 0.39844-0.39844 0.5-0.60156l1.6992-6.6016 12.398 5.3008c0.10156 0.10156 0.30078 0.10156 0.39844 0.10156 0.39844 0 0.80078-0.19922 0.89844-0.60156l1.3008-3.1016c2.1992 3.6992 6.1016 6.1016 10.699 6.1016 6.8984 0 12.5-5.6016 12.5-12.5 0.007812-6.8984-5.6914-12.496-12.492-12.496zm6.3984 4.3008c-1.8008 1.5-4.1016 2.3008-6.3984 2.3008-2.3984 0-4.6016-0.80078-6.5-2.3008 1.8008-1.3984 4-2.1992 6.3984-2.1992 2.5-0.10156 4.6992 0.79688 6.5 2.1992zm-28.801-19l2.3008 0.60156-8.1992 32.898-2.3008-0.60156zm3.6016-1.2031l-3.8008-0.89844 4.1992-17 3.8008 0.89844zm0.69922 2.2031c0.39844 0 0.89844-0.30078 1-0.80078l3.6016-14.5 1 0.30078-4.6016 18.398c-0.10156 0.5 0.19922 1.1016 0.69922 1.1992h0.19922c0.39844 0 0.89844-0.30078 1-0.80078l4.8008-19.398c0.10156-0.5-0.19922-1.1016-0.69922-1.1992l-2-0.5 0.60156-2.6016c0.10156-0.30078 0-0.5-0.10156-0.80078-0.10156-0.19922-0.39844-0.39844-0.60156-0.5l-5.6992-1.3984c-0.5-0.10156-1.1016 0.19922-1.1992 0.69922l-4.6992 19c-0.10156 0.30078 0 0.5 0.10156 0.80078 0.10156 0.19922 0.19922 0.30078 0.39844 0.30078l-5.3984 21.602-16.5-7.1016 21.102-49.301 2.1016 0.89844-1.8047 4.6016c-0.10156 0.19922-0.10156 0.5 0 0.80078 0.10156 0.19922 0.30078 0.39844 0.5 0.5l23.398 10c0.10156 0.10156 0.30078 0.10156 0.39844 0.10156 0.39844 0 0.80078-0.19922 0.89844-0.60156l1.8008-4.3008 2.1016 0.89844-20.996 49.301-7.1016-3zm-1.3008-36.602c0.69922-0.19922 1.5-0.19922 2.3008 0.10156l3.1016 1.3008c0.5 0.19922 1.1016 0 1.3008-0.5 1-2.1992 3.5-3.1992 5.6992-2.3008 2.1992 1 3.1992 3.5 2.3008 5.6992-0.19922 0.5 0 1.1016 0.5 1.3008l3.1016 1.3008c1.5 0.60156 2.3008 2.1992 1.8008 3.3984l-1.8008 4.1992-21.602-9.3008 1.8008-4.1992c0.39844-0.39844 0.89844-0.80078 1.4961-1zm-11.398-2.1016l3.8008 1.6016-20.102 47-1.1992-7.6992zm-25.199 74.801l-9.3984-60 10.801-1.6992 0.60156 4.1016-3.3984 0.5c-0.5 0.10156-0.89844 0.60156-0.80078 1.1016 0.10156 0.5 0.5 0.80078 1 0.80078h0.19922l3.3984-0.5 0.30078 2.1992-3.5039 0.59766c-0.5 0.10156-0.89844 0.60156-0.80078 1.1016 0.10156 0.5 0.5 0.80078 1 0.80078h0.19922l3.3984-0.5 0.30078 2.1992-3.3984 0.5c-0.5 0.10156-0.89844 0.60156-0.80078 1.1016 0.10156 0.5 0.5 0.80078 1 0.80078h0.19922l3.3984-0.5 0.30078 2.1992-3.3984 0.5c-0.5 0.10156-0.89844 0.60156-0.80078 1.1016 0.10156 0.5 0.5 0.80078 1 0.80078h0.19922l3.3984-0.5 0.30078 2.1992-3.4961 0.79297c-0.5 0.10156-0.89844 0.60156-0.80078 1.1016 0.10156 0.5 0.5 0.80078 1 0.80078h0.19922l3.3984-0.5 0.30078 2.1992-3.3984 0.5c-0.5 0.10156-0.89844 0.60156-0.80078 1.1016 0.10156 0.5 0.5 0.80078 1 0.80078h0.19922l3.3984-0.5 0.30078 2.1992-3.3984 0.5c-0.5 0.10156-0.89844 0.60156-0.80078 1.1016 0.10156 0.5 0.5 0.80078 1 0.80078h0.19922l3.3984-0.5 0.30078 2.1992-3.4961 0.79688c-0.5 0.10156-0.89844 0.60156-0.80078 1.1016 0.10156 0.5 0.5 0.80078 1 0.80078h0.19922l3.3984-0.5 0.30078 2.1992-3.3984 0.5c-0.5 0.10156-0.89844 0.60156-0.80078 1.1016 0.10156 0.5 0.5 0.80078 1 0.80078h0.19922l3.3984-0.5 0.30078 2.1992-3.3984 0.5c-0.5 0.10156-0.89844 0.60156-0.80078 1.1016 0.10156 0.5 0.5 0.80078 1 0.80078h0.19922l3.3984-0.5 0.30078 2.1992-3.3984 0.5c-0.5 0.10156-0.89844 0.60156-0.80078 1.1016 0.10156 0.5 0.5 0.80078 1 0.80078h0.19922l3.3984-0.5 0.30078 2.1992-3.3984 0.5c-0.5 0.10156-0.89844 0.60156-0.80078 1.1016 0.10156 0.5 0.5 0.80078 1 0.80078h0.19922l3.3984-0.5 0.30078 2.1992-3.3984 0.5c-0.5 0.10156-0.89844 0.60156-0.80078 1.1016 0.10156 0.5 0.5 0.80078 1 0.80078h0.19922l3.3984-0.5 0.60156 3.6016zm10.598-15.898l-0.80078-5.1016 16.102 6.8984-1.1016 4.3008zm13.902 15.301l0.39844-1.6016 2.3008 0.60156-0.39844 1.6016zm19.598-5.4023l-1.5977 3.8008-11.801-5 1.1016-4.3008 7.6992 3.3008c0.10156 0.10156 0.30078 0.10156 0.39844 0.10156 0.10156 0 0.30078 0 0.39844-0.10156 0.19922-0.10156 0.39844-0.30078 0.5-0.5l21.5-50.199 3.8008 1.6016-15.5 36.098c-4.1992 2-7.1016 6.3008-7.1016 11.199 0.003906 1.4023 0.20312 2.6992 0.60156 4zm5.6016 4.4023c1.8008-1.3984 4-2.1992 6.3008-2.1992s4.5 0.80078 6.3008 2.1992c-1.8008 1.3008-3.8984 2.1016-6.3008 2.1016-2.4023-0.003906-4.6016-0.80469-6.3008-2.1016zm14-1.4023c-2.1992-1.8008-4.8984-2.8008-7.8008-2.8008-2.8984 0-5.6016 1-7.8008 2.8008-1.6992-1.8984-2.6992-4.3008-2.6992-7 0-2.6016 1-5 2.6016-6.8008 2.1992 1.8984 5 2.8984 7.8984 2.8984 2.8984 0 5.6992-1 7.8984-2.8984 1.6016 1.8008 2.5 4.1992 2.5 6.8008 0.10156 2.6992-0.89844 5.1992-2.5977 7z"/>
  <path d="m69.773 15.863c1.7148 0.73438 0.61328 3.3086-1.1016 2.5742s-0.61328-3.3086 1.1016-2.5742"/>
 </g>
</svg>
