<?xml version="1.0" encoding="UTF-8"?>
<svg width="100pt" height="100pt" version="1.1" viewBox="0 0 100 100" xmlns="http://www.w3.org/2000/svg">
 <g>
  <path d="m49.309 59.508c0.19141 0.19141 0.44141 0.28906 0.69141 0.28906s0.5-0.097656 0.69141-0.28516l17.633-17.633c0.38281-0.38281 0.38281-1.0039 0-1.3867-0.38281-0.38281-1.0039-0.38281-1.3867 0l-16.938 16.938-16.941-16.938c-0.38281-0.38281-1.0039-0.38281-1.3867 0-0.38281 0.38281-0.38281 1.0039 0 1.3867z"/>
  <path d="m50 98c26.469 0 48-21.531 48-48s-21.531-48-48-48-48 21.531-48 48 21.531 48 48 48zm0-94.039c25.387 0 46.039 20.652 46.039 46.039s-20.652 46.039-46.039 46.039-46.039-20.652-46.039-46.039 20.652-46.039 46.039-46.039z"/>
 </g>
</svg>
