<?xml version="1.0" encoding="UTF-8"?>
<svg fill="#2E75B6" width="100pt" height="100pt" version="1.1" viewBox="0 0 100 100" xmlns="http://www.w3.org/2000/svg">
 <path d="m24 4c-0.55078 0-1 0.44922-1 1v12.094c-2.8359 0.47266-5 2.9414-5 5.9062 0 3.3008 2.6992 6 6 6s6-2.6992 6-6c0-2.9648-2.1641-5.4297-5-5.9062v-12.094c0-0.55078-0.44922-1-1-1zm42 0c-0.55078 0-1 0.44922-1 1v12.094c-2.8359 0.47266-5 2.9414-5 5.9062 0 3.3008 2.6992 6 6 6s6-2.6992 6-6c0-2.9648-2.1641-5.4297-5-5.9062v-12.094c0-0.55078-0.44922-1-1-1zm-53.969 6c-4.9844 0-9.0312 4.0469-9.0312 9.0312v59.938c0 4.9844 4.0469 9.0312 9.0312 9.0312h56.719c2.5195 4.7578 7.5039 8 13.25 8 8.2734 0 15-6.7266 15-15 0-6.5234-4.1758-12.062-10-14.125v-47.844c0-4.9844-4.0469-9.0312-9.0312-9.0312h-5.9688c-0.52734-0.007812-1.0156 0.47266-1.0156 1s0.48438 1.0078 1.0156 1h5.9688c3.9062 0 6.9766 3.125 7.0312 7.0312v14.969h-80v-14.969c0-3.9062 3.1211-7.0312 7.0312-7.0312h5.9688c0.52734 0.007812 1.0156-0.47266 1.0156-1s-0.48438-1.0078-1.0156-1zm17.969 0c-0.55078 0-1 0.44922-1 1s0.44922 1 1 1h30c0.55078 0 1-0.44922 1-1s-0.44922-1-1-1zm-6 9c2.2227 0 4 1.7773 4 4s-1.7773 4-4 4-4-1.7773-4-4 1.7773-4 4-4zm42 0c2.2227 0 4 1.7773 4 4s-1.7773 4-4 4-4-1.7773-4-4 1.7773-4 4-4zm-61 17h80v30.312c-0.96484-0.19531-1.9766-0.3125-3-0.3125-8.2734 0-15 6.7266-15 15 0 1.75 0.32031 3.4375 0.875 5h-55.844c-3.9062 0-7.0312-3.125-7.0312-7.0312zm77 32c7.1914 0 13 5.8086 13 13s-5.8086 13-13 13-13-5.8086-13-13 5.8086-13 13-13zm6.8125 8c-0.24219 0.035156-0.44531 0.15625-0.59375 0.375l-7.4062 9.25-6.2188-4.4375c-0.42578-0.3125-1.0938-0.20703-1.4062 0.21875s-0.20703 1.0938 0.21875 1.4062l7 5c0.41406 0.30078 1.0586 0.21484 1.375-0.1875l8-10c0.3125-0.43359 0.35938-0.99609-0.1875-1.4375-0.26172-0.17578-0.53906-0.22266-0.78125-0.1875z"/>
</svg>
