<?xml version="1.0" encoding="UTF-8"?>
<svg width="100pt" height="100pt" version="1.1" viewBox="0 0 100 100" xmlns="http://www.w3.org/2000/svg">
 <g fill-rule="evenodd">
  <path d="m7 50.004c0 23.738 19.266 42.996 43.004 42.996 23.738 0 42.996-19.258 42.996-42.996 0-23.738-19.258-43.004-42.996-43.004-23.738 0-43.004 19.266-43.004 43.004zm2 0c0-22.656 18.348-41.004 41.004-41.004s40.996 18.348 40.996 41.004-18.336 40.996-40.996 40.996c-22.656 0-41.004-18.34-41.004-40.996z"/>
  <path d="m23.289 40.77c0.011719 0.29297 0.15234 0.56641 0.38281 0.74609l25 20c0.36719 0.29297 0.88672 0.29297 1.25 0l25-20c0.21094-0.16406 0.34766-0.40625 0.375-0.67188 0.03125-0.26172-0.042969-0.52734-0.21094-0.73828-0.16797-0.20703-0.41016-0.33984-0.67578-0.36719-0.26562-0.03125-0.53125 0.046875-0.73828 0.21875l-24.375 19.5-24.375-19.5c-0.30469-0.25391-0.72656-0.30078-1.082-0.125-0.35156 0.17578-0.56641 0.54297-0.55078 0.9375z"/>
 </g>
</svg>
