<?xml version="1.0" encoding="UTF-8"?>
<svg width="100pt" height="100pt" version="1.1" viewBox="0 0 100 100" xmlns="http://www.w3.org/2000/svg">
 <g fill-rule="evenodd">
  <path d="m6 50.004c0 24.277 19.727 43.996 44.004 43.996s43.996-19.719 43.996-43.996-19.715-44.004-43.996-44.004c-24.277 0-44.004 19.727-44.004 44.004zm4 0c0-22.117 17.887-40.004 40.004-40.004 22.117 0 39.996 17.887 39.996 40.004 0 22.117-17.879 39.996-39.996 39.996-22.117 0-40.004-17.879-40.004-39.996z"/>
  <path d="m22.277 40.801c0.023437 0.58594 0.30469 1.1367 0.76953 1.4961l25 20c0.73047 0.58594 1.7695 0.58594 2.5 0l25-20c0.42188-0.32812 0.69141-0.8125 0.75391-1.3438 0.0625-0.52734-0.089843-1.0625-0.42578-1.4805-0.33203-0.41406-0.82031-0.68359-1.3516-0.73828s-1.0625 0.10156-1.4766 0.44141l-23.75 19-23.75-19c-0.60938-0.5-1.4531-0.59766-2.1602-0.24609-0.70703 0.35156-1.1406 1.082-1.1094 1.8711z"/>
 </g>
</svg>
