<?xml version="1.0" encoding="UTF-8"?>
<svg fill="#2E75B6" width="100pt" height="100pt" version="1.1" viewBox="0 0 100 100" xmlns="http://www.w3.org/2000/svg">
 <g>
  <path d="m81.02 61.719c-4.3008 5.3398-9.3984 8.1211-15.691 8.6719-0.39844 0.03125-0.80078 0.10938-1.1914 0.089844-0.66016-0.050781-0.92969 0.21094-0.94141 0.87109-0.011718 0.67969-0.058593 1.3711-0.14844 2.0391-0.98828 7.0781-4.7383 12.23-11.121 15.352-4.5586 2.2383-9.3984 2.7109-14.289 1.2383-5.1094-1.5391-9.0781-4.6211-11.789-9.2695-0.48828-0.83984-0.98047-1.6602-1.3281-2.5703-0.42188-1.1094-0.91016-1.4219-2.0703-1.2383-1.9102 0.30078-3.8086 0.71094-5.7109 1.0508-0.69922 0.12109-0.98047 0.62891-1 1.2109-0.03125 0.92969-0.37109 1.7812-0.51953 2.6797-0.21094 1.25-0.85938 1.5391-2.0781 1-0.94141-0.41016-1.8906-0.80078-2.7695-1.3086-2.0703-1.1992-4.25-2.1914-6.4102-3.2109-0.46875-0.21875-1-0.42188-1.0312-1.0195-0.03125-0.60938 0.48047-0.85938 0.94922-1.0898 2.8203-1.3711 5.4688-3.0391 8.0312-4.8516 1-0.71094 1.5586-0.51953 2.1914 0.53125 0.46094 0.76172 0.33984 1.9414 1.3398 2.2617 0.82812 0.26953 1.6211-0.42188 2.4688-0.51953 1.3086-0.14844 2.5703-0.53906 3.8086-0.96094 1.3398-0.44922 1.5-0.67969 1.4883-2.1016-0.03125-4.0117 1.1992-7.6602 3.4805-10.891 3.5391-5 8.4102-7.8906 14.531-8.6094 0.23047-0.03125 0.44922-0.058594 0.67969-0.070313 0.67187-0.03125 0.96875-0.28906 1-1.0508 0.078124-1.8086 0.35937-3.6016 0.87891-5.3594 1.0195-3.4688 2.8281-6.4688 5.3594-8.9883 4.2891-4.2695 9.5781-6.1914 15.621-6.1211 1.3789 0.019531 1.9805-0.32812 2.2891-1.6992 0.53125-2.3281 0.73828-4.7188 0.94922-7.1016 0.058594-0.73047-0.48828-0.85156-0.96094-0.96875-1.1484-0.30078-2.3008-0.60156-3.4609-0.78125-0.82812-0.12891-1.0312-0.51172-0.92188-1.2812 0.12109-0.83984 0.12891-1.6992 0.23828-2.5391 0.19141-1.5 0.62891-1.8281 2.1719-1.5312 1 0.19141 1.9688 0.51953 2.9688 0.76172 1.4492 0.33984 1.5 0.30078 1.5898-1.2188 0.070312-1.25 0-2.4883 0.23828-3.7383 0.30859-1.6719 0.85156-2.1602 2.5-2.0586 0.62109 0.039063 1.25 0.089844 1.8711 0.16016 1.6094 0.17969 2.4609 1.1992 2.1719 2.8203-0.23828 1.3398-0.67188 2.6406-1.0391 3.9609-0.37109 1.2812 0.03125 1.9102 1.3906 2.0312 0.51172 0.039063 1.0312-0.03125 1.5391 0.011719 1.1484 0.078125 1.3984 0.32031 1.5 1.4219 0.039062 0.44922 0.050781 0.91016 0 1.3594-0.28125 2.5703-0.60938 2.8281-3.1797 2.6484-0.39844-0.03125-0.80078 0.03125-1.1914-0.019532-0.55078-0.070312-1.1094-0.46875-1.6289-0.03125-0.53125 0.44141-0.96094 1.0195-1.0781 1.6992-0.33984 1.9609-0.60938 3.9297-0.91016 5.8984-0.14063 0.89063 0.30859 1.3398 1.1016 1.6719 4.1992 1.7383 7.2695 4.7383 9.6797 8.5391 2.0781 3.2812 2.6797 6.8984 2.5117 10.629-0.27734 4.4023-1.7461 8.4492-4.0781 11.59zm-30.449-20.379c-0.30859 0.41016-0.64062 0.80078-0.92187 1.2305-1.5703 2.3086-2.4609 4.8516-2.5508 7.6484-0.019531 0.69922 0.14062 1.1797 0.94922 1.3398 3.0195 0.62109 5.6484 2.0312 8.0195 3.9688 3.0703 2.5195 5.2617 5.6484 6.3906 9.4688 0.46094 1.5586 0.39844 1.5781 2.0117 1.5195 0.39844-0.011719 0.80078-0.039063 1.1797-0.12109 6.6016-1.3281 11.059-5.0195 12.871-11.66 1.6406-6.0195 0.10938-11.25-4.4102-15.371-7.0703-6.4141-18.008-5.5625-23.539 1.9766zm18.77-22.129c-0.62109 2.2383-0.62891 4.4688-0.96875 6.6484-0.14062 0.89844-0.32812 1.8008-0.58984 2.6719-0.39062 1.3086-1.4805 2.1992-2.5195 2.1016-4.7305-0.44922-9.0508 0.76172-12.941 3.4219-3.3789 2.3086-5.75 5.4805-7.2109 9.3008-0.80078 2.0781-1.3281 4.2383-1.3086 6.4883 0.011719 1.0898 0.050781 1.0195 1.3594 1.1914 0.94141 0.12109 1.0508-0.41016 1.1289-1.0781 0.019532-0.17188 0.050782-0.33984 0.070313-0.51172 0.66016-6.0508 3.9492-10.441 9.1289-13.23 8.0117-4.3086 17.441-0.85156 21.648 5.1094 3.9688 5.6289 3.4492 12.93 0.53125 17.898-1.9805 3.3789-5.0391 5.6719-8.6797 7.1484-1.4805 0.60938-3.0117 1.0195-4.6289 1.0586-0.57031 0.019531-1.3398-0.070313-1.2695 0.94141 0.070312 0.98047 0.25 1.1719 1.4414 1.1484 0.73828-0.011719 1.4805-0.039062 2.2109-0.14844 7.7695-1.1484 15.039-7.0781 16.891-15.781 1.8516-8.7188-2.2891-17.77-10.719-21.578-0.51953-0.23047-1.0312-0.51953-1.5703-0.67188-0.71094-0.19141-0.82031-0.55078-0.71094-1.25 0.30078-1.8516 0.48047-3.7188 0.73828-5.5703 0.10156-0.67188 0.26172-1.3281 0.57031-1.9609 0.76172-1.5508 1.6602-2.0391 3.3789-1.8398 0.62109 0.070312 1.25 0.10156 1.8711 0.10938 1.1484 0.011719 1.2109-0.050781 1.4219-1.2188 0.058594-0.33984 0.12891-0.67969 0.12891-1.0195 0.011718-1.1094-0.14844-1.3203-1.2695-1.3086-0.87109 0.011719-1.6992-0.10938-2.4883-0.44141-0.91016-0.37891-1.1914-0.94922-0.96875-1.8984 0.089844-0.37891 0.28906-0.73828 0.44922-1.1094 0.46875-1.1016 0.80078-2.25 0.96875-3.4297 0.12891-0.85938-0.26172-1.5508-1.0195-1.7617-0.91016-0.25-1.8984-0.32031-2.8516-0.26953-0.64062 0.039062-0.82031 0.71875-0.85156 1.3203-0.058594 1.1406-0.089844 2.2812-0.14063 3.4102-0.019531 0.39844-0.011718 0.80078-0.10156 1.1797-0.32812 1.3711-0.85938 1.6719-2.2109 1.2617-0.76172-0.23047-1.5117-0.5-2.2812-0.71875-2.1016-0.60156-2.3398-0.44141-2.5703 1.7383-0.12109 1.1211 0.011719 1.3281 1.1992 1.6602 1.5352 0.44922 3.0742 0.77734 4.7344 0.98828zm-64.879 57.859c0.5 0.32813 0.75 0.55078 1.0508 0.67969 1.8281 0.80078 3.5703 1.7812 5.3008 2.7695 0.69141 0.39844 1.3984 0.76172 2.1289 1.0781 1.1914 0.51172 1.3906 0.41016 1.6406-0.78906 0.12891-0.60938 0.23047-1.2383 0.23047-1.8594 0-1.1289 0.51953-1.7109 1.6016-2.0508 1.9805-0.62109 4.0312-0.67969 6.0586-0.96875 1.4297-0.19922 2.25 0.32031 2.8594 1.4883 0.21094 0.39844 0.39062 0.82031 0.60156 1.2305 1.2617 2.4492 2.7383 4.75 4.8984 6.5 6 4.8594 12.68 5.9297 19.859 3.1719 3.8711-1.4805 7.0391-4.0586 9.0898-7.7109 2.0312-3.6016 2.9102-7.5703 2.4883-11.691-0.78906-7.6484-4.8516-13.012-11.98-15.852-4.1289-1.6484-8.4219-1.7188-12.73-0.41016-7.9297 2.4102-13.75 10.078-13.469 18.352 0.050781 1.6211-0.14844 1.8906-1.6602 2.4805-2.25 0.87109-4.6797 0.96875-6.9688 1.6602-0.67188 0.19922-1.0586-0.039063-1.2617-0.73828-0.23047-0.82031-0.62109-1.5781-1.3711-2.3789-2.707 1.6172-5.4375 3.2695-8.3672 5.0391z"/>
  <path d="m32.871 84.629c-7.8711-5.9609-8.7695-16.121-3.1406-23.262 5.1484-6.5391 15.359-9.1211 23.5-2.7695 6.8594 5.3516 8.7695 15.141 2.8711 22.68-5.7422 7.3242-16.031 8.7227-23.23 3.3516zm0.14844-1.1289c0.5 0.37891 0.96875 0.80078 1.5 1.1211 10.301 6.1797 23.512-0.48047 24.07-12.621 0.089844-1.9688 0.058594-2.0508-1.7695-2.6602-6.2383-2.0781-10.43-6.2891-12.789-12.379-0.48828-1.2617-0.46875-1.2617-1.8086-1.1797-3.1406 0.19141-5.9805 1.1992-8.5898 3-7.5312 5.1992-9.9219 17.258-0.61328 24.719zm25.199-14.789c0.058594-1.4219-0.48047-2.1719-1.75-2.4297-0.48828-0.10156-0.96875-0.32812-1.4102-0.57812-3.4883-2-6.2383-4.6719-7.7109-8.5117-0.32031-0.82812-1.0391-1.2109-1.8789-1.1406-0.33984 0.03125-0.53906 0.19141-0.48047 0.53906 0.039063 0.28125 0.12109 0.55859 0.23047 0.82031 1.8281 4.4219 4.8281 7.8008 9.1406 9.8906 1.1914 0.55859 2.2891 1.5273 3.8594 1.4102zm-1.1172-3.3828c-0.51953-3.1719-5.4297-7.9414-8.4414-8.1992 0.46094 3.1797 5.1211 7.7109 8.4414 8.1992z"/>
 </g>
</svg>
