<?xml version="1.0" encoding="UTF-8"?>
<svg fill="#2E75B6" width="100pt" height="100pt" version="1.1" viewBox="0 0 100 100" xmlns="http://www.w3.org/2000/svg">
 <path d="m83.691 37.691c0-18.609-15.086-33.691-33.691-33.691s-33.691 15.082-33.691 33.691c0 6.7969 2.0156 13.121 5.4766 18.414h-0.058594l25.254 40.367c0.55078 1.1094 1.6953 1.8711 3.0156 1.8711 1.3203 0 2.4648-0.76172 3.0156-1.8711l25.254-40.367h-0.058594c3.4688-5.293 5.4844-11.617 5.4844-18.414m-33.691-15.363c8.4844 0 15.363 6.8789 15.363 15.363s-6.8789 15.363-15.363 15.363-15.363-6.8789-15.363-15.363 6.8789-15.363 15.363-15.363z" fill-rule="evenodd"/>
</svg>
