<?xml version="1.0" encoding="UTF-8"?>
<svg fill="#2E75B6" width="100pt" height="100pt" version="1.1" viewBox="0 0 100 100" xmlns="http://www.w3.org/2000/svg">
 <path d="m88.75 8.0117c-0.35938 0.03125-0.70703 0.125-1.0312 0.28125l-78 37c-1.0625 0.50781-1.7305 1.5938-1.7031 2.7734 0.027344 1.1797 0.74219 2.2344 1.8281 2.6953l27.844 11.531 11.531 27.844c0.44531 1.1094 1.5039 1.8477 2.6992 1.8789 1.1914 0.035156 2.293-0.64062 2.8008-1.7227l37-78c0.46484-0.97266 0.37109-2.1172-0.24219-3-0.61328-0.88672-1.6562-1.375-2.7266-1.2812zm-6.0938 9.3125l-30.469 64.25-9.4062-22.719c-0.30469-0.73438-0.89062-1.3203-1.625-1.625l-22.781-9.4375z"/>
</svg>
