<?xml version="1.0" encoding="UTF-8"?>
<svg width="100pt" height="100pt" version="1.1" viewBox="0 0 100 100" xmlns="http://www.w3.org/2000/svg">
 <path d="m65.875 35.922c0-8.75-7.1211-15.871-15.875-15.871s-15.875 7.1211-15.875 15.871c0 8.7539 7.1211 15.875 15.875 15.875s15.875-7.1211 15.875-15.875zm-29.75 0c0-7.6484 6.2266-13.871 13.875-13.871s13.875 6.2227 13.875 13.871c0 7.6523-6.2266 13.875-13.875 13.875s-13.875-6.2266-13.875-13.875zm47.359 52.402c0 5.2812-21.902 6.6758-33.484 6.6758s-33.484-1.3945-33.484-6.6758c0-2.7969 5.8516-4.793 17.387-5.9375 0.54297-0.054688 1.0391 0.34766 1.0938 0.89453 0.054687 0.55078-0.34766 1.0391-0.89453 1.0938-12.812 1.2695-15.586 3.4688-15.586 3.9453 0 1.5898 11.113 4.6797 31.484 4.6797s31.484-3.0898 31.484-4.6758c0-0.48047-2.8047-2.6953-15.75-3.9609-0.55078-0.054687-0.94922-0.54297-0.89844-1.0938 0.054687-0.55078 0.53125-0.95703 1.0938-0.89844 11.648 1.1406 17.555 3.1406 17.555 5.9531zm-34.016 0.78516c0.1875 0.23438 0.47656 0.37109 0.77734 0.37109 0.30078 0 0.58594-0.13672 0.77734-0.37109l1.543-1.9023c1.1602-1.4336 28.434-35.266 28.434-51.461 0-16.953-13.797-30.746-30.758-30.746-16.953 0-30.746 13.793-30.746 30.746 0 15.84 25.52 47.859 28.43 51.461zm0.77344-82.109c15.859 0 28.758 12.895 28.758 28.746 0 15.492-26.848 48.793-27.988 50.199l-0.76562 0.94141-0.76172-0.94141c-1.1445-1.4141-27.984-34.789-27.984-50.203-0.003906-15.848 12.895-28.742 28.742-28.742z"/>
</svg>
