<?xml version="1.0" encoding="UTF-8"?>
<svg fill="#F09000" width="100pt" height="100pt" version="1.1" viewBox="0 0 100 100" xmlns="http://www.w3.org/2000/svg">
 <g>
  <path d="m48.262 39.742c-3.5703-3.6172-9.3555-3.6133-12.918 0l-0.28906 0.29297c-4.0312 4.0898-4.0312 10.719-0.003907 14.805l11.023 11.176c2.168 2.1953 5.6875 2.1914 7.8516 0l11.02-11.176c4.0312-4.0859 4.0234-10.723-0.003906-14.805l-0.28516-0.29297c-3.5703-3.6172-9.3516-3.6172-12.918 0l0.22266-0.22656c-1.082 1.0977-2.8398 1.1016-3.9258 0z" fill-rule="evenodd"/>
  <path d="m50 90c-22.09 0-40-17.91-40-40s17.91-40 40-40 40 17.91 40 40-17.91 40-40 40zm0-4c19.883 0 36-16.117 36-36s-16.117-36-36-36-36 16.117-36 36 16.117 36 36 36z"/>
 </g>
</svg>
