<?xml version="1.0" encoding="UTF-8"?>
<svg width="100pt" height="100pt" version="1.1" viewBox="0 0 100 100" xmlns="http://www.w3.org/2000/svg">
 <g fill="none" stroke="#000" stroke-miterlimit="10">
  <path d="m5.375 59.66c8.9102 0 8.9102 4 17.816 4 8.9102 0 8.9102-4 17.824-4s8.9141 4 17.824 4c8.9141 0 8.9141-4 17.828-4 8.9141 0 8.9141 4 17.828 4"/>
  <path d="m5.375 63.812c8.9102 0 8.9102 4 17.816 4 8.9102 0 8.9102-4 17.824-4s8.9141 4 17.824 4c8.9141 0 8.9141-4 17.828-4 8.9141 0 8.9141 4 17.828 4"/>
  <path d="m5.375 71.812c8.9102 0 8.9102 4 17.816 4 8.9102 0 8.9102-4 17.824-4s8.9141 4 17.824 4c8.9141 0 8.9141-4 17.828-4 8.9141 0 8.9141 4 17.828 4"/>
  <path d="m38.5 60v-29.23c0-3.6367 2.8281-6.582 6.4648-6.582 1.9883 0 3.6641 1.3359 4.8672 2.7305"/>
  <path d="m54.5 63v-32.23c0-3.6367 2.9336-6.582 6.5703-6.582 1.9883 0 3.6094 1.0039 4.8164 2.3945"/>
  <path d="m38 39.5h16"/>
  <path d="m38 49.5h16"/>
 </g>
</svg>
