<?xml version="1.0" encoding="UTF-8"?>
<svg width="100pt" height="100pt" version="1.1" viewBox="0 0 100 100" xmlns="http://www.w3.org/2000/svg">
 <path d="m94.887 68.773v-37.547-0.007812-0.007812-8.7734c0-0.53125-0.42969-0.96094-0.96094-0.96094h-43.859c-0.019531 0-0.042968-0.007812-0.0625-0.007812-0.023437 0-0.042968 0.003906-0.0625 0.007812h-43.863c-0.53125 0-0.96094 0.42969-0.96094 0.96094v55.133c0 0.53125 0.42969 0.96484 0.96094 0.96484h43.879c0.015625 0 0.03125 0.003906 0.046875 0.003906s0.03125-0.003906 0.046875-0.003906h43.875c0.53125 0 0.96094-0.43359 0.96094-0.96484v-8.7734-0.011719-0.011718zm-1.9258-0.97656c-9.3789-0.50391-16.855-8.293-16.855-17.797s7.4766-17.289 16.855-17.793zm-43.922-6.3828c-5.8711-0.48828-10.496-5.4219-10.496-11.414s4.6289-10.926 10.496-11.414zm1.9258-22.828c5.8711 0.48828 10.496 5.4219 10.496 11.414s-4.6289 10.926-10.496 11.414zm-43.926-6.3789c9.3789 0.5 16.855 8.2891 16.855 17.793s-7.4766 17.293-16.855 17.793zm0 37.512c10.441-0.50391 18.781-9.1523 18.781-19.719 0-10.562-8.3398-19.219-18.781-19.719v-6.8867h42v13.262c-6.9336 0.49609-12.422 6.2891-12.422 13.344s5.4883 12.848 12.422 13.344v13.262h-42zm43.926 6.8867v-13.262c6.9336-0.49609 12.422-6.2891 12.422-13.344s-5.4883-12.848-12.422-13.344v-13.262h41.996v6.8867c-10.441 0.50391-18.777 9.1562-18.777 19.719s8.3398 19.219 18.777 19.723v6.8867z"/>
</svg>
