<?xml version="1.0" encoding="UTF-8"?>
<svg fill="#2E75B6" width="100pt" height="100pt" version="1.1" viewBox="0 0 100 100" xmlns="http://www.w3.org/2000/svg">
 <path d="m81.699 41.699c0-17.5-14.199-31.699-31.699-31.699s-31.699 14.199-31.699 31.699v16.602c0 17.5 14.199 31.699 31.699 31.699s31.699-14.199 31.699-31.699zm-31.699-29.699c16.398 0 29.699 13.301 29.699 29.699v9.6016h-2.5v-9.3008c0-15-12.199-27.199-27.199-27.199s-27.199 12.199-27.199 27.199v2.6992h-2.5v-2.8984c0-16.5 13.301-29.801 29.699-29.801zm-25.199 38.199h2.1992v6.5c0 12.699 10.301 23 23 23s23-10.301 23-23v-3.3984h2.1992v4.6992c0 13.898-11.301 25.199-25.199 25.199s-25.199-11.301-25.199-25.199zm46.199 1.1016h-2.3984v-6.6992c0-10.203-8.4023-18.602-18.602-18.602s-18.602 8.3008-18.602 18.602v6.6992h-2.3984v-8.1016c0-11.602 9.3984-21 21-21s21 9.3984 21 21zm-42 2h2.3984v2.1016c0 10.297 8.4023 18.598 18.602 18.598s18.602-8.3008 18.602-18.602v-2.1016l2.3984 0.003906v3.3984c0 11.602-9.3984 21-21 21s-21-9.3984-21-21zm37.602 2.0977c0 9.2031-7.5 16.602-16.602 16.602s-16.602-7.3984-16.602-16.602v-10.797c0-9.1016 7.5-16.602 16.602-16.602s16.602 7.3984 16.602 16.602zm6.3984-4.0977v-8.1016c0-12.699-10.301-23-23-23s-23 10.301-23 23v5h-2.1992v-6.1992c0-13.898 11.301-25.199 25.199-25.199s25.199 11.301 25.199 25.199v9.3984h-2.1992zm-23 36.699c-16.398 0-29.699-13.301-29.699-29.699v-11.602h2.5v11.301c0 15 12.199 27.199 27.199 27.199s27.199-12.199 27.199-27.199v-4.6992h2.5v4.8984c0 16.5-13.301 29.801-29.699 29.801z"/>
</svg>
