<?xml version="1.0" encoding="UTF-8"?>
<svg fill="#2E75B6" width="100pt" height="100pt" version="1.1" viewBox="0 0 100 100" xmlns="http://www.w3.org/2000/svg">
 <path d="m96.266 28.859h-2.3281c-0.27734 0-0.5 0.22266-0.5 0.5v8.7812h-45.762c-0.035156-0.019531-0.070312-0.046875-0.11328-0.046875h-22.031c-0.042969 0-0.078125 0.027344-0.11328 0.046875h-1.2617l1.6016-0.80469c0.16797-0.085938 0.27734-0.25781 0.27344-0.44922 0-0.1875-0.10547-0.36328-0.27734-0.44531l-3.4844-1.7344c-0.070312-0.035156-0.14453-0.054687-0.22266-0.054687l-10.422 0.003906c-0.078125 0-0.15234 0.019531-0.22266 0.054688l-3.4844 1.7344c-0.17188 0.085938-0.27734 0.25781-0.27734 0.44531s0.10547 0.36328 0.27344 0.44922l1.6016 0.80469-3.2031-0.003906v-8.7812c0-0.27734-0.22266-0.5-0.5-0.5h-2.2969c-0.27734 0-0.5 0.22266-0.5 0.5v41.734c0 0.27734 0.22266 0.5 0.5 0.5h2.2969c0.27734 0 0.5-0.22266 0.5-0.5v-22.672h87.125v22.672c0 0.27734 0.22266 0.5 0.5 0.5h2.3281c0.27734 0 0.5-0.22266 0.5-0.5v-41.734c0-0.27734-0.22266-0.5-0.5-0.5zm-90.703 9.7812v32.203h-1.7969v-41.234h1.7969zm6.1211-3.2344h10.305l2.4805 1.2344h-15.266zm-2.4883 1.7344h15.281l-2.4883 1.25h-10.301zm84.492 10.531h-87.625v-8.7812h87.625zm2.3281 23.172h-1.8281v-41.234h1.8281z"/>
</svg>
