<?xml version="1.0" encoding="UTF-8"?>
<svg fill="#2E75B6" width="100pt" height="100pt" version="1.1" viewBox="0 0 100 100" xmlns="http://www.w3.org/2000/svg">
 <g>
  <path d="m78.125 39.844h-56.25c-0.42969 0-0.78125 0.35156-0.78125 0.78125v21.875c0 0.42969 0.35156 0.78125 0.78125 0.78125h56.25c0.42969 0 0.78125-0.35156 0.78125-0.78125v-21.875c0-0.42969-0.35156-0.78125-0.78125-0.78125zm-55.469 1.5625h54.688v17.188h-24.219c-0.42969 0-0.78125 0.35156-0.78125 0.78125v2.3438h-7.8125v-2.3438c0-0.42969-0.35156-0.78125-0.78125-0.78125h-12.5c-0.42969 0-0.78125 0.35156-0.78125 0.78125v2.3438h-7.8125zm20.312 20.312h-10.938v-1.5625h10.938zm10.938 0v-1.5625h23.438v1.5625z"/>
  <path d="m87.5 30.469h-2.3438v-2.3438c0-0.42969-0.35156-0.78125-0.78125-0.78125h-31.25c-0.42969 0-0.78125 0.35156-0.78125 0.78125v2.3438h-7.8125v-2.3438c0-0.42969-0.35156-0.78125-0.78125-0.78125h-12.5c-0.42969 0-0.78125 0.35156-0.78125 0.78125v2.3438h-7.8125v-14.844c0-0.42969-0.35156-0.78125-0.78125-0.78125h-9.375c-0.42969 0-0.78125 0.35156-0.78125 0.78125v68.75c0 0.42969 0.35156 0.78125 0.78125 0.78125h9.375c0.42969 0 0.78125-0.35156 0.78125-0.78125v-11.719h54.688v11.719c0 0.42969 0.35156 0.78125 0.78125 0.78125h9.375c0.42969 0 0.78125-0.35156 0.78125-0.78125v-53.125c0-0.42969-0.35156-0.78125-0.78125-0.78125zm-33.594-1.5625h29.688v1.5625h-29.688zm-21.875 0h10.938v1.5625h-10.938zm54.688 54.688h-7.8125v-11.719c0-0.42969-0.35156-0.78125-0.78125-0.78125h-56.25c-0.42969 0-0.78125 0.35156-0.78125 0.78125v11.719h-7.8125v-67.188h7.8125v14.844c0 0.42969 0.35156 0.78125 0.78125 0.78125h64.844z"/>
 </g>
</svg>
