<svg xmlns="http://www.w3.org/2000/svg" data-name="Layer 1" viewBox="0 0 100 100" x="0px" y="0px"><title>72 all</title><path d="M7.23,69.59A22.53,22.53,0,0,0,39.77,89.79,22.47,22.47,0,0,0,60,89.67,22.54,22.54,0,1,0,75.81,47.75L87.69,9.16a1,1,0,0,0-1-1.29H13.27a1,1,0,0,0-1,1.29l11.88,38.6A22.58,22.58,0,0,0,7.23,69.59Zm22,0A20.54,20.54,0,1,1,49.77,90.13,20.56,20.56,0,0,1,29.23,69.59Zm15-21.84a22.36,22.36,0,0,0-4.42,1.65,22.44,22.44,0,0,0-4.42-1.64l4.42-14.37ZM60,32.64l4.65,15.12A22.43,22.43,0,0,0,60,49.52a22.37,22.37,0,0,0-4.64-1.76Zm30.77,37A20.53,20.53,0,0,1,62.09,88.45a22.51,22.51,0,0,0,0-37.72A20.53,20.53,0,0,1,90.77,69.59ZM73.84,47.35a22.11,22.11,0,0,0-7.22,0L61.19,29.7a1,1,0,0,0-.18-.33l6-19.5H85.38ZM34.72,9.86h30.2L53.38,47.35a22.4,22.4,0,0,0-7.23,0L34.62,9.86Zm-20.1,0H32.53L38.72,30,33.38,47.36a22.11,22.11,0,0,0-7.22,0ZM29.77,49.05a20.63,20.63,0,0,1,7.85,1.57,22.51,22.51,0,0,0,0,37.95,20.54,20.54,0,1,1-7.85-39.51Z"></path></svg>