<?xml version="1.0" encoding="UTF-8"?>
<svg fill="#1871B9" width="100pt" height="100pt" version="1.1" viewBox="0 0 100 100" xmlns="http://www.w3.org/2000/svg">
 <g>
  <path d="m50 45.703c-10.957 0-19.871 8.918-19.871 19.875s8.9141 19.871 19.871 19.871 19.875-8.9141 19.875-19.871c-0.003906-10.957-8.918-19.875-19.875-19.875zm0 38.199c-10.102 0-18.324-8.2188-18.324-18.32 0-10.105 8.2188-18.324 18.324-18.324s18.324 8.2188 18.324 18.324c0 10.102-8.2227 18.32-18.324 18.32z"/>
  <path d="m40.227 39.211h-0.125v0.17578l-0.98047 1.3711h23.754l18.469-26.215h-23.621v0.17969zm31.113-23.117h7.0156l-16.285 23.117h-19.938l16.512-23.117z"/>
  <path d="m46.793 21.543v-0.51562l-4.6406-6.4805h-23.496l16.441 23.344zm-5.4375-5.4492l3.7188 5.1875-9.9648 13.926-13.465-19.113z"/>
  <path d="m50 52.254l-4.0703 8.25-9.1055 1.3242 6.5898 6.4219-1.5547 9.0664 8.1406-4.2812 8.1406 4.2812-1.5547-9.0664 6.5898-6.4219-9.1055-1.3242zm4.9219 15.453l1.1641 6.7734-6.0859-3.1992-6.082 3.1953 1.1641-6.7734-4.9219-4.7969 6.8008-0.98828 3.0391-6.1641 3.0391 6.1641 6.8008 0.98828z"/>
 </g>
</svg>
