<?xml version="1.0" encoding="UTF-8"?>
<svg fill="#2E75B6" width="100pt" height="100pt" version="1.1" viewBox="0 0 100 100" xmlns="http://www.w3.org/2000/svg">
 <g>
  <path d="m89.617 1.3867c-0.19531-0.70312-0.8125-1.2383-1.5781-1.2383h-76.082c-0.76562 0-1.3867 0.53516-1.582 1.2383-0.98828 0.875-1.6367 2.1172-1.6367 3.5352v10.871c0 0.91406 0.60938 2.1016 8.9609 16.426 5.1953 8.9102 11.668 19.992 15.801 27.828 0.046875 0.085937 0.13281 0.12891 0.19141 0.20312-3.9727 4.207-6.4258 9.8672-6.4258 16.098 0 12.957 10.543 23.504 23.504 23.504 12.953 0 23.5-10.543 23.5-23.504 0-6.7148-2.8477-12.766-7.3789-17.055 4.1289-7.7422 10.309-18.34 15.32-26.945 8.4258-14.445 9.043-15.645 9.043-16.559v-10.863c0.003906-1.4258-0.64453-2.6641-1.6367-3.5391zm-38.84 51.461c-2.1992 0-4.3242 0.32422-6.3477 0.89453-0.86719-2.1211-4.8164-9.8516-22.668-40.938h56.473c-16.961 29.543-21.375 37.992-22.512 40.574-1.5977-0.34375-3.2461-0.53125-4.9453-0.53125zm29.375-43.387h-60.305c-1.0977-1.8984-2.25-3.9023-3.4492-5.9727h67.195c-1.1914 2.0703-2.3438 4.0742-3.4414 5.9727zm-59.57 21.078c-4.0273-6.918-8.1992-14.066-8.5078-14.746v-10.867c0-0.49219 0.24609-0.92578 0.62109-1.1836 11.355 19.676 27.93 48.785 28.645 50.867 0 0.074219 0.035156 0.13672 0.042968 0.20703-1.8828 0.82422-3.6289 1.8867-5.2148 3.1523-4.1719-7.8594-10.48-18.684-15.586-27.43zm50.355 45.809c0 11.121-9.0469 20.168-20.164 20.168-11.121 0-20.168-9.0469-20.168-20.168s9.0469-20.168 20.168-20.168c11.117 0 20.164 9.0469 20.164 20.168zm8.4023-45.676c-4.9023 8.4141-10.918 18.727-15.066 26.465-1.6523-1.168-3.4648-2.1133-5.3906-2.8242 2.2344-4.8398 17.664-31.93 28.422-50.574 0.37891 0.26172 0.62109 0.69141 0.62109 1.1836l0.054688 10.5c-0.36328 1.0547-4.5664 8.2734-8.6406 15.25z"/>
  <path d="m63.738 71.293l-7.918-1.1484-3.5469-7.1797c-0.5625-1.1367-2.4258-1.1367-2.9883 0l-3.5469 7.1797-7.918 1.1484c-0.625 0.085937-1.1445 0.52734-1.3477 1.1289-0.19531 0.60938-0.035156 1.2656 0.42578 1.707l5.7344 5.5898-1.3555 7.8867c-0.10547 0.62109 0.14844 1.2578 0.66406 1.6289s1.1992 0.42188 1.7539 0.12891l7.0859-3.7266 7.0859 3.7266c0.24219 0.125 0.50781 0.19141 0.77344 0.19141 0.34766 0 0.6875-0.10938 0.98047-0.32031 0.51172-0.37109 0.76953-1.0039 0.66406-1.6289l-1.3555-7.8867 5.7305-5.5898c0.45312-0.44141 0.61719-1.1055 0.42578-1.707-0.20313-0.60156-0.72266-1.0391-1.3477-1.1289zm-7.7578 6.6562c-0.39062 0.38281-0.57031 0.93359-0.48047 1.4766l0.93359 5.4219-4.875-2.5586c-0.24219-0.125-0.50781-0.19141-0.77344-0.19141s-0.53516 0.066406-0.77344 0.19141l-4.875 2.5586 0.93359-5.4219c0.085938-0.54297-0.085937-1.0898-0.48047-1.4766l-3.9414-3.8477 5.4492-0.79297c0.54297-0.078125 1.0117-0.42188 1.2539-0.91406l2.4375-4.9375 2.4375 4.9375c0.24219 0.49219 0.71094 0.83203 1.2539 0.91406l5.4453 0.79297z"/>
 </g>
</svg>
