<svg xmlns="http://www.w3.org/2000/svg" xmlns:xlink="http://www.w3.org/1999/xlink" version="1.1" x="0px" y="0px" viewBox="206 206 100 100" enable-background="new 206 206 100 100" xml:space="preserve"><g><path fill="#000000" d="M255.999,251.705c-10.958,0-19.873,8.917-19.873,19.875c0,10.957,8.915,19.872,19.873,19.872   c10.958,0,19.875-8.915,19.875-19.872C275.873,260.622,266.957,251.705,255.999,251.705z M255.999,289.903   c-10.103,0-18.323-8.22-18.323-18.322c0-10.104,8.22-18.325,18.323-18.325c10.104,0,18.325,8.22,18.325,18.325   C274.323,281.683,266.103,289.903,255.999,289.903z"></path><path fill="#000000" d="M246.227,245.211H246.1v0.177l-0.98,1.373h0.98h13.864h4.865h4.047l18.469-26.216h-10.004h-13.493h-0.126   v0.178L246.227,245.211z M277.341,222.095h7.016l-16.285,23.116h-3.242h-4.865h-11.832l16.513-23.116H277.341z"></path><path fill="#000000" d="M252.793,227.543v-0.516l-4.642-6.481h-23.496l16.442,23.342L252.793,227.543z M247.354,222.095   l3.717,5.189l-9.964,13.925l-13.464-19.114H247.354z"></path><path fill="#000000" d="M256,258.255l-4.07,8.249l-9.104,1.323l6.588,6.42l-1.556,9.066l8.142-4.28l8.142,4.28l-1.556-9.066   l6.588-6.42l-9.104-1.323L256,258.255z M260.92,273.706l1.163,6.773L256,277.282l-6.083,3.197l1.163-6.773l-4.922-4.797   l6.802-0.988l3.041-6.163l3.041,6.163l6.802,0.988L260.92,273.706z"></path></g></svg>