<svg xmlns="http://www.w3.org/2000/svg" xmlns:xlink="http://www.w3.org/1999/xlink" version="1.1" x="0px" y="0px" viewBox="0 0 100.354 100.352" style="enable-background:new 0 0 100.354 100.352;" xml:space="preserve"><g><path d="M69.438,45.978c-1.444-1.444-3.021-2.704-4.698-3.783L73.41,7.473c0.112-0.448,0.012-0.922-0.272-1.287   c-0.285-0.364-0.721-0.577-1.183-0.577H27.277c-0.462,0-0.898,0.213-1.182,0.577s-0.385,0.838-0.273,1.287l8.673,34.745   c-7.758,4.991-12.911,13.692-12.911,23.58c0,15.459,12.578,28.035,28.037,28.035c15.453,0,28.024-12.576,28.024-28.035   C77.645,58.31,74.729,51.271,69.438,45.978z M29.197,8.61h40.837l-8.003,32.05c-3.811-1.886-8.031-2.889-12.409-2.889   c0,0-0.001,0-0.002,0c-4.457,0-8.672,1.05-12.418,2.908L29.197,8.61z M49.62,90.833c-13.806,0-25.037-11.23-25.037-25.035   c0-13.8,11.231-25.027,25.037-25.027c0.001,0,0.001,0,0.002,0c4.454,0,8.728,1.162,12.483,3.331   c0.097,0.074,0.206,0.133,0.321,0.182c1.76,1.052,3.402,2.328,4.888,3.815c4.727,4.726,7.329,11.012,7.329,17.699   C74.645,79.603,63.419,90.833,49.62,90.833z"></path><path d="M63.956,59.135l-8.376-1.216l-3.744-7.591c-0.423-0.852-1.273-1.38-2.221-1.38c-0.003,0-0.005,0-0.008,0   c-0.948,0.003-1.795,0.535-2.213,1.388l-3.743,7.583l-8.37,1.215c-0.943,0.135-1.711,0.779-2.005,1.685   c-0.294,0.904-0.052,1.878,0.627,2.536l6.06,5.912l-1.436,8.375c-0.159,0.927,0.211,1.851,0.968,2.41   c0.437,0.323,0.951,0.488,1.471,0.488c0.38,0,0.764-0.089,1.121-0.269l7.704-3.903l7.308,3.843c0.84,0.446,1.841,0.377,2.612-0.181   s1.151-1.487,0.991-2.427l-1.432-8.338l6.06-5.912c0.681-0.663,0.92-1.637,0.625-2.54C65.659,59.912,64.892,59.268,63.956,59.135z    M56.61,67.67c-0.353,0.345-0.514,0.841-0.431,1.327l1.386,8.071l-7.064-3.715c-0.43-0.228-0.943-0.23-1.376-0.011l-7.466,3.783   l1.394-8.128c0.083-0.486-0.078-0.983-0.431-1.327l-5.862-5.719l8.103-1.177c0.489-0.071,0.911-0.378,1.13-0.82l3.625-7.344   l3.622,7.343c0.219,0.442,0.642,0.749,1.13,0.82l8.104,1.177L56.61,67.67z"></path></g></svg>