<svg xmlns="http://www.w3.org/2000/svg" xmlns:xlink="http://www.w3.org/1999/xlink" version="1.1" x="0px" y="0px" viewBox="0 0 100 100" enable-background="new 0 0 100 100" xml:space="preserve"><g><path d="M84.638,22.76c-2.704,1.082-2.671,2.765-0.61,5.6C83.588,26.308,83.556,24.625,84.638,22.76z"></path><path d="M77.637,59.883c4.977-5.771,7.882-12.856,8.128-20.155c0.061-1.827-0.055-3.605-0.375-5.367   c-0.32-1.762-0.844-3.503-1.597-5.258c-0.663-1.547-1.517-3.131-2.501-4.597c-0.744-1.105-1.564-2.145-2.434-3.055   c-0.67-2.625-2.465-2.3-4.349-3.297c1.177,1.475,2.209,3.556,4.005,3.725c0.383,0.404,0.756,0.834,1.118,1.283   c-1.195-0.824-2.353-0.565-3.47,0.778c1.569-0.335,3.039-0.174,4.414,0.484c0.089,0.128,0.177,0.257,0.265,0.387   c0.43,0.64,0.833,1.302,1.207,1.972c-1.329-1.161-2.743-1.01-4.241,0.455c1.828-0.2,3.494,0.136,4.999,1.008   c0.172,0.357,0.335,0.714,0.487,1.07c0.284,0.663,0.535,1.324,0.754,1.985c-1.11-1.886-2.648-2.095-4.779-0.815   c2.163,0.264,3.822,0.976,5.253,2.437c0.128,0.508,0.239,1.019,0.332,1.528c0.133,0.729,0.229,1.461,0.292,2.2   c-0.702-2.625-2.431-3.424-5.401-2.602c2.546,1.042,4.255,2.524,5.49,4.801c-0.001,0.282-0.006,0.566-0.015,0.851   c-0.031,0.924-0.107,1.846-0.224,2.762c-0.183-2.786-1.903-4.154-5.27-4.205c2.544,2.006,4.029,4.393,4.691,7.38   c-0.47,1.978-1.138,3.916-1.99,5.786c1.016-4.233-0.559-6.3-4.777-6.723c2.454,2.29,3.849,4.686,4.253,7.819   c-0.742,1.481-1.601,2.917-2.571,4.294c2.032-4.039,0.989-6.356-3.394-7.923c2.084,3.177,2.738,5.874,2.31,9.38   c-0.331,0.421-0.674,0.838-1.026,1.247c-0.782,0.907-1.618,1.781-2.502,2.619c2.938-3.655,2.38-6.497-1.761-9.19   c1.409,3.86,1.385,7.116,0.049,10.712c-1.206,1.006-2.49,1.946-3.846,2.812c2.625-2.702,2.436-5.771-0.573-9.207   c0.314,4.198-0.645,7.921-2.875,11.165c-1.349,0.676-2.757,1.285-4.219,1.817c3.834-2.312,4.405-5.57,1.714-9.773   c-0.325,4.264-1.881,7.839-4.668,10.724l-0.177,0.05c-2.871,0.792-5.819,1.973-8.362,3.679c-2.544-1.706-5.491-2.887-8.362-3.679   l-0.177-0.05c-2.787-2.885-4.343-6.46-4.668-10.724c-2.692,4.203-2.12,7.46,1.714,9.773c-1.462-0.532-2.87-1.141-4.219-1.817   c-2.23-3.244-3.189-6.967-2.875-11.165c-3.009,3.436-3.198,6.506-0.573,9.207c-1.356-0.866-2.64-1.806-3.846-2.812   c-1.336-3.596-1.36-6.852,0.049-10.712c-4.141,2.693-4.7,5.535-1.761,9.19c-0.884-0.838-1.72-1.712-2.502-2.619   c-0.352-0.409-0.695-0.826-1.026-1.247c-0.428-3.506,0.225-6.203,2.31-9.38c-4.383,1.567-5.426,3.884-3.394,7.923   c-0.969-1.377-1.829-2.813-2.571-4.294c0.404-3.133,1.799-5.529,4.253-7.819c-4.218,0.423-5.792,2.491-4.777,6.723   c-0.852-1.87-1.52-3.809-1.99-5.786c0.661-2.987,2.147-5.374,4.691-7.38c-3.367,0.051-5.086,1.42-5.27,4.205   c-0.118-0.915-0.193-1.837-0.224-2.762c-0.009-0.285-0.014-0.569-0.015-0.851c1.235-2.277,2.944-3.759,5.49-4.801   c-2.97-0.822-4.699-0.023-5.401,2.602c0.063-0.739,0.159-1.471,0.292-2.2c0.092-0.509,0.203-1.02,0.332-1.528   c1.431-1.461,3.09-2.173,5.253-2.437c-2.13-1.28-3.669-1.071-4.779,0.815c0.219-0.661,0.47-1.322,0.754-1.985   c0.152-0.356,0.315-0.713,0.487-1.07c1.505-0.872,3.171-1.208,4.999-1.008c-1.498-1.465-2.912-1.617-4.241-0.455   c0.374-0.67,0.777-1.332,1.207-1.972c0.087-0.129,0.176-0.258,0.265-0.387c1.375-0.659,2.846-0.819,4.414-0.484   c-1.117-1.343-2.275-1.602-3.47-0.778c0.362-0.449,0.735-0.879,1.118-1.283c1.795-0.169,2.828-2.25,4.005-3.725   c-1.883,0.997-3.679,0.673-4.349,3.297c-0.871,0.91-1.691,1.95-2.434,3.055c-0.984,1.466-1.838,3.05-2.501,4.597   c-0.753,1.754-1.277,3.496-1.597,5.258c-0.32,1.762-0.436,3.54-0.375,5.367c0.246,7.299,3.151,14.384,8.128,20.155   c4.705,5.455,11.264,9.736,19.177,11.909c2.583,0.71,5.312,1.966,7.683,3.676c-2.101,1.555-3.867,3.506-4.993,5.944   c0.109,0.298,0.556,0.532,1.043,0.391c1.023-2.217,2.714-4.153,4.727-5.746c2.012,1.594,3.703,3.529,4.726,5.746   c0.487,0.142,0.934-0.093,1.043-0.391c-1.126-2.438-2.892-4.389-4.993-5.944c2.371-1.71,5.1-2.966,7.683-3.676   C66.373,69.619,72.932,65.338,77.637,59.883z"></path><path d="M87.711,27.431c-3.169,0.474-3.695,1.993-2.182,5.533C85.565,30.665,86.089,29.147,87.711,27.431z"></path><path d="M85.369,46.219c1.767-2.785,3.863-4.406,7.17-5.27C88.232,39.114,86.137,40.735,85.369,46.219z"></path><path d="M86.274,39.268c0.787-2.724,2.093-4.565,4.595-6.073C86.911,32.714,85.607,34.555,86.274,39.268z"></path><path d="M81.513,19.591c-2.176,1.141-1.954,2.455,0.013,4.664C80.985,22.567,80.763,21.251,81.513,19.591z"></path><path d="M58.48,72.412c4.4,0.011,7.873,1.293,11.293,4.403C68.597,70.662,65.125,69.38,58.48,72.412z"></path><path d="M78.767,59.559c2.952-2.355,6.263-3.279,10.196-2.982C84.926,52.987,81.617,53.911,78.767,59.559z"></path><path d="M82.947,53.373c2.032-2.669,4.058-4.25,7.492-4.84C86.22,46.303,84.194,47.882,82.947,53.373z"></path><path d="M65.633,69.736c4.341-0.66,8.041,0.157,11.88,2.718C75.431,66.538,71.732,65.721,65.633,69.736z"></path><path d="M73.282,64.982c3.701-1.717,7.424-1.995,11.498-0.686C81.418,59.514,77.695,59.791,73.282,64.982z"></path><path d="M15.972,28.36c2.061-2.835,2.093-4.517-0.61-5.6C16.444,24.625,16.412,26.308,15.972,28.36z"></path><path d="M12.289,27.431c1.622,1.716,2.146,3.235,2.182,5.533C15.984,29.424,15.458,27.905,12.289,27.431z"></path><path d="M14.631,46.219c-0.768-5.483-2.863-7.105-7.17-5.27C10.768,41.812,12.864,43.434,14.631,46.219z"></path><path d="M13.726,39.268c0.668-4.713-0.637-6.555-4.595-6.073C11.633,34.703,12.939,36.544,13.726,39.268z"></path><path d="M18.487,19.591c0.749,1.66,0.528,2.976-0.013,4.664C20.441,22.046,20.664,20.732,18.487,19.591z"></path><path d="M30.227,76.815c3.42-3.11,6.893-4.393,11.293-4.403C34.875,69.38,31.403,70.662,30.227,76.815z"></path><path d="M11.037,56.577c3.933-0.297,7.244,0.627,10.196,2.982C18.383,53.911,15.074,52.987,11.037,56.577z"></path><path d="M17.053,53.373c-1.247-5.491-3.272-7.07-7.492-4.84C12.995,49.123,15.021,50.703,17.053,53.373z"></path><path d="M34.367,69.736c-6.099-4.016-9.798-3.199-11.88,2.718C26.326,69.893,30.026,69.076,34.367,69.736z"></path><path d="M15.22,64.296c4.075-1.309,7.797-1.031,11.498,0.686C22.305,59.791,18.583,59.514,15.22,64.296z"></path></g></svg>