<svg xmlns="http://www.w3.org/2000/svg" xmlns:xlink="http://www.w3.org/1999/xlink" version="1.1" x="0px" y="0px" viewBox="0 0 24 24" enable-background="new 0 0 24 24" xml:space="preserve"><g><path d="M21.508,0.333c-0.047-0.169-0.195-0.297-0.379-0.297H2.87c-0.184,0-0.333,0.128-0.38,0.297   c-0.237,0.21-0.393,0.508-0.393,0.848V3.79c0,0.219,0.146,0.504,2.151,3.942c1.247,2.138,2.8,4.798,3.792,6.679   c0.011,0.021,0.032,0.031,0.046,0.049c-0.953,1.01-1.542,2.368-1.542,3.863c0,3.11,2.53,5.641,5.641,5.641   c3.109,0,5.64-2.53,5.64-5.641c0-1.612-0.683-3.064-1.771-4.093c0.991-1.858,2.474-4.402,3.677-6.467   c2.022-3.467,2.17-3.755,2.17-3.974V1.182C21.902,0.84,21.746,0.543,21.508,0.333z M12.187,12.683   c-0.528,0-1.038,0.078-1.523,0.215c-0.208-0.509-1.156-2.364-5.44-9.825h13.553c-4.071,7.09-5.13,9.118-5.403,9.738   C12.99,12.728,12.594,12.683,12.187,12.683z M19.237,2.271H4.763C4.5,1.815,4.223,1.334,3.936,0.837h16.127   C19.777,1.334,19.5,1.815,19.237,2.271z M4.94,7.329C3.973,5.669,2.972,3.953,2.898,3.79V1.182c0-0.118,0.059-0.222,0.149-0.284   c2.725,4.722,6.703,11.708,6.875,12.208c0,0.018,0.008,0.033,0.01,0.05c-0.452,0.198-0.871,0.453-1.252,0.757   C7.679,12.026,6.165,9.428,4.94,7.329z M17.025,18.323c0,2.669-2.171,4.84-4.839,4.84c-2.669,0-4.84-2.171-4.84-4.84   s2.171-4.84,4.84-4.84C14.854,13.483,17.025,15.654,17.025,18.323z M19.042,7.361c-1.177,2.019-2.62,4.494-3.616,6.352   c-0.397-0.28-0.832-0.507-1.294-0.678c0.536-1.162,4.239-7.663,6.821-12.138c0.091,0.063,0.149,0.166,0.149,0.284l0.013,2.52   C21.028,3.954,20.019,5.687,19.042,7.361z"></path><path d="M15.297,17.11l-1.9-0.276l-0.851-1.723c-0.135-0.273-0.582-0.273-0.717,0l-0.851,1.723L9.077,17.11   c-0.15,0.021-0.275,0.127-0.323,0.271c-0.047,0.146-0.008,0.304,0.102,0.41l1.376,1.342l-0.325,1.893   c-0.025,0.149,0.036,0.302,0.159,0.391c0.124,0.089,0.288,0.101,0.421,0.031l1.701-0.894l1.701,0.894   c0.058,0.03,0.122,0.046,0.186,0.046c0.083,0,0.165-0.026,0.235-0.077c0.123-0.089,0.185-0.241,0.159-0.391l-0.325-1.893   l1.375-1.342c0.109-0.106,0.148-0.265,0.102-0.41C15.572,17.237,15.447,17.132,15.297,17.11z M13.435,18.708   c-0.094,0.092-0.137,0.224-0.115,0.354l0.224,1.301l-1.17-0.614c-0.058-0.03-0.122-0.046-0.186-0.046s-0.128,0.016-0.186,0.046   l-1.17,0.614l0.224-1.301c0.021-0.13-0.021-0.262-0.115-0.354l-0.946-0.923l1.308-0.19c0.13-0.019,0.243-0.101,0.301-0.219   l0.585-1.185l0.585,1.185c0.058,0.118,0.171,0.2,0.301,0.219l1.307,0.19L13.435,18.708z"></path></g></svg>