<?xml version="1.0" encoding="UTF-8"?>
<svg fill="#2E75B6" width="100pt" height="100pt" version="1.1" viewBox="0 0 100 100" xmlns="http://www.w3.org/2000/svg">
 <g>
  <path d="m74.125 40.809c2.6016 1.5586-0.92578 6.9414 6.0156 8.1641 1.9727-4.8633 1.4766-7.7773-5.8594-8.5117-0.98438-0.09375-0.51562 0.13281-0.15625 0.34766z"/>
  <path d="m74.539 33.973c-0.97656 0.046875-0.46875 0.19141-0.066406 0.34375 2.9023 1.0938 0.66406 6.6836 7.8672 6.7695 0.73828-4.8086-0.61328-7.4609-7.8008-7.1133z"/>
  <path d="m71.387 47.562c2.3281 1.9805-2.3555 7.1914 4.3281 9.418 3.4727-4.8438 3.1055-8.082-4.1016-9.7656-0.98438-0.23438-0.55078 0.070312-0.22656 0.34766z"/>
  <path d="m72.863 27.711c3.1953 0.60547 2.3398 6.3477 9.6641 5.2734-0.51562-4.7148-2.6133-7.043-9.6797-5.6133-0.96875 0.19141-0.42188 0.25781 0.015625 0.33984z"/>
  <path d="m61.43 70.602c5.6133-3.8516 7.207-6.918 0.96094-10.836-0.82031-0.51562-0.55469-0.082031-0.375 0.28906 1.2422 2.6172-5.2656 6.4844-0.58594 10.547z"/>
  <path d="m93.242 34.078c0.4375-0.16016 0.98047-0.32422 0.011718-0.34375-4.6992-0.10938-7.8789 1.3438-9.3672 4.4609 0.09375-1.8047 0.039062-3.6094-0.16406-5.4062 7.375-1.3359 4.9883-6.5742 7.8906-8.1992 0.39844-0.22266 0.90234-0.46094-0.074219-0.33203-4.7344 0.62109-7.5547 2.5039-8.2656 5.7266-0.25781-1.2539-0.59375-2.5-1.0078-3.7344 2.9023-4.0977-0.19922-8.0781-6.3203-9.3398-1.0352-0.21484-0.56641 0.078125-0.21094 0.34766 2.5664 1.9375-2.0195 7.25 5.3867 9.2852-0.41406-1.25-0.91016-2.4961-1.4883-3.7305-0.48828-1.043 0.30469-0.61719 0.36328-0.14453 4.6094 9.8281 4.0586 20.039-0.85156 29.738-4.9688 9.8008-14.223 18.551-26.594 24.246-0.86328 0.39844-1.7734 1.0352-2.5469 1.7773-0.77344-0.74609-1.6836-1.3828-2.5469-1.7773-12.379-5.6992-21.633-14.449-26.598-24.25-4.9141-9.6953-5.4648-19.91-0.85156-29.738 0.058594-0.47266 0.85156-0.89844 0.36328 0.14453-0.57812 1.2383-1.0742 2.4805-1.4883 3.7305 7.4062-2.0352 2.8203-7.3516 5.3867-9.2852 0.35547-0.26953 0.82422-0.5625-0.21094-0.34766-6.1211 1.2617-9.2227 5.2422-6.3203 9.3398-0.41406 1.2383-0.75 2.4805-1.0078 3.7344-0.71094-3.2227-3.5312-5.1055-8.2656-5.7266-0.97656-0.12891-0.47266 0.10938-0.074219 0.33203 2.9023 1.625 0.51562 6.8633 7.8906 8.1992-0.20312 1.7969-0.25781 3.6055-0.16406 5.4062-1.4922-3.1172-4.6719-4.5703-9.3672-4.4609-0.96875 0.019531-0.42578 0.18359 0.011719 0.34375 3.1914 1.1797 2.2188 6.7969 9.6328 6.9961 0.24219 1.7617 0.62891 3.5117 1.1406 5.2461-2.2461-3.0625-5.7812-4.1133-10.465-3.2891-0.95703 0.16797-0.37891 0.25391 0.097657 0.35547 3.4688 0.74219 3.875 6.7266 11.336 5.7852 0.48828 1.2734 1.0508 2.5312 1.6797 3.7734 0.19922 0.39453 0.40625 0.78516 0.62109 1.1758-2.8984-2.6484-6.6172-3.1875-11.059-1.7695-0.94922 0.30469-0.33594 0.31641 0.17578 0.36328 3.7227 0.34375 5.3984 6.6523 12.871 4.6914 0.92578 1.3945 1.9414 2.7617 3.0469 4.0898-3.2188-1.9961-6.7773-1.9883-10.613-0.11328-0.85937 0.42188-0.26172 0.35938 0.24219 0.34375 3.6797-0.10938 6.5703 6.0234 13.434 3.1406 1.293 1.3047 2.6719 2.5625 4.1367 3.7656-3.7031-1.5117-7.2227-0.92578-10.535 1.6211-0.75 0.57812-0.16797 0.41406 0.33203 0.32031 3.6523-0.70703 8.1445 5.2383 14.254 1.1133 1.7305 1.1953 3.5547 2.3203 5.4648 3.3711-3.8945-0.84375-7.0508 0.34766-9.4883 3.4219-0.55859 0.70313-0.046875 0.44531 0.40625 0.26172 3.2812-1.3164 9.1953 3.8516 13.879-1.2695 0.6875 0.37109 1.4414 0.89453 2.0742 1.5547-0.48828 0.5625-0.89062 1.1602-1.1289 1.7539-0.14844 0.44531-0.23438 0.91797-0.24219 1.4219 0.003906 0.027343 0.003906 0.050781 0 0.078125 0 0.17188 0.011718 0.34375 0.027343 0.52344 0.027344 0.23828 0.29688 0.39453 0.60547 0.34766 0.30859-0.046876 0.53906-0.27734 0.51562-0.51563-0.125-1.1367 0.23047-2.1094 0.80078-2.9141 0.57031 0.80859 0.92188 1.7812 0.80078 2.9141-0.023438 0.23828 0.20312 0.46875 0.51562 0.51563 0.30859 0.046874 0.58203-0.10938 0.60547-0.34766 0.019531-0.17578 0.027344-0.35156 0.027344-0.52344-0.003906-0.027344-0.003906-0.054688 0-0.078125-0.007813-0.50391-0.09375-0.97656-0.24219-1.4219-0.24219-0.59375-0.64063-1.1914-1.1289-1.7539 0.63281-0.66016 1.3906-1.1797 2.0742-1.5547 4.6875 5.1211 10.598-0.050781 13.879 1.2695 0.44922 0.17969 0.96094 0.4375 0.40625-0.26172-2.4336-3.0742-5.5898-4.2656-9.4883-3.4219 1.9102-1.0508 3.7344-2.1758 5.4648-3.3711 6.1094 4.125 10.602-1.8203 14.254-1.1133 0.5 0.09375 1.082 0.25781 0.33203-0.32031-3.3125-2.5469-6.832-3.1367-10.535-1.6211 1.4648-1.2031 2.8438-2.4648 4.1367-3.7656 6.8633 2.8828 9.7539-3.25 13.434-3.1406 0.50391 0.015625 1.1055 0.078125 0.24219-0.34375-3.8359-1.8711-7.3945-1.8828-10.613 0.11328 1.1016-1.3281 2.1211-2.6953 3.0469-4.0898 7.4727 1.9609 9.1484-4.3516 12.871-4.6914 0.50781-0.046876 1.1211-0.0625 0.17578-0.36328-4.4375-1.418-8.1602-0.875-11.059 1.7695 0.21484-0.39063 0.42188-0.78516 0.62109-1.1758 0.62891-1.2422 1.1914-2.5039 1.6797-3.7734 7.4648 0.94141 7.8672-5.043 11.336-5.7852 0.47266-0.10156 1.0547-0.18359 0.097656-0.35547-4.6836-0.82422-8.2188 0.22656-10.465 3.2891 0.51562-1.7344 0.89844-3.4883 1.1406-5.2461 7.4141-0.19922 6.4375-5.8125 9.6289-6.9922z"/>
  <path d="m69.461 64.109c4.5625-4.3555 5.0664-7.5312-1.7578-10.168-0.91406-0.35547-0.55469 0.003906-0.29297 0.32422 1.8359 2.2383-3.5469 6.793 2.0508 9.8438z"/>
  <path d="m51.547 76.156c0.17969-0.09375 0.35156-0.17969 0.51562-0.25391 6.2422-2.875 7.8945-5.832 3.3555-10.457-0.64062-0.65625-0.50391-0.17969-0.4375 0.22656 0.46484 2.832-6.8477 5.6055-3.4336 10.484z"/>
  <path d="m25.875 40.809c0.35938-0.21484 0.82812-0.44531-0.15234-0.34375-7.3359 0.73047-7.8359 3.6484-5.8594 8.5117 6.9375-1.2266 3.4102-6.6055 6.0117-8.168z"/>
  <path d="m25.527 34.316c0.40234-0.15234 0.91016-0.29688-0.066406-0.34375-7.1875-0.34766-8.5391 2.3047-7.8047 7.1133 7.207-0.089844 4.9688-5.6758 7.8711-6.7695z"/>
  <path d="m24.281 56.98c6.6836-2.2266 2-7.4375 4.3281-9.418 0.32422-0.27344 0.76172-0.57812-0.23047-0.34766-7.2031 1.6836-7.5664 4.9219-4.0977 9.7656z"/>
  <path d="m17.473 32.98c7.3242 1.0742 6.4688-4.668 9.6641-5.2734 0.4375-0.082031 0.98438-0.14453 0.015625-0.33984-7.0664-1.4258-9.1641 0.90234-9.6797 5.6133z"/>
  <path d="m38.57 70.602c4.6797-4.0625-1.8281-7.9297-0.58594-10.547 0.17578-0.375 0.44531-0.80469-0.375-0.28906-6.2461 3.918-4.6484 6.9844 0.96094 10.836z"/>
  <path d="m30.539 64.109c5.5977-3.0508 0.21484-7.6055 2.0508-9.8477 0.26172-0.31641 0.62109-0.67578-0.29297-0.32422-6.8242 2.6406-6.3203 5.8203-1.7578 10.172z"/>
  <path d="m47.938 75.898c0.16406 0.078124 0.33594 0.16016 0.51562 0.25391 3.4102-4.8789-3.9023-7.6523-3.4336-10.488 0.066407-0.40234 0.20312-0.88281-0.4375-0.22656-4.5391 4.6289-2.8867 7.5898 3.3555 10.461z"/>
 </g>
</svg>
