<?xml version="1.0" encoding="UTF-8"?>
<svg fill="#2E75B6" width="100pt" height="100pt" version="1.1" viewBox="0 0 100 100" xmlns="http://www.w3.org/2000/svg">
 <path d="m7.2305 69.59c-0.007813 7.7969 4.0234 15.043 10.648 19.156 6.625 4.1133 14.906 4.5078 21.891 1.043 6.3828 3.1719 13.887 3.125 20.23-0.11719 5.7109 2.9141 12.395 3.2539 18.375 0.94141 5.9844-2.3164 10.695-7.0664 12.957-13.066s1.8633-12.684-1.0977-18.371c-2.9648-5.6875-8.2109-9.8398-14.426-11.426l11.883-38.59c0.09375-0.30859 0.03125-0.64844-0.16797-0.90234-0.19922-0.25781-0.50781-0.40234-0.83203-0.38672h-73.422c-0.32422-0.015625-0.63281 0.12891-0.83203 0.38672-0.19922 0.25391-0.26172 0.59375-0.16797 0.90234l11.879 38.602c-4.8359 1.25-9.125 4.0742-12.184 8.0234-3.0625 3.9531-4.7266 8.8047-4.7344 13.805zm22 0c0-5.4492 2.1641-10.672 6.0156-14.523 3.8516-3.8516 9.0781-6.0156 14.523-6.0156 5.4492 0 10.672 2.1641 14.523 6.0156 3.8516 3.8516 6.0156 9.0742 6.0156 14.523 0 5.4492-2.1641 10.672-6.0156 14.523-3.8516 3.8516-9.0742 6.0156-14.523 6.0156-5.4453-0.003906-10.668-2.1719-14.52-6.0195-3.8477-3.8516-6.0156-9.0742-6.0195-14.52zm15-21.84c-1.5273 0.39453-3.0078 0.94531-4.4219 1.6484-1.4102-0.69922-2.8906-1.25-4.418-1.6367l4.4219-14.371zm15.77-15.109l4.6484 15.121c-1.6094 0.41016-3.168 1-4.6484 1.7578-1.4766-0.75781-3.0312-1.3477-4.6406-1.7578zm30.77 37c-0.011719 6.9062-3.4961 13.344-9.2695 17.133-5.7773 3.7891-13.07 4.418-19.41 1.6758 6.375-4.1523 10.223-11.25 10.223-18.859s-3.8477-14.707-10.223-18.859c6.3477-2.7461 13.652-2.1094 19.43 1.6875 5.7773 3.8008 9.2578 10.258 9.25 17.172zm-16.93-22.289c-2.3906-0.39844-4.8281-0.39844-7.2188 0l-5.4297-17.652c-0.039062-0.12109-0.10156-0.23047-0.17969-0.32812l6-19.5h18.367zm-39.121-37.492h30.199l-11.539 37.492c-2.3945-0.39453-4.8359-0.39453-7.2305 0l-11.527-37.492zm-20.102 0h17.914l6.1875 20.141-5.3398 17.359c-2.3906-0.39453-4.8281-0.39453-7.2188 0zm15.152 39.191c2.6953 0.003907 5.3633 0.53906 7.8516 1.5703-6.4805 4.1328-10.402 11.289-10.402 18.973 0 7.6875 3.9219 14.84 10.402 18.977-5.6836 2.3594-12.125 2.0469-17.555-0.85156-5.4258-2.8984-9.2695-8.082-10.469-14.117-1.1992-6.0352 0.37109-12.289 4.2773-17.043 3.9102-4.7539 9.7422-7.5078 15.895-7.5z"/>
</svg>
