<?xml version="1.0" encoding="UTF-8"?>
<svg fill="#2E75B6" width="100pt" height="100pt" version="1.1" viewBox="0 0 100 100" xmlns="http://www.w3.org/2000/svg">
 <g>
  <path d="m69.191 45.816c-1.4375-1.4375-3.0117-2.6953-4.6797-3.7695l8.6406-34.598c0.11328-0.44531 0.011718-0.91797-0.26953-1.2812-0.28516-0.36328-0.71875-0.57422-1.1797-0.57422l-44.523-0.003906c-0.46094 0-0.89453 0.21094-1.1797 0.57422-0.28125 0.36328-0.38281 0.83594-0.27344 1.2812l8.6406 34.621c-7.7305 4.9727-12.867 13.645-12.867 23.496 0 15.406 12.535 27.938 27.938 27.938 15.398 0 27.926-12.531 27.926-27.938 0.007813-7.457-2.8984-14.473-8.1719-19.746zm-40.098-37.234h40.691l-7.9766 31.938c-3.7969-1.8789-8.0039-2.8789-12.363-2.8789h-0.003906c-4.4414 0-8.6406 1.0469-12.375 2.8984zm20.352 81.93c-13.758 0-24.949-11.191-24.949-24.945 0-13.75 11.191-24.938 24.949-24.938h0.003907c4.4375 0 8.6953 1.1562 12.438 3.3203 0.097656 0.074219 0.20703 0.13281 0.32031 0.17969 1.7539 1.0469 3.3906 2.3203 4.8711 3.8008 4.7109 4.7109 7.3047 10.973 7.3047 17.637 0 13.758-11.188 24.945-24.938 24.945z"/>
  <path d="m63.73 58.926-8.3477-1.2109-3.7305-7.5625c-0.42188-0.84766-1.2695-1.375-2.2148-1.375h-0.007812c-0.94531 0.003906-1.7891 0.53125-2.207 1.3828l-3.7305 7.5547-8.3398 1.2109c-0.94141 0.13281-1.7031 0.77734-1.9961 1.6797-0.29297 0.90234-0.050781 1.8711 0.625 2.5273l6.0391 5.8906-1.4297 8.3438c-0.16016 0.92187 0.21094 1.8438 0.96484 2.4023 0.43359 0.32031 0.94922 0.48438 1.4648 0.48438 0.37891 0 0.76172-0.089844 1.1172-0.26953l7.6758-3.8906 7.2812 3.8281c0.83594 0.44531 1.8359 0.375 2.6016-0.17969 0.76953-0.55469 1.1484-1.4805 0.98828-2.418l-1.4258-8.3086 6.0391-5.8906c0.67969-0.66016 0.91797-1.6328 0.62109-2.5312-0.29297-0.89062-1.0547-1.5352-1.9883-1.668zm-7.3203 8.5078c-0.35156 0.34375-0.51172 0.83984-0.42969 1.3242l1.3828 8.043-7.0391-3.7031c-0.42969-0.22656-0.94141-0.23047-1.3711-0.011718l-7.4414 3.7695 1.3906-8.0977c0.082031-0.48437-0.078125-0.98047-0.42969-1.3242l-5.8398-5.6992 8.0742-1.1719c0.48828-0.070312 0.90625-0.375 1.125-0.81641l3.6133-7.3164 3.6094 7.3164c0.21875 0.44141 0.64062 0.74609 1.125 0.81641l8.0742 1.1719z"/>
 </g>
</svg>
