<svg xmlns="http://www.w3.org/2000/svg" xmlns:xlink="http://www.w3.org/1999/xlink" version="1.1" x="0px" y="0px" viewBox="0 0 100 100" enable-background="new 0 0 100 100" xml:space="preserve"><g><path d="M74.125,40.81c2.601,1.56-0.927,6.94,6.014,8.165c1.974-4.863,1.476-7.778-5.86-8.51   C73.295,40.367,73.766,40.595,74.125,40.81z"></path><path d="M74.538,33.972c-0.977,0.046-0.468,0.193-0.066,0.344c2.902,1.093,0.663,6.682,7.868,6.77   C83.078,36.277,81.725,33.626,74.538,33.972z"></path><path d="M71.388,47.562c2.329,1.982-2.355,7.193,4.329,9.418c3.471-4.844,3.106-8.081-4.1-9.766   C70.628,46.982,71.064,47.286,71.388,47.562z"></path><path d="M72.864,27.71c3.196,0.604,2.34,6.347,9.664,5.272c-0.515-4.714-2.615-7.042-9.681-5.613   C71.879,27.564,72.425,27.627,72.864,27.71z"></path><path d="M61.429,70.6c5.612-3.85,7.207-6.917,0.961-10.837c-0.821-0.514-0.553-0.082-0.376,0.291   C63.259,62.671,56.749,66.538,61.429,70.6z"></path><path d="M93.244,34.078c0.438-0.162,0.982-0.324,0.012-0.345c-4.698-0.108-7.877,1.343-9.369,4.461   c0.093-1.804,0.04-3.61-0.165-5.408c7.376-1.335,4.99-6.573,7.891-8.198c0.397-0.223,0.904-0.46-0.074-0.333   c-4.734,0.621-7.555,2.504-8.266,5.726c-0.258-1.253-0.593-2.499-1.008-3.736c2.902-4.098-0.198-8.079-6.322-9.339   c-1.036-0.213-0.565,0.08-0.211,0.348c2.568,1.936-2.018,7.251,5.388,9.287c-0.414-1.251-0.909-2.495-1.489-3.732   c-0.489-1.044,0.305-0.616,0.364-0.144c4.611,9.827,4.06,20.041-0.853,29.737c-4.967,9.802-14.222,18.549-26.594,24.246   c-0.865,0.398-1.774,1.034-2.548,1.779c-0.775-0.745-1.684-1.381-2.548-1.779C35.08,70.953,25.824,62.205,20.858,52.403   c-4.914-9.696-5.464-19.911-0.853-29.737c0.059-0.473,0.853-0.9,0.364,0.144c-0.58,1.237-1.075,2.481-1.489,3.732   c7.406-2.035,2.82-7.35,5.388-9.287c0.354-0.269,0.824-0.561-0.211-0.348c-6.123,1.26-9.224,5.241-6.322,9.339   c-0.415,1.237-0.75,2.482-1.008,3.736c-0.711-3.222-3.531-5.105-8.266-5.726c-0.978-0.128-0.471,0.109-0.074,0.333   c2.901,1.624,0.515,6.863,7.891,8.198c-0.205,1.798-0.258,3.604-0.165,5.408c-1.492-3.118-4.671-4.569-9.369-4.461   c-0.97,0.021-0.426,0.183,0.012,0.345c3.192,1.178,2.218,6.795,9.632,6.995c0.244,1.76,0.627,3.512,1.141,5.247   c-2.245-3.064-5.78-4.113-10.463-3.289c-0.957,0.169-0.377,0.253,0.097,0.354c3.468,0.743,3.874,6.727,11.337,5.787   c0.489,1.272,1.049,2.531,1.679,3.775c0.2,0.394,0.407,0.786,0.62,1.177c-2.898-2.647-6.619-3.189-11.057-1.771   c-0.949,0.303-0.334,0.317,0.174,0.364c3.722,0.342,5.4,6.653,12.872,4.693c0.926,1.395,1.943,2.76,3.046,4.089   c-3.218-1.996-6.777-1.987-10.612-0.114c-0.861,0.421-0.261,0.361,0.243,0.344c3.68-0.11,6.571,6.025,13.433,3.142   c1.292,1.304,2.672,2.562,4.136,3.767c-3.702-1.513-7.221-0.924-10.534,1.623c-0.75,0.577-0.167,0.415,0.333,0.32   c3.651-0.706,8.143,5.24,14.252,1.114c1.73,1.194,3.555,2.32,5.466,3.37c-3.895-0.844-7.051,0.347-9.487,3.423   c-0.557,0.702-0.045,0.444,0.405,0.263c3.283-1.318,9.194,3.853,13.88-1.27c0.686,0.373,1.441,0.895,2.075,1.554   c-0.489,0.561-0.89,1.159-1.13,1.752c-0.148,0.445-0.233,0.919-0.242,1.422c0.003,0.026,0.003,0.052,0.001,0.079   c0.001,0.171,0.01,0.345,0.029,0.523c0.026,0.239,0.297,0.394,0.607,0.347c0.309-0.046,0.539-0.276,0.514-0.516   c-0.124-1.137,0.229-2.109,0.799-2.916c0.57,0.807,0.923,1.78,0.799,2.916c-0.025,0.24,0.205,0.47,0.514,0.516   c0.31,0.047,0.581-0.108,0.607-0.347c0.019-0.177,0.029-0.352,0.029-0.523c-0.003-0.027-0.003-0.053,0.001-0.079   c-0.009-0.503-0.095-0.977-0.242-1.422c-0.241-0.592-0.642-1.19-1.13-1.752c0.634-0.659,1.39-1.181,2.075-1.554   c4.686,5.123,10.597-0.049,13.88,1.27c0.45,0.181,0.961,0.439,0.405-0.263c-2.435-3.076-5.591-4.267-9.487-3.423   c1.911-1.05,3.736-2.176,5.466-3.37c6.109,4.126,10.601-1.82,14.252-1.114c0.5,0.095,1.083,0.257,0.333-0.32   c-3.313-2.547-6.831-3.136-10.534-1.623c1.464-1.205,2.844-2.464,4.136-3.767c6.863,2.883,9.753-3.251,13.433-3.142   c0.504,0.016,1.104,0.077,0.243-0.344c-3.835-1.873-7.394-1.882-10.612,0.114c1.103-1.329,2.12-2.694,3.046-4.089   c7.472,1.96,9.15-4.351,12.872-4.693c0.507-0.047,1.122-0.061,0.174-0.364c-4.438-1.418-8.159-0.876-11.057,1.771   c0.213-0.391,0.42-0.784,0.62-1.177c0.63-1.244,1.19-2.503,1.679-3.775c7.463,0.94,7.869-5.044,11.337-5.787   c0.474-0.101,1.054-0.185,0.097-0.354c-4.683-0.824-8.218,0.225-10.463,3.289c0.514-1.735,0.897-3.487,1.141-5.247   C91.026,40.873,90.052,35.256,93.244,34.078z"></path><path d="M69.461,64.111c4.564-4.354,5.068-7.531-1.757-10.169c-0.915-0.354-0.553,0.004-0.293,0.323   C69.247,56.504,63.863,61.059,69.461,64.111z"></path><path d="M51.545,76.155c0.178-0.094,0.351-0.178,0.516-0.255c6.244-2.874,7.896-5.832,3.355-10.458   c-0.641-0.655-0.505-0.178-0.437,0.226C55.446,68.503,48.133,71.279,51.545,76.155z"></path><path d="M25.875,40.81c0.359-0.215,0.83-0.444-0.154-0.345c-7.336,0.732-7.834,3.647-5.86,8.51   C26.802,47.75,23.275,42.37,25.875,40.81z"></path><path d="M25.528,34.316c0.402-0.151,0.911-0.298-0.066-0.344c-7.187-0.346-8.54,2.305-7.803,7.114   C24.865,40.998,22.625,35.409,25.528,34.316z"></path><path d="M24.282,56.98c6.684-2.225,2-7.437,4.329-9.418c0.324-0.275,0.761-0.58-0.23-0.348   C21.176,48.899,20.811,52.136,24.282,56.98z"></path><path d="M17.472,32.981c7.324,1.076,6.467-4.668,9.664-5.272c0.439-0.083,0.985-0.146,0.017-0.341   C20.087,25.94,17.988,28.268,17.472,32.981z"></path><path d="M38.571,70.6c4.68-4.062-1.83-7.929-0.586-10.546c0.177-0.374,0.445-0.806-0.376-0.291   C31.364,63.683,32.959,66.75,38.571,70.6z"></path><path d="M30.539,64.111c5.597-3.052,0.213-7.607,2.049-9.846c0.261-0.318,0.622-0.677-0.293-0.323   C25.471,56.58,25.976,59.757,30.539,64.111z"></path><path d="M47.939,75.9c0.164,0.077,0.337,0.161,0.516,0.255c3.412-4.877-3.901-7.652-3.433-10.487   c0.068-0.404,0.203-0.881-0.437-0.226C40.043,70.068,41.695,73.027,47.939,75.9z"></path></g></svg>