<?xml version="1.0" encoding="UTF-8"?>
<svg fill="#2E75B6" width="100pt" height="100pt" version="1.1" viewBox="0 0 100 100" xmlns="http://www.w3.org/2000/svg">
 <g>
  <path d="m84.637 22.762c-2.7031 1.082-2.6719 2.7656-0.60938 5.6016-0.4375-2.0547-0.47266-3.7383 0.60938-5.6016z"/>
  <path d="m77.637 59.883c4.9766-5.7695 7.8828-12.855 8.1289-20.156 0.0625-1.8281-0.054687-3.6055-0.375-5.3672s-0.84375-3.5039-1.5977-5.2578c-0.66406-1.5469-1.5156-3.1328-2.5-4.5977-0.74219-1.1055-1.5625-2.1445-2.4336-3.0547-0.67188-2.625-2.4648-2.3008-4.3477-3.2969 1.1758 1.4766 2.2109 3.5547 4.0039 3.7266 0.38281 0.40234 0.75781 0.83594 1.1172 1.2812-1.1953-0.82422-2.3516-0.56641-3.4688 0.77734 1.5703-0.33594 3.0391-0.17578 4.4141 0.48438 0.089844 0.12891 0.17578 0.25781 0.26562 0.38672 0.42969 0.64062 0.83203 1.3008 1.207 1.9727-1.3281-1.1602-2.7422-1.0117-4.2422 0.45312 1.8281-0.19922 3.4922 0.13672 5 1.0078 0.17188 0.35547 0.33594 0.71484 0.48828 1.0703 0.28516 0.66406 0.53516 1.3242 0.75391 1.9844-1.1094-1.8867-2.6484-2.0938-4.7773-0.81641 2.1641 0.26562 3.8203 0.97656 5.2539 2.4375 0.12891 0.50781 0.23828 1.0195 0.33203 1.5273 0.13281 0.73047 0.23047 1.4609 0.29297 2.1992-0.70312-2.625-2.4297-3.4258-5.4023-2.6016 2.5469 1.043 4.2539 2.5234 5.4883 4.8008 0 0.28125-0.007812 0.56641-0.015625 0.85156-0.03125 0.92578-0.10547 1.8477-0.22266 2.7617-0.18359-2.7852-1.9023-4.1523-5.2695-4.2031 2.543 2.0078 4.0273 4.3945 4.6914 7.3789-0.46875 1.9766-1.1367 3.9141-1.9883 5.7852 1.0156-4.2344-0.55859-6.3008-4.7773-6.7227 2.4531 2.2891 3.8477 4.6875 4.2539 7.8203-0.74219 1.4805-1.6016 2.918-2.5703 4.293 2.0312-4.0391 0.98828-6.3555-3.3945-7.9219 2.0859 3.1758 2.7383 5.875 2.3086 9.3789-0.33203 0.42188-0.67578 0.83984-1.0273 1.2461-0.78125 0.90625-1.6172 1.7812-2.5039 2.6172 2.9375-3.6562 2.3789-6.4961-1.7617-9.1914 1.4102 3.8594 1.3867 7.1172 0.050781 10.711-1.207 1.0078-2.4883 1.9453-3.8477 2.8125 2.625-2.7031 2.4375-5.7695-0.57422-9.207 0.3125 4.1992-0.64453 7.9219-2.875 11.164-1.3477 0.67578-2.7578 1.2852-4.2188 1.8164 3.8359-2.3125 4.4062-5.5703 1.7148-9.7734-0.32422 4.2656-1.8828 7.8398-4.668 10.723l-0.17578 0.050781c-2.8711 0.79297-5.8203 1.9727-8.3633 3.6797-2.543-1.707-5.4922-2.8867-8.3633-3.6797l-0.17578-0.050781c-2.7852-2.8867-4.3438-6.4609-4.668-10.723-2.6914 4.2031-2.1211 7.4609 1.7148 9.7734-1.4609-0.53125-2.8711-1.1406-4.2188-1.8164-2.2305-3.2422-3.1875-6.9688-2.875-11.164-3.0078 3.4375-3.1992 6.5078-0.57422 9.207-1.3555-0.86719-2.6406-1.8047-3.8477-2.8125-1.3359-3.5977-1.3594-6.8516 0.050781-10.711-4.1406 2.6914-4.6992 5.5352-1.7617 9.1914-0.88281-0.83984-1.7188-1.7109-2.5039-2.6172-0.35156-0.41016-0.69531-0.82422-1.0273-1.2461-0.42969-3.5078 0.22656-6.2031 2.3086-9.3789-4.3828 1.5664-5.4258 3.8828-3.3945 7.9219-0.96875-1.3789-1.8281-2.8125-2.5703-4.293 0.40234-3.1328 1.8008-5.5273 4.2539-7.8203-4.2188 0.42188-5.793 2.4922-4.7773 6.7227-0.85156-1.8711-1.5195-3.8086-1.9883-5.7852 0.66016-2.9883 2.1484-5.375 4.6914-7.3789-3.3672 0.050782-5.0859 1.4219-5.2695 4.2031-0.11719-0.91406-0.19141-1.8359-0.22266-2.7617-0.007812-0.28516-0.015625-0.57031-0.015625-0.85156 1.2344-2.2773 2.9453-3.7578 5.4883-4.8008-2.9688-0.82031-4.6992-0.023438-5.4023 2.6016 0.0625-0.73828 0.16016-1.4727 0.29297-2.1992 0.09375-0.50781 0.20312-1.0195 0.33203-1.5273 1.4297-1.4609 3.0898-2.1719 5.2539-2.4375-2.1289-1.2812-3.668-1.0703-4.7773 0.81641 0.21875-0.66016 0.46875-1.3203 0.75391-1.9844 0.15234-0.35547 0.31641-0.71484 0.48828-1.0703 1.5039-0.87109 3.1719-1.207 5-1.0078-1.4961-1.4648-2.9102-1.6172-4.2422-0.45312 0.375-0.67188 0.77734-1.332 1.207-1.9727 0.085938-0.12891 0.17578-0.25781 0.26563-0.38672 1.375-0.66016 2.8477-0.82031 4.4141-0.48438-1.1172-1.3438-2.2734-1.6016-3.4688-0.77734 0.36328-0.44922 0.73438-0.87891 1.1172-1.2812 1.7969-0.16797 2.8281-2.25 4.0039-3.7266-1.8828 0.99609-3.6797 0.67188-4.3477 3.2969-0.87109 0.91016-1.6914 1.9492-2.4336 3.0547-0.98438 1.4648-1.8398 3.0508-2.5 4.5977-0.75391 1.7539-1.2773 3.4961-1.5977 5.2578-0.32031 1.7617-0.4375 3.5391-0.375 5.3672 0.24609 7.3008 3.1523 14.383 8.1289 20.156 4.7031 5.4531 11.266 9.7344 19.176 11.91 2.582 0.71094 5.3125 1.9648 7.6836 3.6758-2.1016 1.5547-3.8672 3.5078-4.9922 5.9453 0.10938 0.29688 0.55469 0.53125 1.043 0.39063 1.0234-2.2188 2.7148-4.1523 4.7266-5.7461 2.0117 1.5938 3.7031 3.5273 4.7266 5.7461 0.48828 0.14062 0.93359-0.09375 1.043-0.39063-1.125-2.4375-2.8906-4.3906-4.9922-5.9453 2.3711-1.7109 5.1016-2.9648 7.6836-3.6758 7.9023-2.1758 14.465-6.4531 19.168-11.91z"/>
  <path d="m87.711 27.43c-3.168 0.47266-3.6953 1.9922-2.1836 5.5312 0.039062-2.2969 0.5625-3.8125 2.1836-5.5312z"/>
  <path d="m85.367 46.219c1.7656-2.7852 3.8633-4.4062 7.1719-5.2695-4.3086-1.8359-6.4023-0.21484-7.1719 5.2695z"/>
  <path d="m86.273 39.27c0.78516-2.7227 2.0938-4.5664 4.5938-6.0742-3.957-0.48047-5.2617 1.3594-4.5938 6.0742z"/>
  <path d="m81.512 19.59c-2.1758 1.1406-1.9531 2.4531 0.011719 4.6641-0.53906-1.6875-0.76172-3.0039-0.011719-4.6641z"/>
  <path d="m58.48 72.41c4.3984 0.011719 7.8711 1.293 11.293 4.4023-1.1758-6.1523-4.6484-7.4336-11.293-4.4023z"/>
  <path d="m78.766 59.559c2.9531-2.3555 6.2617-3.2773 10.195-2.9805-4.0352-3.5898-7.3438-2.668-10.195 2.9805z"/>
  <path d="m82.945 53.371c2.0312-2.668 4.0586-4.25 7.4922-4.8398-4.2188-2.2266-6.2422-0.64844-7.4922 4.8398z"/>
  <path d="m65.633 69.734c4.3398-0.66016 8.0391 0.15625 11.879 2.7188-2.082-5.9141-5.7812-6.7305-11.879-2.7188z"/>
  <path d="m73.281 64.98c3.6992-1.7188 7.4258-1.9961 11.496-0.6875-3.3594-4.7773-7.082-4.5039-11.496 0.6875z"/>
  <path d="m15.973 28.359c2.0625-2.8359 2.0938-4.5156-0.60938-5.6016 1.082 1.8672 1.0469 3.5508 0.60938 5.6016z"/>
  <path d="m12.289 27.43c1.6211 1.7148 2.1445 3.2344 2.1836 5.5312 1.5117-3.5352 0.98438-5.0547-2.1836-5.5312z"/>
  <path d="m14.633 46.219c-0.76953-5.4844-2.8633-7.1055-7.1719-5.2695 3.3086 0.86328 5.4023 2.4844 7.1719 5.2695z"/>
  <path d="m13.727 39.27c0.66797-4.7148-0.63672-6.5547-4.5938-6.0742 2.5 1.5078 3.8047 3.3477 4.5938 6.0742z"/>
  <path d="m18.488 19.59c0.75 1.6602 0.52734 2.9766-0.011719 4.6641 1.9648-2.207 2.1875-3.5234 0.011719-4.6641z"/>
  <path d="m30.227 76.816c3.4219-3.1094 6.8945-4.3945 11.293-4.4023-6.6445-3.0352-10.117-1.7539-11.293 4.4023z"/>
  <path d="m11.035 56.578c3.9336-0.29688 7.2422 0.62891 10.195 2.9805-2.8477-5.6484-6.1562-6.5703-10.195-2.9805z"/>
  <path d="m17.055 53.371c-1.2461-5.4922-3.2734-7.0703-7.4922-4.8398 3.4336 0.58984 5.457 2.1719 7.4922 4.8398z"/>
  <path d="m34.367 69.734c-6.0977-4.0156-9.7969-3.1992-11.879 2.7188 3.8359-2.5586 7.5391-3.3789 11.879-2.7188z"/>
  <path d="m15.219 64.297c4.0742-1.3086 7.7969-1.0312 11.496 0.6875-4.4102-5.1953-8.1328-5.4688-11.496-0.6875z"/>
 </g>
</svg>
