<svg xmlns="http://www.w3.org/2000/svg" data-name="Layer 1" viewBox="0 0 100 100" x="0px" y="0px"><title>TiNY2_EXTRAS</title><path d="M64.06,5H41.56A36.56,36.56,0,0,0,15.71,67.42L43.29,95V80.94A14.06,14.06,0,0,1,57.36,66.88h6.71A30.94,30.94,0,1,0,64.06,5ZM82,53.84a25.22,25.22,0,0,1-17.9,7.41H57.36A19.68,19.68,0,0,0,37.67,80.94v.48l-18-18A30.93,30.93,0,0,1,41.56,10.63h22.5A25.3,25.3,0,0,1,82,53.84Z"></path><path d="M36.67,33.63l-5.85-.15-2-5.52a.7.7,0,0,0-.66-.47h0a.7.7,0,0,0-.66.47L25.6,33.49l-5.85.15a.7.7,0,0,0-.41,1.26L24,38.46l-1.66,5.61a.7.7,0,0,0,1.07.78l4.82-3.32L33,44.84a.7.7,0,0,0,1.07-.78l-1.67-5.61,4.64-3.56a.7.7,0,0,0-.41-1.26Z"></path><path d="M58.48,33.63l-5.85-.15-2-5.52A.7.7,0,0,0,50,27.5h0a.7.7,0,0,0-.66.47l-1.95,5.52-5.85.15a.7.7,0,0,0-.41,1.26l4.65,3.56-1.66,5.61a.7.7,0,0,0,1.07.78L50,41.53l4.82,3.32a.7.7,0,0,0,1.07-.78l-1.67-5.61,4.64-3.56a.7.7,0,0,0-.41-1.26Z"></path><path d="M80.3,33.63l-5.85-.15-2-5.52a.7.7,0,0,0-.66-.47h0a.7.7,0,0,0-.66.47l-1.95,5.52-5.85.15A.7.7,0,0,0,63,34.9l4.65,3.56-1.66,5.61a.7.7,0,0,0,1.07.78l4.82-3.32,4.82,3.32a.7.7,0,0,0,1.07-.78l-1.67-5.61,4.64-3.56a.7.7,0,0,0-.41-1.26Z"></path></svg>