<?xml version="1.0" encoding="UTF-8"?>
<svg fill="#1871B9" width="100pt" height="100pt" version="1.1" viewBox="0 0 100 100" xmlns="http://www.w3.org/2000/svg">
 <g>
  <path d="m64.059 5h-22.5c-9.6953 0-19 3.8516-25.855 10.707-6.8594 6.8594-10.711 16.16-10.711 25.859 0.003906 9.6992 3.8594 18.996 10.719 25.855l27.578 27.578v-14.059c0-3.7305 1.4844-7.3086 4.1211-9.9453 2.6406-2.6367 6.2188-4.1172 9.9492-4.1172h6.7109c11.055 0 21.266-5.8984 26.793-15.473 5.5234-9.5742 5.5234-21.367-0.007812-30.941-5.5273-9.5703-15.742-15.465-26.797-15.465zm17.941 48.84c-4.7422 4.7539-11.184 7.4219-17.898 7.4102h-6.7422c-5.2227-0.003906-10.23 2.0703-13.926 5.7656-3.6914 3.6914-5.7656 8.7031-5.7617 13.926v0.48047l-18-18c-5.8008-5.8047-9.0547-13.672-9.0508-21.875s3.2656-16.066 9.0664-21.867c5.8047-5.7969 13.672-9.0508 21.871-9.0508h22.5c6.7227-0.019531 13.176 2.6406 17.934 7.3828 4.7617 4.7461 7.4375 11.191 7.4375 17.914 0.003906 6.7227-2.6719 13.168-7.4297 17.914z"/>
  <path d="m36.672 33.629l-5.8516-0.14844-2-5.5195c-0.097656-0.28125-0.36328-0.46875-0.66016-0.47266-0.29688 0.003907-0.5625 0.19141-0.66016 0.47266l-1.8984 5.5273-5.8516 0.14844v0.003906c-0.30078 0.003906-0.5625 0.19922-0.65625 0.48438-0.09375 0.28125 0.007812 0.59375 0.24609 0.77344l4.6602 3.5625-1.6602 5.6094c-0.089844 0.28516 0.015625 0.59375 0.25781 0.77344 0.24219 0.17578 0.56641 0.17578 0.8125 0.007812l4.8203-3.3203 4.7695 3.3086c0.24609 0.17188 0.57031 0.16797 0.8125-0.007813s0.34375-0.48438 0.25781-0.77344l-1.6719-5.6094 4.6406-3.5586c0.24219-0.17969 0.33984-0.49219 0.24609-0.77734-0.09375-0.28516-0.35547-0.48047-0.65625-0.48438z"/>
  <path d="m58.48 33.629l-5.8516-0.14844-2-5.5195c-0.097656-0.26953-0.34375-0.44922-0.62891-0.46094-0.29688 0-0.5625 0.1875-0.66016 0.46875l-1.9492 5.5195-5.8516 0.14844v0.003906c-0.29687 0.003906-0.5625 0.19922-0.65625 0.48438-0.089843 0.28125 0.007813 0.59375 0.24609 0.77344l4.6484 3.5586-1.6602 5.6094 0.003906 0.003906c-0.089844 0.28516 0.015625 0.59375 0.25391 0.77344 0.24219 0.17578 0.57031 0.17578 0.81641 0.007812l4.8086-3.3203 4.8203 3.3203c0.24609 0.16797 0.57031 0.16797 0.8125-0.007812 0.24219-0.17969 0.34375-0.48828 0.25781-0.77344l-1.6719-5.6094 4.6406-3.5586v-0.003906c0.24219-0.17969 0.33984-0.49219 0.24609-0.77344-0.09375-0.28516-0.35547-0.48047-0.65625-0.48438z"/>
  <path d="m80.301 33.629l-5.8516-0.14844-2-5.5195c-0.097657-0.28125-0.36328-0.46875-0.66016-0.47266-0.29687 0.003907-0.5625 0.19141-0.66016 0.47266l-1.9492 5.5195-5.8516 0.14844c-0.28906 0.03125-0.53125 0.23828-0.60547 0.51953-0.074218 0.28516 0.039063 0.58203 0.27734 0.75l4.6484 3.5586-1.6602 5.6094v0.003906c-0.085937 0.28516 0.015625 0.59375 0.25781 0.77344 0.24219 0.17578 0.57031 0.17578 0.8125 0.007812l4.8203-3.3203 4.8203 3.3203c0.24609 0.16797 0.57422 0.16797 0.8125-0.007812 0.24219-0.17969 0.34766-0.48828 0.25781-0.77344l-1.6719-5.6094 4.6406-3.5586v-0.003906c0.24219-0.17969 0.33984-0.49219 0.24609-0.77344-0.089844-0.28516-0.35547-0.48047-0.65625-0.48438z"/>
 </g>
</svg>
