<?xml version="1.0" encoding="UTF-8"?>
<svg fill="#2E75B6" width="100pt" height="100pt" version="1.1" viewBox="0 0 100 100" xmlns="http://www.w3.org/2000/svg">
 <g>
  <path d="m91.102 10.5c-1.6992-0.19922-3.3984-0.39844-5.1016-0.39844-13.102 0-24.199 7.3008-31.199 13.301-7.6016 6.6016-12 13-12.199 13.301l-6.8008 9.6016-17.301 0.5c-0.30078 0-0.60156 0.19922-0.80078 0.39844l-7.1992 9.6992c-0.19922 0.30078-0.19922 0.60156-0.10156 0.89844 0.10156 0.30078 0.30078 0.5 0.69922 0.60156l11 3.3008s-0.89844 5.6992-0.89844 5.8008c1.1992 11.199 11.301 12.898 11.398 12.898h0.10156 0.19922l5.5-0.89844 3.3984 11c0.10156 0.30078 0.30078 0.60156 0.60156 0.69922h0.30078c0.19922 0 0.39844-0.10156 0.60156-0.19922l9.6992-7.1992c0.19922-0.19922 0.39844-0.5 0.39844-0.80078l0.19922-16.5 9-6.1016c29.102-18.5 29.398-48.5 29.398-48.801-0.097656-0.60156-0.39453-1-0.89453-1.1016zm-78 46.398l6.1016-8.1992 15.301-0.39844-10.602 15 0.30078-2.1016c0.10156-0.5-0.19922-1-0.69922-1.1016zm38.297 25.5l-8.1016 6.1016-3.1992-10.398c-0.10156-0.5-0.60156-0.80078-1.1016-0.69922l-1.8984 0.30078 14.5-9.8984zm10.102-23.797l-28.898 19.699c-1.6016-0.39844-8.3008-2.3984-9.3008-10.699l21.102-29.801c0.19922-0.30078 17.801-25.699 41.699-25.699 1.3008 0 2.6016 0.10156 3.8984 0.19922-0.39844 5-3.1016 30.098-28.5 46.301z"/>
  <path d="m25.199 85.301l-14.199 4.5 4.6992-14.102c0.19922-0.5-0.10156-1.1016-0.60156-1.3008-0.5-0.19922-1.1016 0.10156-1.3008 0.60156l-5.2969 16c-0.10156 0.39844 0 0.69922 0.19922 1 0.19922 0.19922 0.39844 0.30078 0.69922 0.30078h0.30078l16.102-5c0.5-0.19922 0.80078-0.69922 0.69922-1.3008-0.19922-0.5-0.69922-0.80078-1.3008-0.69922z"/>
  <path d="m66.398 26.898c-4.6016 0-8.3984 3.8008-8.3984 8.3984 0 4.6016 3.8008 8.3984 8.3984 8.3984 4.6992 0 8.3984-3.8008 8.3984-8.3984 0.10156-4.5977-3.6953-8.3984-8.3984-8.3984zm0 14.902c-3.5 0-6.3984-2.8984-6.3984-6.3984s2.8984-6.3984 6.3984-6.3984 6.3984 2.8984 6.3984 6.3984c0.003906 3.4961-2.7969 6.3984-6.3984 6.3984z"/>
  <path d="m50.301 46c-2 0-3.6992 1.6992-3.6992 3.6992s1.6992 3.6992 3.6992 3.6992 3.6992-1.6992 3.6992-3.6992c-0.10156-2.0977-1.6992-3.6992-3.6992-3.6992zm0 5.3984c-0.89844 0-1.6992-0.80078-1.6992-1.6992 0-0.89844 0.80078-1.6992 1.6992-1.6992 0.89844 0 1.6992 0.80078 1.6992 1.6992-0.10156 0.90234-0.80078 1.6992-1.6992 1.6992z"/>
 </g>
</svg>
