<svg xmlns="http://www.w3.org/2000/svg" xmlns:xlink="http://www.w3.org/1999/xlink" version="1.1" x="0px" y="0px" viewBox="0 0 100 100" style="enable-background:new 0 0 100 100;" xml:space="preserve"><style type="text/css">
	.st0{fill:none;stroke:#000000;stroke-width:2;stroke-linecap:round;stroke-linejoin:round;stroke-miterlimit:10;}
</style><path d="M49.954,40.167c3.157,0,5.726-2.569,5.726-5.727s-2.568-5.727-5.726-5.727s-5.727,2.569-5.727,5.727  S46.797,40.167,49.954,40.167z M49.954,30.714c2.055,0,3.726,1.672,3.726,3.727s-1.671,3.727-3.726,3.727s-3.727-1.672-3.727-3.727  S47.899,30.714,49.954,30.714z"></path><path d="M11,90h78c0.553,0,1-0.447,1-1V39.167c0-0.553-0.447-1-1-1H68.83c-0.028,0-0.052,0.014-0.08,0.016V31.47l1.775,1.033  c0.158,0.092,0.331,0.136,0.502,0.136c0.345,0,0.68-0.178,0.865-0.497c0.277-0.478,0.116-1.09-0.361-1.367L51.124,18.903v-2.394  h5.38c0.553,0,1-0.447,1-1V11c0-0.553-0.447-1-1-1h-6.38c-0.553,0-1,0.447-1,1v7.759L28.469,30.774  c-0.478,0.277-0.639,0.89-0.361,1.367c0.277,0.477,0.89,0.638,1.367,0.361l1.775-1.033v6.697H11c-0.553,0-1,0.447-1,1V89  C10,89.553,10.447,90,11,90z M71.87,84.093V88H28.037v-3.907H71.87z M58.875,82.093h-7.766v-18.51h7.766V82.093z M49.109,82.093  h-7.984v-18.51h7.984V82.093z M68.83,40.167H88V88H73.87v-4.907c0-0.553-0.447-1-1-1h-4.12V40.151  C68.778,40.153,68.802,40.167,68.83,40.167z M55.504,14.509h-4.38V12h4.38V14.509z M50,20.563l16.75,9.743v51.786h-5.875v-19.51  c0-0.553-0.447-1-1-1h-19.75c-0.553,0-1,0.447-1,1v19.51H33.25V30.307L50,20.563z M12,40.167h19.25v41.926h-4.213  c-0.553,0-1,0.447-1,1V88H12V40.167z"></path><path d="M75.442,57.412h6.166c0.553,0,1-0.447,1-1V46.333c0-0.553-0.447-1-1-1h-6.166c-0.553,0-1,0.447-1,1v10.079  C74.442,56.965,74.89,57.412,75.442,57.412z M76.442,47.333h4.166v8.079h-4.166V47.333z"></path><path d="M81.65,61.542h-6.167c-0.553,0-1,0.447-1,1V72.62c0,0.553,0.447,1,1,1h6.167c0.553,0,1-0.447,1-1V62.542  C82.65,61.989,82.203,61.542,81.65,61.542z M80.65,71.62h-4.167v-8.078h4.167V71.62z"></path><path d="M18.18,57.412h6.166c0.553,0,1-0.447,1-1V46.333c0-0.553-0.447-1-1-1H18.18c-0.553,0-1,0.447-1,1v10.079  C17.18,56.965,17.627,57.412,18.18,57.412z M19.18,47.333h4.166v8.079H19.18V47.333z"></path><path d="M40.125,57.412h6.167c0.553,0,1-0.447,1-1V46.333c0-0.553-0.447-1-1-1h-6.167c-0.553,0-1,0.447-1,1v10.079  C39.125,56.965,39.572,57.412,40.125,57.412z M41.125,47.333h4.167v8.079h-4.167V47.333z"></path><path d="M52.938,46.333v10.079c0,0.553,0.447,1,1,1h6.167c0.553,0,1-0.447,1-1V46.333c0-0.553-0.447-1-1-1h-6.167  C53.385,45.333,52.938,45.78,52.938,46.333z M54.938,47.333h4.167v8.079h-4.167V47.333z"></path><path d="M24.388,61.542h-6.167c-0.553,0-1,0.447-1,1V72.62c0,0.553,0.447,1,1,1h6.167c0.553,0,1-0.447,1-1V62.542  C25.388,61.989,24.94,61.542,24.388,61.542z M23.388,71.62h-4.167v-8.078h4.167V71.62z"></path></svg>