<?xml version="1.0" encoding="UTF-8"?>
<svg fill="#1871B9" width="100pt" height="100pt" version="1.1" viewBox="0 0 100 100" xmlns="http://www.w3.org/2000/svg">
 <path d="m49.301 22.039v11.668l-7.2812 5.4609-41.945-0.054688v3.832h3.8125v30.91h-3.8867v4.1055h99.926v-4.1055h-4.3086v-30.91h4.3867v-3.832l-42.18-0.011719-7.1719-5.3789v-3.5039h11.387v-8.1797zm1.3477 1.3477h10.039v5.4805h-10.039zm-0.68359 11.508l19.566 14.676h-39.133zm0 1.5547l-0.39453 0.28906-16.129 11.699h33.055zm0 1.668l12.367 8.9727h-24.734zm9.6562 2.3359l39.031 0.011719v1.1328c-12.551-0.011718-37.656-0.11328-37.656-0.11328zm-58.195 0.011719l38.797 0.050781-1.5 1.125s-24.871-0.046875-37.297-0.046875zm61.379 2.375s20.996 0.10547 31.465 0.10547v6.625h-22.488zm-57.566 0.10547l31.691 0.042969-8.7773 6.582h-22.914zm0 7.9727h27.859v20.238h-2.6992v2.6953h-25.16zm29.211 0h31.035v20.238h-9.4453v-10.121h-0.011718c-0.058594-2.0977-1.1875-4.0273-3.0078-5.0859-0.9375-0.54688-1.9883-0.82031-3.0391-0.82422-1.0508 0-2.1016 0.26953-3.043 0.80859-1.832 1.0547-2.9766 2.9922-3.0312 5.0977h-0.011719v10.121h-9.4453zm32.383 0h27.438v22.938h-24.738v-2.6953h-2.6992zm-56.781 3.8047v6.7031h6.7148v-6.7031zm11.527 0v6.7031h6.7148v-6.7031zm49.867 0v6.7031h6.7148v-6.7031zm11.523 0v6.7031h6.7148v-6.7031zm-43.809 0.41016c-0.48438-0.015624-0.97266 0.097657-1.4102 0.34766-0.85156 0.48828-1.375 1.3984-1.3984 2.3867v2.4648h5.4414v-2.4648h-0.011719c-0.019531-0.92188-0.47266-1.7852-1.2461-2.293-0.41797-0.27734-0.89844-0.42578-1.3828-0.44141zm21.734 0.34375c-0.47656 0-0.95312 0.125-1.375 0.375-0.82812 0.49219-1.332 1.3906-1.3516 2.3594v2.4648h5.4414v-2.4648h-0.011719c-0.019531-0.96094-0.51562-1.8555-1.3359-2.3516-0.42188-0.25391-0.89844-0.38281-1.3711-0.38672zm-49.496 0.59375h4.0156v4.0078h-4.0156zm11.527 0h4.0156v4.0078h-4.0156zm49.871 0h4.0156v4.0078h-4.0156zm11.523 0h4.0156v4.0078h-4.0156zm-45.199 0.40625c0.23828 0.011719 0.47266 0.082032 0.68359 0.22266 0.42187 0.28125 0.67969 0.78516 0.64453 1.3242v0.95703h-2.7461v-1.0508c0-0.53906 0.28516-1.0273 0.72266-1.2773 0.21875-0.125 0.45703-0.18359 0.69531-0.17578zm10.859 0c0.81641 0 1.6328 0.21484 2.3633 0.64063 1.4609 0.84766 2.3594 2.4102 2.3516 4.1016v9.9375h-9.4453v-9.9531c0-1.6914 0.90234-3.25 2.3672-4.0938 0.73437-0.42188 1.5508-0.63281 2.3633-0.62891zm10.918 0.34375c0.23437 0 0.46484 0.066407 0.67969 0.19141 0.42578 0.25781 0.69531 0.74219 0.69141 1.2695v1.043h-2.7461v-1.0508c0-0.53125 0.27344-1.0117 0.69922-1.2656 0.21094-0.12891 0.44531-0.19141 0.67969-0.19141zm-50.844 6.5273v6.7031h6.7148v-6.7031zm11.527 0v6.7031h6.7148v-6.7031zm49.867 0v6.7031h6.7148v-6.7031zm11.523 0v6.7031h6.7148v-6.7031zm-22.074 0.75391c-0.47656 0-0.95313 0.125-1.375 0.37891-0.82813 0.49219-1.332 1.3906-1.3516 2.3594v2.4648h5.4414v-2.4648h-0.011719c-0.023437-0.96094-0.51562-1.8555-1.3359-2.3516-0.42188-0.25391-0.89844-0.38281-1.3711-0.38281zm-21.766 0c-0.48047-0.011718-0.96484 0.10938-1.3945 0.35938-0.84375 0.48828-1.3594 1.3945-1.3828 2.375v2.4648h5.4414v-2.4648h-0.011719c-0.019531-0.9375-0.49219-1.8125-1.2812-2.3164-0.42188-0.26953-0.89844-0.40625-1.3789-0.41797zm-27.73 0.59375h4.0156v4.0039h-4.0156zm11.527 0h4.0156v4.0039h-4.0156zm49.871 0h4.0156v4.0039h-4.0156zm11.523 0h4.0156v4.0039h-4.0156zm-23.426 0.75c0.23437 0 0.46484 0.066407 0.67969 0.19141 0.42578 0.25781 0.69531 0.74219 0.69141 1.2695v1.043h-2.7461v-1.0508c0-0.53125 0.27344-1.0117 0.69922-1.2656 0.21094-0.12891 0.44531-0.19141 0.67969-0.19141zm-21.793 0c0.23438 0 0.46875 0.074219 0.68359 0.21094 0.42188 0.26953 0.68359 0.76953 0.66406 1.3047v0.99219h-2.7461v-1.0508c0-0.53516 0.28125-1.0195 0.71484-1.2734 0.21484-0.125 0.45312-0.1875 0.6875-0.17969zm-7.3516 7.0586h36.434v1.3477h-36.434zm-30.398 2.6953h97.227v1.4062h-97.227z" fill-rule="evenodd"/>
</svg>
