<?xml version="1.0" encoding="UTF-8"?>
<svg fill="#2E75B6" width="100pt" height="100pt" version="1.1" viewBox="0 0 100 100" xmlns="http://www.w3.org/2000/svg">
 <g>
  <path d="m19.199 54.602h4.8984c0.60156 0 1-0.39844 1-1v-5.3984c0-0.60156-0.39844-1-1-1h-4.8984c-0.60156 0-1 0.39844-1 1v5.3984c0 0.5 0.5 1 1 1zm1-5.5h2.8984v3.3984h-2.8984z"/>
  <path d="m29.5 54.602h4.8984c0.60156 0 1-0.39844 1-1v-5.3984c0-0.60156-0.39844-1-1-1h-4.8984c-0.60156 0-1 0.39844-1 1v5.3984c0 0.5 0.5 1 1 1zm1-5.5h2.8984v3.3984h-2.8984z"/>
  <path d="m19.199 66.602h4.8984c0.60156 0 1-0.39844 1-1v-5.3984c0-0.60156-0.39844-1-1-1h-4.8984c-0.60156 0-1 0.39844-1 1v5.3984c0 0.59766 0.5 1 1 1zm1-5.4023h2.8984v3.3984h-2.8984z"/>
  <path d="m29.5 66.602h4.8984c0.60156 0 1-0.39844 1-1v-5.3984c0-0.60156-0.39844-1-1-1h-4.8984c-0.60156 0-1 0.39844-1 1v5.3984c0 0.59766 0.5 1 1 1zm1-5.4023h2.8984v3.3984h-2.8984z"/>
  <path d="m19.199 78.301h4.8984c0.60156 0 1-0.39844 1-1v-5.3984c0-0.60156-0.39844-1-1-1h-4.8984c-0.60156 0-1 0.39844-1 1v5.3984c0 0.59766 0.5 1 1 1zm1-5.4023h2.8984v3.3984h-2.8984z"/>
  <path d="m29.5 78.301h4.8984c0.60156 0 1-0.39844 1-1v-5.3984c0-0.60156-0.39844-1-1-1h-4.8984c-0.60156 0-1 0.39844-1 1v5.3984c0 0.59766 0.5 1 1 1zm1-5.4023h2.8984v3.3984h-2.8984z"/>
  <path d="m19.199 42.602h4.8984c0.60156 0 1-0.39844 1-1v-5.3984c0-0.60156-0.39844-1-1-1h-4.8984c-0.60156 0-1 0.39844-1 1v5.3984c0 0.59766 0.5 1 1 1zm1-5.4023h2.8984v3.3984h-2.8984z"/>
  <path d="m29.5 42.602h4.8984c0.60156 0 1-0.39844 1-1v-5.3984c0-0.60156-0.39844-1-1-1h-4.8984c-0.60156 0-1 0.39844-1 1v5.3984c0 0.59766 0.5 1 1 1zm1-5.4023h2.8984v3.3984h-2.8984z"/>
  <path d="m65.602 54.602h4.8984c0.60156 0 1-0.39844 1-1v-5.3984c0-0.60156-0.39844-1-1-1h-4.8984c-0.60156 0-1 0.39844-1 1v5.3984c0 0.5 0.39844 1 1 1zm1-5.5h2.8984v3.3984h-2.8984z"/>
  <path d="m75.801 54.602h4.8984c0.60156 0 1-0.39844 1-1v-5.3984c0-0.60156-0.39844-1-1-1h-4.8984c-0.60156 0-1 0.39844-1 1v5.3984c0 0.5 0.5 1 1 1zm1-5.5h2.8984v3.3984h-2.8984z"/>
  <path d="m65.602 66.602h4.8984c0.60156 0 1-0.39844 1-1v-5.3984c0-0.60156-0.39844-1-1-1h-4.8984c-0.60156 0-1 0.39844-1 1v5.3984c0 0.59766 0.39844 1 1 1zm1-5.4023h2.8984v3.3984h-2.8984z"/>
  <path d="m75.801 66.602h4.8984c0.60156 0 1-0.39844 1-1v-5.3984c0-0.60156-0.39844-1-1-1h-4.8984c-0.60156 0-1 0.39844-1 1v5.3984c0 0.59766 0.5 1 1 1zm1-5.4023h2.8984v3.3984h-2.8984z"/>
  <path d="m65.602 78.301h4.8984c0.60156 0 1-0.39844 1-1v-5.3984c0-0.60156-0.39844-1-1-1h-4.8984c-0.60156 0-1 0.39844-1 1v5.3984c0 0.59766 0.39844 1 1 1zm1-5.4023h2.8984v3.3984h-2.8984z"/>
  <path d="m75.801 78.301h4.8984c0.60156 0 1-0.39844 1-1v-5.3984c0-0.60156-0.39844-1-1-1h-4.8984c-0.60156 0-1 0.39844-1 1v5.3984c0 0.59766 0.5 1 1 1zm1-5.4023h2.8984v3.3984h-2.8984z"/>
  <path d="m65.602 42.602h4.8984c0.60156 0 1-0.39844 1-1v-5.3984c0-0.60156-0.39844-1-1-1h-4.8984c-0.60156 0-1 0.39844-1 1v5.3984c0 0.59766 0.39844 1 1 1zm1-5.4023h2.8984v3.3984h-2.8984z"/>
  <path d="m75.801 42.602h4.8984c0.60156 0 1-0.39844 1-1v-5.3984c0-0.60156-0.39844-1-1-1h-4.8984c-0.60156 0-1 0.39844-1 1v5.3984c0 0.59766 0.5 1 1 1zm1-5.4023h2.8984v3.3984h-2.8984z"/>
  <path d="m86.301 29.5h-25.301v-5.3008c0-0.60156-0.39844-1-1-1h-9v-3.6016h9c0.60156 0 1-0.39844 1-1v-5.5977c0-0.60156-0.39844-1-1-1h-10c-0.60156 0-1 0.39844-1 1v10.203h-9c-0.60156 0-1 0.39844-1 1v5.3008l-25.301-0.003906c-0.60156 0-1 0.39844-1 1v52.801c0 0.60156 0.39844 1 1 1h72.602c0.60156 0 1-0.39844 1-1v-52.801c0-0.60156-0.40234-1-1-1zm-27.301-11.898h-8v-3.6016h8zm-5.8984 60.199h-6.1016v-11.102h6.1016zm1-13.102h-8.1016c-0.60156 0-1 0.39844-1 1v12.102h-4v-26h18v26h-4v-12.102c0.10156-0.5-0.39844-1-0.89844-1zm4.8984-39.5v24.699h-18v-24.699zm-20 57.102h-24.301v-50.801h24.301zm2-2.5h18v2.5h-18zm44.301 2.5h-24.301v-50.801h24.301z"/>
  <path d="m49.898 43.398c3.1016 0 5.6016-2.5 5.6016-5.6016s-2.5-5.6016-5.6016-5.6016c-3.1016 0-5.6016 2.5-5.6016 5.6016 0.003906 3.1016 2.5039 5.6016 5.6016 5.6016zm0-9.2969c2 0 3.6016 1.6016 3.6016 3.6016s-1.6016 3.6016-3.6016 3.6016-3.6016-1.6016-3.6016-3.6016c0.003906-2.0039 1.6016-3.6016 3.6016-3.6016z"/>
 </g>
</svg>
