<?xml version="1.0" encoding="UTF-8"?>
<svg fill="#F09000" width="100pt" height="100pt" version="1.1" viewBox="0 0 100 100" xmlns="http://www.w3.org/2000/svg">
 <g>
  <path d="m19.754 65.363h9.3125c0.20703 0 0.375-0.16797 0.375-0.375v-9.4922c0-0.20703-0.16797-0.375-0.375-0.375h-9.3125c-0.20703 0-0.375 0.17188-0.375 0.375v9.4922c0 0.20703 0.17188 0.375 0.375 0.375zm0.37891-9.4922h8.5586v8.7422h-8.5586z"/>
  <path d="m15.07 75.426h18.684v0.57422h-18.684z"/>
  <path d="m91.512 46.949-10.852-13.898c-0.14062-0.17578-0.36719-0.28906-0.58984-0.28906h-29.316v-4.4336h6.7305c0.41406 0 0.75-0.33594 0.75-0.75v-4.3711c0-0.41406-0.33594-0.75-0.75-0.75h-6.6055l-0.12891-0.91797c-0.054688-0.36719-0.37109-0.64844-0.74609-0.64844-0.41406 0-0.75 0.33594-0.75 0.75v11.117l-29.316 0.003907c-0.23438 0-0.44531 0.10156-0.59375 0.28906l-10.848 13.898c-0.17969 0.23047-0.21094 0.52734-0.082032 0.78906 0.12109 0.25391 0.39453 0.42188 0.67578 0.42188h2.8828v30.195c0 0.41406 0.33594 0.75391 0.75 0.75391h29.805c0.41406 0 0.75-0.33984 0.75-0.75391l-0.003906-21.941h13.461v21.941c0 0.41406 0.33594 0.75 0.75 0.75h29.801c0.41406 0 0.75-0.33594 0.75-0.75v-30.195h2.8828c0.28125 0 0.55078-0.16797 0.67188-0.41797 0.125-0.25391 0.09375-0.57422-0.078125-0.79297zm-41.133-23.367h6.7305v3.6211h-6.7305zm-0.375 10.461 12.992 12.992h-25.984zm-14.273 43.934h-22.637v-4.5312h22.637zm0-5.2812h-22.637v-24.91h22.637zm-25.875-25.66 10.266-13.148h28.977l-13.145 13.148zm32.293 30.941h-5.668v-21.938h5.668zm21.375 0h-5.668v-21.938h5.668zm0-22.688h-27.043v-7.5039h27.043zm23.387 22.688h-22.637v-4.5312h22.637zm0-5.2812h-22.637v-24.91h22.637zm-22.855-25.66-13.145-13.148h28.98l10.262 13.148z"/>
  <path d="m66.254 75.426h18.68v0.57422h-18.68z"/>
  <path d="m70.934 65.363h9.3164c0.20703 0 0.375-0.16797 0.375-0.375v-9.4922c0-0.20703-0.16797-0.375-0.375-0.375h-9.3164c-0.20703 0-0.375 0.17188-0.375 0.375v9.4922c0 0.20703 0.16797 0.375 0.375 0.375zm0.375-9.4922h8.5664v8.7422h-8.5664z"/>
 </g>
</svg>
