<?xml version="1.0" encoding="UTF-8"?>
<svg fill="#2E75B6" width="100pt" height="100pt" version="1.1" viewBox="0 0 100 100" xmlns="http://www.w3.org/2000/svg">
 <g fill-rule="evenodd">
  <path d="m49.426 6.5781v18.148l-19.98 13.062c-0.15234 0.10547-0.25 0.28516-0.25391 0.46875v15.73h-11.305c-0.30078 0-0.57422 0.27344-0.57422 0.57812v38.281h-10.871c-0.58594 0.027344-0.58594 1.1289 0 1.1562h87.121c0.58594-0.027344 0.58594-1.1289 0-1.1562h-10.836v-38.281c0-0.30078-0.27344-0.57812-0.57422-0.57812h-11.305v-15.73c-0.011718-0.19141-0.12109-0.375-0.28906-0.46875l-19.98-13.062v-9.3086h13.465c0.30078 0 0.57422-0.27344 0.57422-0.57812v-8.2617c0-0.30078-0.27344-0.57812-0.57422-0.57812h-13.93c-0.53906 0.019531-0.65625 0.23047-0.68359 0.57812zm1.1523 0.57812h12.887v7.1094h-12.887zm-0.57422 18.547 19.691 12.879v15.984c0 0.30078 0.27344 0.57812 0.57422 0.57812h11.305v37.703h-20.953v-31.355c0-0.30078-0.27344-0.57813-0.57422-0.57813h-20.09c-0.30078 0-0.57422 0.27344-0.57422 0.57813v31.355h-20.918v-37.703h11.305c0.30078 0 0.57422-0.27344 0.57422-0.57812v-15.984zm-9.4688 36.367h8.8906v30.777h-8.8906zm10.043 0h8.8906v30.777h-8.8906z"/>
  <path d="m50.008 36.133c-5.332 0-9.6367 4.3555-9.6367 9.6602 0 5.3398 4.3047 9.6992 9.6367 9.6992 5.332 0 9.6367-4.3594 9.6367-9.6992 0-5.3047-4.3047-9.6602-9.6367-9.6602zm0 1.1562c4.707 0 8.4844 3.8242 8.4844 8.5039 0 4.7227-3.7773 8.5469-8.4844 8.5469-4.707 0-8.4844-3.8242-8.4844-8.5469 0-4.6797 3.7773-8.5039 8.4844-8.5039z"/>
  <path d="m50 40.789c-0.32031 0.003907-0.57422 0.26563-0.57031 0.58594v4.418c0 0.15234 0.0625 0.30078 0.17187 0.40625 0.10547 0.10938 0.25391 0.17188 0.40625 0.17188h4.4492c0.32031 0 0.57812-0.25781 0.57812-0.57812 0-0.32031-0.25781-0.57812-0.57812-0.57812h-3.8711v-3.8398c0-0.15625-0.058594-0.30859-0.17188-0.41797-0.10937-0.10938-0.25781-0.17188-0.41406-0.16797z"/>
  <path d="m24.25 60.801c-0.15234 0-0.30078 0.0625-0.40625 0.16797-0.10938 0.10938-0.16797 0.25781-0.16797 0.41016v9.9805c0 0.15625 0.058594 0.30078 0.16797 0.41016 0.10547 0.10938 0.25391 0.16797 0.40625 0.16797h9.9609c0.15234 0 0.30078-0.058594 0.40625-0.16797 0.10937-0.10938 0.17187-0.25391 0.17187-0.41016v-9.9805c0-0.15234-0.0625-0.30078-0.17187-0.41016-0.10547-0.10547-0.25391-0.16797-0.40625-0.16797zm0.57812 1.1562h8.8086v8.8281h-8.8086z"/>
  <path d="m24.25 76.387c-0.15234 0-0.30078 0.0625-0.40625 0.17188-0.10938 0.10547-0.16797 0.25391-0.16797 0.40625v9.9844c0 0.15234 0.058594 0.30078 0.16797 0.40625 0.10547 0.10938 0.25391 0.17188 0.40625 0.17188h9.9609c0.15234 0 0.30078-0.0625 0.40625-0.17188 0.10937-0.10547 0.17187-0.25391 0.17187-0.40625v-9.9844c0-0.15234-0.0625-0.30078-0.17187-0.40625-0.10547-0.10938-0.25391-0.17188-0.40625-0.17188zm0.57812 1.1562h8.8086v8.8281h-8.8086z"/>
  <path d="m65.844 60.801c-0.15234 0-0.29688 0.0625-0.40625 0.16797-0.10938 0.10938-0.16797 0.25781-0.16797 0.41016v9.9805c0 0.15625 0.058594 0.30078 0.16797 0.41016s0.25391 0.16797 0.40625 0.16797h9.9219c0.15234 0 0.29688-0.058594 0.40625-0.16797s0.16797-0.25391 0.16797-0.41016v-9.9805c0-0.15234-0.058594-0.30078-0.16797-0.41016-0.10938-0.10547-0.25391-0.16797-0.40625-0.16797zm0.57812 1.1562h8.7656v8.8281h-8.7656z"/>
  <path d="m65.844 76.387c-0.15234 0-0.29688 0.0625-0.40625 0.17188-0.10938 0.10547-0.16797 0.25391-0.16797 0.40625v9.9844c0 0.15234 0.058594 0.30078 0.16797 0.40625 0.10938 0.10938 0.25391 0.17188 0.40625 0.17188h9.9219c0.15234 0 0.29688-0.0625 0.40625-0.17188 0.10938-0.10547 0.16797-0.25391 0.16797-0.40625v-9.9844c0-0.15234-0.058594-0.30078-0.16797-0.40625-0.10938-0.10938-0.25391-0.17188-0.40625-0.17188zm0.57812 1.1562h8.7656v8.8281h-8.7656z"/>
 </g>
</svg>
