<?xml version="1.0" encoding="UTF-8"?>
<svg fill="#2E75B6" width="100pt" height="100pt" version="1.1" viewBox="0 0 100 100" xmlns="http://www.w3.org/2000/svg">
 <g>
  <path d="m49.953 40.168c3.1562 0 5.7266-2.5703 5.7266-5.7266s-2.5664-5.7266-5.7266-5.7266c-3.1562 0-5.7266 2.5703-5.7266 5.7266s2.5703 5.7266 5.7266 5.7266zm0-9.4531c2.0547 0 3.7266 1.6719 3.7266 3.7266 0 2.0547-1.6719 3.7266-3.7266 3.7266s-3.7266-1.6719-3.7266-3.7266c0-2.0547 1.6719-3.7266 3.7266-3.7266z"/>
  <path d="m11 90h78c0.55469 0 1-0.44531 1-1v-49.832c0-0.55469-0.44531-1-1-1h-20.172c-0.027344 0-0.050781 0.015625-0.078125 0.015625v-6.7148l1.7734 1.0312c0.15625 0.09375 0.33203 0.13672 0.50391 0.13672 0.34375 0 0.67969-0.17969 0.86328-0.49609 0.27734-0.47656 0.11719-1.0898-0.35938-1.3672l-20.406-11.871v-2.3945h5.3789c0.55469 0 1-0.44531 1-1v-4.5078c0-0.55469-0.44531-1-1-1h-6.3789c-0.55469 0-1 0.44531-1 1v7.7578l-20.656 12.016c-0.47656 0.27734-0.64062 0.89062-0.35938 1.3672 0.27734 0.47656 0.89062 0.63672 1.3672 0.35938l1.7734-1.0312v6.6953h-20.25c-0.55469 0-1 0.44531-1 1v49.836c0 0.55469 0.44531 1 1 1zm60.871-5.9062v3.9062h-43.836v-3.9062zm-12.996-2h-7.7656v-18.512h7.7656zm-9.7656 0h-7.9844v-18.512h7.9844zm19.719-41.926h19.172v47.832h-14.129v-4.9062c0-0.55469-0.44531-1-1-1h-4.1211v-41.941c0.027344 0 0.050781 0.015625 0.078125 0.015625zm-13.324-25.66h-4.3789v-2.5078h4.3789zm-5.5039 6.0547l16.75 9.7422v51.785h-5.875v-19.512c0-0.55469-0.44531-1-1-1h-19.75c-0.55469 0-1 0.44531-1 1v19.512l-5.875 0.003906v-51.785zm-38 19.605h19.25v41.926h-4.2148c-0.55469 0-1 0.44531-1 1v4.9062h-14.035z"/>
  <path d="m75.441 57.41h6.1641c0.55469 0 1-0.44531 1-1l0.003906-10.078c0-0.55469-0.44531-1-1-1h-6.1641c-0.55469 0-1 0.44531-1 1v10.078c-0.003906 0.55469 0.44531 1 0.99609 1zm1-10.078h4.1641v8.0781h-4.1641z"/>
  <path d="m81.648 61.543h-6.168c-0.55469 0-1 0.44531-1 1l0.003906 10.078c0 0.55469 0.44531 1 1 1h6.168c0.55469 0 1-0.44531 1-1l-0.003906-10.078c0-0.55469-0.44531-1-1-1zm-1 10.078h-4.168v-8.0781h4.168z"/>
  <path d="m18.18 57.41h6.1641c0.55469 0 1-0.44531 1-1l0.003906-10.078c0-0.55469-0.44531-1-1-1h-6.168c-0.55469 0-1 0.44531-1 1v10.078c0 0.55469 0.44922 1 1 1zm1-10.078h4.1641v8.0781h-4.1641z"/>
  <path d="m40.125 57.41h6.168c0.55469 0 1-0.44531 1-1v-10.078c0-0.55469-0.44531-1-1-1h-6.168c-0.55469 0-1 0.44531-1 1v10.078c0 0.55469 0.44531 1 1 1zm1-10.078h4.168v8.0781h-4.168z"/>
  <path d="m52.938 46.332v10.078c0 0.55469 0.44531 1 1 1h6.168c0.55469 0 1-0.44531 1-1v-10.078c0-0.55469-0.44531-1-1-1h-6.168c-0.55078 0-1 0.44922-1 1zm2 1h4.168v8.0781h-4.168z"/>
  <path d="m24.387 61.543h-6.168c-0.55469 0-1 0.44531-1 1l0.003906 10.078c0 0.55469 0.44531 1 1 1h6.168c0.55469 0 1-0.44531 1-1l-0.003906-10.078c0-0.55469-0.44531-1-1-1zm-1 10.078h-4.168v-8.0781h4.168z"/>
 </g>
</svg>
