<?xml version="1.0" encoding="UTF-8"?>
<svg fill="#F5D327" width="100pt" height="100pt" version="1.1" viewBox="0 0 100 100" xmlns="http://www.w3.org/2000/svg">
 <g>
  <path d="m10.887 90h78c0.55469 0 1-0.44922 1-1s-0.44531-1-1-1h-4.25v-47.043c0-0.55078-0.44531-1-1-1h-12.664v-5.457c0-0.35547-0.19141-0.6875-0.5-0.86719l-19.461-11.211v-3.7969h8.375c0.55469 0 1-0.44922 1-1v-6.625c0-0.55078-0.44531-1-1-1h-9.375c-0.55469 0-1 0.44922-1 1v11.418l-19.707 11.215c-0.3125 0.17969-0.50781 0.51172-0.50781 0.86719v5.457h-12.66c-0.55469 0-1 0.44922-1 1v47.043h-4.25c-0.55469 0-1 0.44922-1 1s0.44922 1 1 1zm49.25-2h-9.125v-21.164h9.125zm-11.125 0h-9.375v-21.164h9.375zm9.375-71.375h-7.375v-4.625h7.375zm-41.25 25.332h12.66c0.55469 0 1-0.44922 1-1v-5.875l19.211-10.93 18.965 10.926v5.8789c0 0.55078 0.44531 1 1 1h12.664v46.043h-20.5v-22.164c0-0.55078-0.44531-1-1-1h-22.5c-0.55469 0-1 0.44922-1 1v22.164h-20.5z"/>
  <path d="m32.219 64.848h-8.8711c-0.55469 0-1 0.44922-1 1v9.2422c0 0.55078 0.44531 1 1 1h8.8711c0.55469 0 1-0.44922 1-1v-9.2422c0-0.55078-0.44531-1-1-1zm-1 9.2422h-6.8711v-7.2422h6.8711z"/>
  <path d="m67.68 76.09h8.8711c0.55469 0 1-0.44922 1-1v-9.2422c0-0.55078-0.44531-1-1-1h-8.8711c-0.55469 0-1 0.44922-1 1v9.2422c0 0.55469 0.44922 1 1 1zm1-9.2422h6.8711v7.2422h-6.8711z"/>
  <path d="m49.887 54.098c5.3359 0 9.6797-4.3438 9.6797-9.6797 0-5.3359-4.3438-9.6797-9.6797-9.6797-5.3359 0-9.6797 4.3438-9.6797 9.6797 0 5.3359 4.3438 9.6797 9.6797 9.6797zm0-17.359c4.2344 0 7.6797 3.4453 7.6797 7.6797s-3.4453 7.6797-7.6797 7.6797-7.6797-3.4453-7.6797-7.6797 3.4453-7.6797 7.6797-7.6797z"/>
  <path d="m50 45.871h4.6992c0.55469 0 1-0.44922 1-1 0-0.55078-0.44531-1-1-1h-3.6992v-3.9961c0-0.55078-0.44531-1-1-1s-1 0.44922-1 1v4.9961c0 0.55469 0.44531 1 1 1z"/>
 </g>
</svg>
