<svg xmlns="http://www.w3.org/2000/svg" xmlns:xlink="http://www.w3.org/1999/xlink" version="1.1" x="0px" y="0px" viewBox="0 0 100 100" enable-background="new 0 0 100 100" xml:space="preserve"><g><path d="M82.396,39.226H63.325v-6.723h3.06L51.658,20.26L36.932,32.503h3.059v6.723H20.92L10.566,49.579h2.975V80h26.45h23.333   h26.45V49.579h2.975L82.396,39.226z M39.991,78h-24.45V49.579h24.45V78z M39.991,47.579H15.395l6.354-6.354h18.243V47.579z    M51.658,22.861l9.192,7.642H42.466L51.658,22.861z M50.658,69.023c-0.349-0.313-0.804-0.51-1.309-0.51   c-1.084,0-1.966,0.882-1.966,1.967c0,1.084,0.882,1.966,1.966,1.966c0.504,0,0.96-0.196,1.309-0.509V78h-4.553V64.749   c0-2.462,1.967-4.513,4.553-4.941V69.023z M57.211,78h-4.553v-6.062c0.348,0.313,0.804,0.509,1.308,0.509   c1.084,0,1.967-0.882,1.967-1.966c0-1.085-0.882-1.967-1.967-1.967c-0.504,0-0.96,0.196-1.308,0.509v-9.215   c2.585,0.428,4.553,2.479,4.553,4.941V78z M61.325,78h-2.114V64.749c0-3.875-3.388-7.027-7.552-7.027   c-4.165,0-7.553,3.152-7.553,7.027V78h-2.114V32.503h19.333V78z M87.775,78h-24.45V49.579h24.45V78z M63.325,47.579v-6.354h18.244   l6.354,6.354H63.325z"></path><path d="M51.658,34.312c-2.809,0-5.094,2.285-5.094,5.094s2.285,5.094,5.094,5.094s5.094-2.285,5.094-5.094   S54.467,34.312,51.658,34.312z M54.388,40.83l-1.838-1.838v-1.413h-2v2.241l2.393,2.393c-0.393,0.18-0.825,0.287-1.284,0.287   c-1.706,0-3.094-1.388-3.094-3.094s1.388-3.094,3.094-3.094s3.094,1.388,3.094,3.094C54.752,39.921,54.613,40.401,54.388,40.83z"></path><path d="M36.158,68.141v-7.089v-5.306h-16.63v5.306v7.089v5.306h16.63V68.141z M26.843,71.447h-5.314V68.25h5.314V71.447z    M26.843,66.141h-5.314v-3.089h5.314V66.141z M26.843,60.944h-5.314v-3.198h5.314V60.944z M34.158,71.447h-5.315V68.25h5.315   V71.447z M34.158,66.141h-5.315v-3.089h5.315V66.141z M34.158,60.944h-5.315v-3.198h5.315V60.944z"></path><path d="M83.788,68.141v-7.089v-5.306h-16.63v5.306v7.089v5.306h16.63V68.141z M74.473,71.447h-5.314V68.25h5.314V71.447z    M74.473,66.141h-5.314v-3.089h5.314V66.141z M74.473,60.944h-5.314v-3.198h5.314V60.944z M81.788,71.447h-5.315V68.25h5.315   V71.447z M81.788,66.141h-5.315v-3.089h5.315V66.141z M81.788,60.944h-5.315v-3.198h5.315V60.944z"></path></g></svg>