<svg xmlns="http://www.w3.org/2000/svg" xmlns:xlink="http://www.w3.org/1999/xlink" version="1.1" x="0px" y="0px" viewBox="0 0 96 96" enable-background="new 0 0 96 96" xml:space="preserve"><g><path d="M18.965,62.748h8.939c0.199,0,0.36-0.162,0.36-0.359v-9.113c0-0.197-0.162-0.361-0.36-0.361h-8.939   c-0.198,0-0.36,0.164-0.36,0.361v9.113C18.605,62.586,18.767,62.748,18.965,62.748z M19.326,53.637h8.218v8.391h-8.218V53.637z"></path><rect x="14.469" y="72.41" width="17.935" height="0.551"></rect><path d="M87.851,45.071L77.434,31.729c-0.134-0.17-0.352-0.277-0.568-0.277H48.724v-4.256h6.46c0.396,0,0.721-0.323,0.721-0.72   v-4.196c0-0.397-0.324-0.721-0.721-0.721h-6.342l-0.125-0.881c-0.051-0.354-0.357-0.621-0.715-0.621   c-0.396,0-0.72,0.323-0.72,0.721v10.674H19.14c-0.226,0-0.428,0.099-0.57,0.278L8.155,45.071c-0.174,0.222-0.203,0.505-0.08,0.759   c0.118,0.242,0.378,0.404,0.647,0.404h2.769v28.986c0,0.396,0.323,0.723,0.719,0.723h28.612c0.396,0,0.72-0.326,0.72-0.723V54.158   h12.922v21.063c0,0.396,0.321,0.721,0.719,0.721h28.61c0.397,0,0.721-0.324,0.721-0.721V46.234h2.769c0.269,0,0.528-0.16,0.646-0.4   C88.048,45.588,88.016,45.282,87.851,45.071z M48.362,22.639h6.461v3.477h-6.461V22.639z M48.002,32.682l12.472,12.473H35.531   L48.002,32.682z M34.302,74.859H12.571v-4.35h21.731V74.859z M34.302,69.789H12.571V45.874h21.731V69.789z M9.46,45.154   l9.855-12.623h27.819l-12.62,12.623H9.46z M40.461,74.859h-5.44V53.797h5.44V74.859z M60.983,74.859h-5.44V53.797h5.44V74.859z    M60.983,53.078H35.021v-7.204h25.962V53.078z M83.434,74.859h-21.73v-4.35h21.73V74.859z M83.434,69.789h-21.73V45.874h21.73   V69.789z M61.491,45.154L48.872,32.531h27.82l9.852,12.623H61.491z"></path><rect x="63.603" y="72.41" width="17.934" height="0.551"></rect><path d="M68.098,62.748h8.942c0.199,0,0.359-0.162,0.359-0.359v-9.113c0-0.197-0.16-0.361-0.359-0.361h-8.942   c-0.199,0-0.36,0.164-0.36,0.361v9.113C67.737,62.586,67.898,62.748,68.098,62.748z M68.458,53.637h8.222v8.391h-8.222V53.637z"></path></g></svg>