<?xml version="1.0" encoding="UTF-8"?>
<svg fill="#F09000" width="100pt" height="100pt" version="1.1" viewBox="0 0 100 100" xmlns="http://www.w3.org/2000/svg">
 <path d="m90.043 33.902h-25.602v-1.2773c0.66797 0.074219 1.3594-0.10938 1.9062-0.58203 1.0469-0.89844 1.1641-2.4805 0.26562-3.5234l-13.934-16.207c-0.6875-0.79688-1.6641-1.2539-2.6797-1.2539s-1.9922 0.45703-2.6797 1.2539l-13.938 16.203c-0.89844 1.0469-0.78125 2.625 0.26563 3.5273 0.47266 0.40625 1.0508 0.60547 1.6289 0.60547 0.09375 0 0.1875-0.019532 0.28125-0.03125v1.2812l-25.602 0.003906c-1.4844 0-2.6914 1.207-2.6914 2.6914v49.66c0 1.4844 1.207 2.6914 2.6914 2.6914h80.086c1.4844 0 2.6914-1.207 2.6914-2.6914v-49.664c0-1.4844-1.207-2.6875-2.6914-2.6875zm-80.086 53.238c-0.49219 0-0.89062-0.39844-0.89062-0.89062v-49.66c0-0.49219 0.39844-0.89062 0.89062-0.89062h25.602v50.801c0 0.22656 0.03125 0.4375 0.078125 0.64062zm39.543 0h-6.8555c-0.29297-0.19531-0.49609-0.51172-0.49609-0.89062v-14.441h7.3516zm8.3516-0.88672c0 0.37891-0.20312 0.69531-0.49609 0.89062h-6.8555v-15.336h7.3516zm1.1797-16.262c0 0.23047-0.1875 0.41797-0.41797 0.41797h-17.074c-0.03125 0-0.058593-0.011718-0.089843-0.019531-0.26953-0.046875-0.48047-0.26953-0.48047-0.55078v-0.6875c0-0.3125 0.25781-0.57031 0.57031-0.57031h16.922c0.31641 0 0.57031 0.25781 0.57031 0.57031zm3.6133-36.09v52.598c0 0.42969-0.22266 0.64062-0.27734 0.64062h-3.2852c0.10547-0.27734 0.17188-0.57422 0.17188-0.89062v-14.562c0.6875-0.26172 1.1797-0.92188 1.1797-1.6953v-0.83984c0-1.0859-0.88281-1.9688-1.9727-1.9688h-7.9609v-0.003906l-0.5-0.003907h-0.5v0.003907h-7.9609c-1.0859 0-1.9727 0.88281-1.9727 1.9688v0.6875c0 0.80469 0.48828 1.4961 1.1797 1.8047v14.609c0 0.3125 0.066406 0.61328 0.17188 0.89062h-3.2852c-0.054687 0-0.27734-0.21484-0.27734-0.64062v-54.934l0.78125-0.91016 11.863-13.793 11.371 13.219 1.2734 1.4805zm28.289 52.352c0 0.49219-0.39844 0.89062-0.89062 0.89062l-25.68-0.003906c0.046875-0.20703 0.078125-0.41797 0.078125-0.64062v-50.801h25.602c0.49219 0 0.89062 0.39844 0.89062 0.89062zm-44.199-45.137h-5.4688c-1.2109 0-2.1992 0.98828-2.1992 2.1992v3.7695c0 1.2109 0.98828 2.1992 2.1992 2.1992h5.4688c1.2109 0 2.1992-0.98828 2.1992-2.1992v-3.7695c0-1.2109-0.98438-2.1992-2.1992-2.1992zm-3.2344 6.7695h-2.2344c-0.44141 0-0.80078-0.35938-0.80078-0.80078v-3.7695c0-0.44141 0.35938-0.80078 0.80078-0.80078h2.2344zm4.0352-0.80078c0 0.44141-0.35938 0.80078-0.80078 0.80078h-2.2344v-5.3672h2.2344c0.44141 0 0.80078 0.35938 0.80078 0.80078zm11.199-5.9688h-5.4688c-1.2109 0-2.1992 0.98828-2.1992 2.1992v3.7695c0 1.2109 0.98828 2.1992 2.1992 2.1992h5.4688c1.2109 0 2.1992-0.98828 2.1992-2.1992v-3.7695c0-1.2109-0.98438-2.1992-2.1992-2.1992zm-3.2344 6.7695h-2.2344c-0.44141 0-0.80078-0.35938-0.80078-0.80078v-3.7695c0-0.44141 0.35938-0.80078 0.80078-0.80078h2.2344zm4.0352-0.80078c0 0.44141-0.35938 0.80078-0.80078 0.80078h-2.2344v-5.3672h2.2344c0.44141 0 0.80078 0.35938 0.80078 0.80078zm-12.801 7.6133h-5.4688c-1.2109 0-2.1992 0.98828-2.1992 2.1992v3.7695c0 1.2109 0.98828 2.1992 2.1992 2.1992h5.4688c1.2109 0 2.1992-0.98828 2.1992-2.1992v-3.7695c0-1.2109-0.98438-2.1992-2.1992-2.1992zm-3.2344 6.7695h-2.2344c-0.44141 0-0.80078-0.35938-0.80078-0.80078v-3.7695c0-0.44141 0.35938-0.80078 0.80078-0.80078h2.2344zm4.0352-0.80078c0 0.44141-0.35938 0.80078-0.80078 0.80078h-2.2344v-5.3672h2.2344c0.44141 0 0.80078 0.35938 0.80078 0.80078zm11.199-5.9688h-5.4688c-1.2109 0-2.1992 0.98828-2.1992 2.1992v3.7695c0 1.2109 0.98828 2.1992 2.1992 2.1992h5.4688c1.2109 0 2.1992-0.98828 2.1992-2.1992v-3.7695c0-1.2109-0.98438-2.1992-2.1992-2.1992zm-3.2344 6.7695h-2.2344c-0.44141 0-0.80078-0.35938-0.80078-0.80078v-3.7695c0-0.44141 0.35938-0.80078 0.80078-0.80078h2.2344zm4.0352-0.80078c0 0.44141-0.35938 0.80078-0.80078 0.80078h-2.2344v-5.3672h2.2344c0.44141 0 0.80078 0.35938 0.80078 0.80078zm-28.598-19.383h-17.371c-1.2109 0-2.1992 0.98828-2.1992 2.1992v5.0273c0 1.2109 0.98828 2.1992 2.1992 2.1992h17.371c1.2109 0 2.1992-0.98828 2.1992-2.1992v-5.0273c0-1.2109-0.98828-2.1992-2.1992-2.1992zm-12.691 8.0273h-4.6836c-0.44141 0-0.80078-0.35938-0.80078-0.80078l0.003906-5.0273c0-0.44141 0.35938-0.80078 0.80078-0.80078h4.6836zm7.0078 0h-6.0078v-6.625h6.0078zm6.4805-0.80078c0 0.44141-0.35938 0.80078-0.80078 0.80078h-4.6836v-6.625h4.6836c0.44141 0 0.80078 0.35938 0.80078 0.80078zm-0.79688 7.2734h-17.371c-1.2109 0-2.1992 0.98828-2.1992 2.1992v5.0273c0 1.2109 0.98828 2.1992 2.1992 2.1992h17.371c1.2109 0 2.1992-0.98828 2.1992-2.1992v-5.0273c0-1.2109-0.98828-2.1992-2.1992-2.1992zm-12.691 8.0273h-4.6836c-0.44141 0-0.80078-0.35938-0.80078-0.80078l0.003906-5.0273c0-0.44141 0.35938-0.80078 0.80078-0.80078h4.6836zm7.0078 0h-6.0078v-6.625h6.0078zm6.4805-0.80078c0 0.44141-0.35938 0.80078-0.80078 0.80078h-4.6836v-6.625h4.6836c0.44141 0 0.80078 0.35938 0.80078 0.80078zm-0.79688 7.2734h-17.371c-1.2109 0-2.1992 0.98828-2.1992 2.1992v5.0273c0 1.2109 0.98828 2.1992 2.1992 2.1992h17.371c1.2109 0 2.1992-0.98828 2.1992-2.1992v-5.0273c0-1.2109-0.98828-2.1992-2.1992-2.1992zm-12.691 8.0273h-4.6836c-0.44141 0-0.80078-0.35938-0.80078-0.80078l0.003906-5.0273c0-0.44141 0.35938-0.80078 0.80078-0.80078h4.6836zm7.0078 0h-6.0078v-6.625h6.0078zm6.4805-0.80078c0 0.44141-0.35938 0.80078-0.80078 0.80078h-4.6836v-6.625h4.6836c0.44141 0 0.80078 0.35938 0.80078 0.80078zm54.703-36.227h-17.371c-1.2109 0-2.1992 0.98828-2.1992 2.1992v5.0273c0 1.2109 0.98828 2.1992 2.1992 2.1992h17.371c1.2109 0 2.1992-0.98828 2.1992-2.1992v-5.0273c0-1.2109-0.98828-2.1992-2.1992-2.1992zm-12.691 8.0273h-4.6836c-0.44141 0-0.80078-0.35938-0.80078-0.80078l0.003906-5.0273c0-0.44141 0.35938-0.80078 0.80078-0.80078h4.6836zm7.0078 0h-6.0078v-6.625h6.0078zm6.4805-0.80078c0 0.44141-0.35938 0.80078-0.80078 0.80078h-4.6836v-6.625h4.6836c0.44141 0 0.80078 0.35938 0.80078 0.80078zm-0.79688 7.2734h-17.371c-1.2109 0-2.1992 0.98828-2.1992 2.1992v5.0273c0 1.2109 0.98828 2.1992 2.1992 2.1992h17.371c1.2109 0 2.1992-0.98828 2.1992-2.1992v-5.0273c0-1.2109-0.98828-2.1992-2.1992-2.1992zm-12.691 8.0273h-4.6836c-0.44141 0-0.80078-0.35938-0.80078-0.80078l0.003906-5.0273c0-0.44141 0.35938-0.80078 0.80078-0.80078h4.6836zm7.0078 0h-6.0078v-6.625h6.0078zm6.4805-0.80078c0 0.44141-0.35938 0.80078-0.80078 0.80078h-4.6836v-6.625h4.6836c0.44141 0 0.80078 0.35938 0.80078 0.80078zm-0.79688 7.2734h-17.371c-1.2109 0-2.1992 0.98828-2.1992 2.1992v5.0273c0 1.2109 0.98828 2.1992 2.1992 2.1992h17.371c1.2109 0 2.1992-0.98828 2.1992-2.1992v-5.0273c0-1.2109-0.98828-2.1992-2.1992-2.1992zm-12.691 8.0273h-4.6836c-0.44141 0-0.80078-0.35938-0.80078-0.80078l0.003906-5.0273c0-0.44141 0.35938-0.80078 0.80078-0.80078h4.6836zm7.0078 0h-6.0078v-6.625h6.0078zm6.4805-0.80078c0 0.44141-0.35938 0.80078-0.80078 0.80078h-4.6836v-6.625h4.6836c0.44141 0 0.80078 0.35938 0.80078 0.80078zm-34.816 3.5078v-4.1602c0-0.44141 0.35938-0.80078 0.80078-0.80078s0.80078 0.35938 0.80078 0.80078v4.1641c0 0.44141-0.35938 0.80078-0.80078 0.80078-0.44141-0.003907-0.80078-0.36328-0.80078-0.80469zm-6.4375 0v-4.1602c0-0.44141 0.35938-0.80078 0.80078-0.80078s0.80078 0.35938 0.80078 0.80078v4.1641c0 0.44141-0.35938 0.80078-0.80078 0.80078-0.44141-0.003907-0.80078-0.36328-0.80078-0.80469zm8.8828-46.219c0.22656-0.28125 0.42969-0.58203 0.60156-0.89844 0.48828-0.89062 0.76562-1.9102 0.76562-2.9961 0-0.23438-0.015625-0.46484-0.039063-0.69531-0.34766-3.1172-2.9883-5.5508-6.1914-5.5508-3.3047 0-6.0078 2.5938-6.2109 5.8555-0.007812 0.12891-0.019531 0.25781-0.019531 0.38672 0 1.0859 0.27734 2.1055 0.76562 2.9961 0.17578 0.32031 0.37891 0.61719 0.60156 0.89844 0.26172 0.32812 0.55469 0.62891 0.87891 0.89844 1.082 0.90234 2.4688 1.4492 3.9844 1.4492s2.9023-0.54688 3.9844-1.4492c0.32031-0.26562 0.61328-0.56641 0.87891-0.89453zm-2.0195 0c-0.67969 0.5-1.4922 0.8125-2.375 0.89844h-0.93359c-0.88281-0.085938-1.6953-0.39844-2.375-0.89844-0.34766-0.25781-0.65234-0.5625-0.92188-0.89844-0.65625-0.82812-1.0625-1.8594-1.0625-2.9961 0-0.14453 0.03125-0.28125 0.042969-0.42188 0.21875-2.4688 2.2695-4.418 4.7891-4.418 2.4375 0 4.4414 1.8281 4.7656 4.1836 0.03125 0.21875 0.066406 0.43359 0.066406 0.66016 0 1.1367-0.41016 2.168-1.0625 2.9961-0.28125 0.33203-0.58594 0.63672-0.93359 0.89453zm0.68359-3.8086c0 0.38672-0.3125 0.69922-0.69922 0.69922h-2.7422c-0.38672 0-0.69922-0.3125-0.69922-0.69922l-0.003907-0.61328v-3.0938c0-0.38672 0.3125-0.69922 0.69922-0.69922s0.69922 0.3125 0.69922 0.69922v3.0078h2.043c0.003906 0 0.007812 0.003906 0.011719 0.003906 0.38281 0.003906 0.69141 0.3125 0.69141 0.69531z"/>
</svg>
