<svg xmlns:dc="http://purl.org/dc/elements/1.1/" xmlns:cc="http://creativecommons.org/ns#" xmlns:rdf="http://www.w3.org/1999/02/22-rdf-syntax-ns#" xmlns:svg="http://www.w3.org/2000/svg" xmlns="http://www.w3.org/2000/svg" xmlns:sodipodi="http://sodipodi.sourceforge.net/DTD/sodipodi-0.dtd" xmlns:inkscape="http://www.inkscape.org/namespaces/inkscape" viewBox="0 0 100 56.000002" version="1.1" x="0px" y="0px"><g transform="translate(0,-996.3622)"><path style="color:#000000;font-style:normal;font-variant:normal;font-weight:normal;font-stretch:normal;font-size:medium;line-height:normal;font-family:sans-serif;text-indent:0;text-align:start;text-decoration:none;text-decoration-line:none;text-decoration-style:solid;text-decoration-color:#000000;letter-spacing:normal;word-spacing:normal;text-transform:none;direction:ltr;block-progression:tb;writing-mode:lr-tb;baseline-shift:baseline;text-anchor:start;white-space:normal;clip-rule:nonzero;display:inline;overflow:visible;visibility:visible;opacity:1;isolation:auto;mix-blend-mode:normal;color-interpolation:sRGB;color-interpolation-filters:linearRGB;solid-color:#000000;solid-opacity:1;fill:#000000;fill-opacity:1;fill-rule:evenodd;stroke:none;stroke-width:1.5;stroke-linecap:butt;stroke-linejoin:miter;stroke-miterlimit:4;stroke-dasharray:none;stroke-dashoffset:0;stroke-opacity:1;color-rendering:auto;image-rendering:auto;shape-rendering:auto;text-rendering:auto;enable-background:accumulate" d="m 49.2999,996.4012 0,11.6661 -7.2826,5.4624 -41.94350005,-0.056 0,3.8319 3.81260005,0 0,30.9117 -3.886400049999985,0 c 0,1.3686 0,2.7373 0,4.1059 L 99.9244,1052.3232 l 0,-4.1059 -4.3097,0 0,-30.9117 4.3853,0 0,-3.8319 -42.1807,-0.01 -7.1701,-5.378 0,-3.5051 11.3885,0 0,-8.1786 z m 1.3493,1.3494 10.0391,0 0,5.4799 -10.0391,0 z m -0.6853,11.5062 19.5654,14.674 -39.1324,0 z m 0,1.5531 -0.3953,0.2882 -16.1305,11.6995 33.0534,0 z m 0,1.6674 12.3672,8.9709 -24.7361,0 z m 9.6545,2.3349 39.0323,0.011 0,1.1333 c -12.5523,-0.013 -37.6566,-0.1125 -37.6566,-0.1125 z m -58.1953,0.012 38.7986,0.051 -1.5004,1.1262 c 0,0 -24.8709,-0.046 -37.2982,-0.046 z m 61.3771,2.3754 c 0,0 20.9948,0.1054 31.4651,0.1054 l 0,6.6255 -22.4889,0 z m -57.5645001,0.1072 31.6900001,0.042 -8.7777,6.5815 -22.9123001,0 z m 0,7.973 27.8599001,0 0,20.24 -2.6987,0 c 0,0.899 0,1.798 0,2.6969 l -25.1612001,0 z m 29.2092001,0 31.0347,0 0,20.24 -9.4454,0 0,-10.12 -0.013,0 c -0.057,-2.0983 -1.1868,-4.0276 -3.0096,-5.0863 -0.9388,-0.5454 -1.9878,-0.8203 -3.0377,-0.8223 -1.0501,0 -2.1005,0.2682 -3.0413,0.81 -1.8335,1.0557 -2.9753,2.9915 -3.0325,5.0986 l -0.011,0 0,10.12 -9.4454,0 z m 32.384,0 27.4364,0 0,22.9369 -24.7377,0 0,-2.6969 -2.6987,0 z m -56.7828,3.8038 0,6.7045 6.7151,0 0,-6.7045 z m 11.5256,0 0,6.7045 6.7133,0 0,-6.7045 z m 49.8691,0 0,6.7045 6.7133,0 0,-6.7045 z m 11.5239,0 0,6.7045 6.715,0 0,-6.7045 z m -43.8077,0.4111 c -0.484,-0.016 -0.9729,0.099 -1.409,0.3479 -0.8534,0.4869 -1.3765,1.3988 -1.3986,2.3859 l 0,0 0,2.465 1.3494,0 2.9042,0 1.193,0 0,-2.465 -0.01,0 c -0.021,-0.9208 -0.4746,-1.7841 -1.2456,-2.2928 -0.4194,-0.2766 -0.8988,-0.425 -1.3828,-0.441 z m 21.7352,0.3426 c -0.4758,0 -0.9526,0.1235 -1.3757,0.376 -0.8277,0.4939 -1.3313,1.3913 -1.3529,2.3596 l 0,0 0,2.465 1.3494,0 2.9042,0 1.193,0 0,-2.465 -0.01,0 c -0.021,-0.9622 -0.5169,-1.8546 -1.337,-2.3508 -0.4216,-0.2551 -0.8965,-0.3833 -1.3722,-0.3848 z m -49.4967,0.5956 4.0164,0 0,4.0059 -4.0164,0 z m 11.5255,0 4.0147,0 0,4.0059 -4.0147,0 z m 49.8692,0 4.0146,0 0,4.0059 -4.0146,0 z m 11.5238,0 4.0163,0 0,4.0059 -4.0163,0 z m -45.201,0.4076 c 0.2372,0.01 0.4719,0.082 0.6835,0.2214 0.4234,0.2793 0.678,0.7858 0.6448,1.3248 l 0,0 0,0.9575 -2.7479,0 0,-1.0507 c -10e-5,-0.5401 0.2839,-1.029 0.7221,-1.279 0.2192,-0.125 0.4586,-0.1822 0.6957,-0.174 z m 10.8579,0 c 0.8161,0 1.6321,0.2148 2.3632,0.6396 1.462,0.8492 2.3577,2.4117 2.3508,4.1024 l 0,9.9373 -9.4453,0 0,-9.9548 c -6e-4,-1.6908 0.9013,-3.25 2.3665,-4.0937 0.7327,-0.4219 1.5489,-0.6323 2.3648,-0.6308 z m 10.9178,0.3426 c 0.2332,6e-4 0.4659,0.065 0.6781,0.1933 0.4244,0.2567 0.6937,0.7404 0.6905,1.2703 l 0,1.0419 -2.7478,0 0,-1.0507 c -2e-4,-0.5299 0.2735,-1.011 0.6992,-1.265 0.2128,-0.127 0.4466,-0.1903 0.68,-0.1898 z m -50.8426,6.5271 0,6.7045 6.7151,0 0,-6.7045 z m 11.5256,0 0,6.7045 6.7133,0 0,-6.7045 z m 49.8691,0 0,6.7045 6.7133,0 0,-6.7045 z m 11.5239,0 0,6.7045 6.715,0 0,-6.7045 z m -22.0725,0.752 c -0.4758,0 -0.9526,0.1252 -1.3757,0.3777 -0.8277,0.4939 -1.3313,1.3896 -1.3529,2.3578 l 0,0 0,2.465 1.3494,0 2.9042,0 1.193,0 0,-2.465 -0.01,0 c -0.022,-0.9616 -0.5174,-1.8548 -1.337,-2.3508 -0.4216,-0.255 -0.8965,-0.3833 -1.3722,-0.3847 z m -21.7668,0 c -0.4807,-0.01 -0.9643,0.1098 -1.3951,0.3602 -0.8428,0.4898 -1.3589,1.3943 -1.3809,2.3736 l 0,0 0,2.465 1.3494,0 2.9042,0 1.193,0 0,-2.465 -0.01,0 c -0.021,-0.9376 -0.4916,-1.8135 -1.2826,-2.3174 -0.4204,-0.2678 -0.8986,-0.4064 -1.3792,-0.4164 z m -27.7299,0.5956 4.0164,0 0,4.0058 -4.0164,0 z m 11.5255,0 4.0147,0 0,4.0058 -4.0147,0 z m 49.8692,0 4.0146,0 0,4.0058 -4.0146,0 z m 11.5238,0 4.0163,0 0,4.0058 -4.0163,0 z m -23.4253,0.7484 c 0.2332,6e-4 0.4659,0.065 0.6781,0.1933 0.4244,0.2568 0.6937,0.7404 0.6905,1.2703 l 0,1.0418 -2.7478,0 0,-1.0506 c -2e-4,-0.5299 0.2735,-1.011 0.6992,-1.265 0.2128,-0.127 0.4466,-0.1903 0.68,-0.1898 z m -21.7914,0 c 0.2354,0 0.4697,0.074 0.6817,0.2091 0.4238,0.2701 0.6849,0.7682 0.6641,1.3037 l 0,0.9909 -2.7479,0 0,-1.0507 c -1e-4,-0.536 0.2803,-1.0203 0.7133,-1.272 0.2165,-0.1258 0.4533,-0.1857 0.6888,-0.181 z m -7.3511,7.0594 36.432,0 0,1.3476 -36.432,0 z m -30.3969001,2.697 97.2258001,0 0,1.4073 -97.2258001,0 z"></path></g></svg>