<?xml version="1.0" encoding="UTF-8"?>
<svg fill="#1871B9" width="100pt" height="100pt" version="1.1" viewBox="0 0 100 100" xmlns="http://www.w3.org/2000/svg">
 <g>
  <path d="m82.395 39.227h-19.07v-6.7227h3.0586l-14.727-12.242-14.723 12.242h3.0586v6.7227h-19.07l-10.355 10.352h2.9766l-0.003907 30.422h76.23l0.003907-30.422h2.9766zm-42.402 38.773h-24.449l-0.003907-28.422h24.449zm0-30.422h-24.598l6.3555-6.3555h18.242zm11.664-24.719l9.1914 7.6406-18.383 0.003906zm-1 46.164c-0.34766-0.3125-0.80469-0.51172-1.3086-0.51172-1.0859 0-1.9648 0.88281-1.9648 1.9688 0 1.0859 0.88281 1.9648 1.9648 1.9648 0.50391 0 0.96094-0.19531 1.3086-0.50781v6.0625h-4.5547l0.003907-13.25c0-2.4609 1.9688-4.5117 4.5547-4.9414zm6.5547 8.9766h-4.5547v-6.0625c0.34766 0.3125 0.80469 0.50781 1.3086 0.50781 1.0859 0 1.9688-0.88281 1.9688-1.9648 0-1.0859-0.88281-1.9688-1.9688-1.9688-0.50391 0-0.96094 0.19531-1.3086 0.50781v-9.2148c2.5859 0.42969 4.5547 2.4805 4.5547 4.9414zm4.1133 0h-2.1133v-13.25c0-3.875-3.3867-7.0273-7.5508-7.0273-4.1641 0-7.5547 3.1523-7.5547 7.0273v13.25h-2.1133v-45.496h19.332zm26.449 0h-24.449v-28.422h24.449zm-24.449-30.422v-6.3555h18.242l6.3555 6.3555z"/>
  <path d="m51.656 34.312c-2.8086 0-5.0938 2.2852-5.0938 5.0938s2.2852 5.0938 5.0938 5.0938 5.0938-2.2852 5.0938-5.0938c0.003906-2.8086-2.2812-5.0938-5.0938-5.0938zm2.7305 6.5156l-1.8398-1.8398v-1.4141h-2v2.2422l2.3945 2.3945c-0.39453 0.17969-0.82422 0.28516-1.2852 0.28516-1.707 0-3.0938-1.3867-3.0938-3.0938 0-1.707 1.3867-3.0938 3.0938-3.0938s3.0938 1.3867 3.0938 3.0938c0.003906 0.51953-0.13672 1-0.36328 1.4258z"/>
  <path d="m36.156 68.141v-12.395h-16.629v17.699h16.629zm-9.3125 3.3047h-5.3125l-0.003906-3.1953h5.3125zm0-5.3047h-5.3125v-3.0898h5.3125zm0-5.1953h-5.3125v-3.1992h5.3125zm7.3125 10.5h-5.3164l0.003906-3.1953h5.3164zm0-5.3047h-5.3164v-3.0898h5.3164zm0-5.1953h-5.3164v-3.1992h5.3164z"/>
  <path d="m83.789 68.141v-12.395h-16.629v17.699h16.629zm-9.3164 3.3047h-5.3125v-3.1953h5.3125zm0-5.3047h-5.3125v-3.0898h5.3125zm0-5.1953h-5.3125v-3.1992h5.3125zm7.3164 10.5h-5.3164v-3.1953h5.3164zm0-5.3047h-5.3164v-3.0898h5.3164zm0-5.1953h-5.3164v-3.1992h5.3164z"/>
 </g>
</svg>
