<svg xmlns:dc="http://purl.org/dc/elements/1.1/" xmlns:cc="http://creativecommons.org/ns#" xmlns:rdf="http://www.w3.org/1999/02/22-rdf-syntax-ns#" xmlns:svg="http://www.w3.org/2000/svg" xmlns="http://www.w3.org/2000/svg" xmlns:sodipodi="http://sodipodi.sourceforge.net/DTD/sodipodi-0.dtd" xmlns:inkscape="http://www.inkscape.org/namespaces/inkscape" version="1.1" x="0px" y="0px" viewBox="0 0 100 100"><g transform="translate(0,-952.36218)"><path style="text-indent:0;text-transform:none;direction:ltr;block-progression:tb;baseline-shift:baseline;color:#000000;enable-background:accumulate;" d="m 49.424106,958.93947 0,18.14842 -19.980212,13.06109 c -0.152326,0.10379 -0.249413,0.28449 -0.252071,0.46904 l 0,15.73108 -11.303999,0 c -0.301607,0 -0.576,0.275 -0.576,0.5772 l 0,38.2813 -10.8722125,0 c -0.586134,0.026 -0.586134,1.1285 0,1.1546 l 87.1207795,0 c 0.58613,-0.026 0.58613,-1.1285 0,-1.1546 l -10.836037,0 0,-38.2813 c 0,-0.3022 -0.274394,-0.5772 -0.576,-0.5772 l -11.304106,0 0,-15.73108 c -0.01152,-0.19108 -0.122457,-0.37363 -0.288,-0.46903 l -19.980105,-13.0611 0,-9.30874 13.463998,0 c 0.301571,-3e-5 0.576,-0.27503 0.576,-0.57728 l 0,-8.26239 c 0,-0.30227 -0.274429,-0.57727 -0.576,-0.57729 -4.640066,0 -9.298239,0 -13.931255,0 -0.538795,0.0183 -0.655512,0.22971 -0.683965,0.57729 z m 1.152037,0.57728 12.887999,0 0,7.10783 -12.887999,0 z m -0.576037,18.54531 19.692142,12.88069 0,15.98355 c 0,0.3023 0.274393,0.5773 0.576,0.5773 l 11.304106,0 0,37.704 -20.952212,0 0,-31.3538 c 0,-0.3023 -0.274394,-0.5773 -0.576,-0.5773 l -20.088177,0 c -0.301606,0 -0.576,0.275 -0.576,0.5773 l 0,31.3538 -20.916141,0 0,-37.704 11.303999,0 c 0.301607,0 0.576,-0.275 0.576,-0.5773 l 0,-15.98355 z m -9.46814,36.36904 8.892141,0 0,30.7765 -8.892141,0 z m 10.044177,0 8.892,0 0,30.7765 -8.892,0 z" fill="#000000" fill-opacity="1" fill-rule="evenodd" stroke="none" marker="none" visibility="visible" display="inline" overflow="visible"></path><path style="text-indent:0;text-transform:none;direction:ltr;block-progression:tb;baseline-shift:baseline;color:#000000;enable-background:accumulate;" d="m 50.007724,988.49582 c -5.33296,0 -9.638432,4.35655 -9.638432,9.65987 0,5.34171 4.305472,9.70081 9.638432,9.70081 5.332961,0 9.638469,-4.3591 9.638469,-9.70081 0,-5.30332 -4.305508,-9.65987 -9.638469,-9.65987 z m 0,1.1557 c 4.708595,0 8.485299,3.82546 8.485299,8.50418 0,4.7222 -3.776704,8.5451 -8.485298,8.5451 -4.708594,0 -8.485299,-3.8229 -8.485299,-8.5451 0,-4.67872 3.776705,-8.50418 8.485299,-8.50418 z" fill="#000000" fill-opacity="1" fill-rule="evenodd" stroke="none" marker="none" visibility="visible" display="inline" overflow="visible"></path><path style="text-indent:0;text-transform:none;direction:ltr;block-progression:tb;baseline-shift:baseline;color:#000000;enable-background:accumulate;" d="m 49.998795,993.15189 a 0.57606277,0.57734347 0 0 0 -0.567636,0.58552 l 0,4.41828 a 0.57606277,0.57734347 0 0 0 0.576566,0.57786 l 4.449296,0 a 0.57657317,0.577855 0 0 0 0,-1.15571 l -3.872729,0 0,-3.84043 a 0.57606277,0.57734347 0 0 0 -0.585496,-0.58552 z" fill="#000000" fill-opacity="1" fill-rule="evenodd" stroke="none" marker="none" visibility="visible" display="inline" overflow="visible"></path><path style="text-indent:0;text-transform:none;direction:ltr;block-progression:tb;baseline-shift:baseline;color:#000000;enable-background:accumulate;" d="m 24.250788,1013.1646 a 0.57606277,0.57734347 0 0 0 -0.576602,0.5778 l 0,9.9821 a 0.57606277,0.57734347 0 0 0 0.576602,0.5778 l 9.959882,0 a 0.57606277,0.57734347 0 0 0 0.576567,-0.5778 l 0,-9.9821 a 0.57606277,0.57734347 0 0 0 -0.576567,-0.5778 l -9.959882,0 z m 0.576567,1.1557 8.806749,0 0,8.8263 -8.806749,0 0,-8.8263 z" fill="#000000" fill-opacity="1" fill-rule="evenodd" stroke="none" marker="none" visibility="visible" display="inline" overflow="visible"></path><path style="text-indent:0;text-transform:none;direction:ltr;block-progression:tb;baseline-shift:baseline;color:#000000;enable-background:accumulate;" d="m 24.250788,1028.7513 a 0.57606277,0.57734347 0 0 0 -0.576602,0.5778 l 0,9.9821 a 0.57606277,0.57734347 0 0 0 0.576602,0.5778 l 9.959882,0 a 0.57606277,0.57734347 0 0 0 0.576567,-0.5778 l 0,-9.9821 a 0.57606277,0.57734347 0 0 0 -0.576567,-0.5778 l -9.959882,0 z m 0.576567,1.1557 8.806749,0 0,8.8263 -8.806749,0 0,-8.8263 z" fill="#000000" fill-opacity="1" fill-rule="evenodd" stroke="none" marker="none" visibility="visible" display="inline" overflow="visible"></path><path style="text-indent:0;text-transform:none;direction:ltr;block-progression:tb;baseline-shift:baseline;color:#000000;enable-background:accumulate;" d="m 65.845598,1013.1646 a 0.57606277,0.57734347 0 0 0 -0.576567,0.5778 l 0,9.9821 a 0.57606277,0.57734347 0 0 0 0.576567,0.5778 l 9.919098,0 a 0.57606277,0.57734347 0 0 0 0.576567,-0.5778 l 0,-9.9821 a 0.57606277,0.57734347 0 0 0 -0.576567,-0.5778 l -9.919098,0 z m 0.576567,1.1557 8.765964,0 0,8.8263 -8.765964,0 0,-8.8263 z" fill="#000000" fill-opacity="1" fill-rule="evenodd" stroke="none" marker="none" visibility="visible" display="inline" overflow="visible"></path><path style="text-indent:0;text-transform:none;direction:ltr;block-progression:tb;baseline-shift:baseline;color:#000000;enable-background:accumulate;" d="m 65.845598,1028.7513 a 0.57606277,0.57734347 0 0 0 -0.576567,0.5778 l 0,9.9821 a 0.57606277,0.57734347 0 0 0 0.576567,0.5778 l 9.919098,0 a 0.57606277,0.57734347 0 0 0 0.576567,-0.5778 l 0,-9.9821 a 0.57606277,0.57734347 0 0 0 -0.576567,-0.5778 l -9.919098,0 z m 0.576567,1.1557 8.765964,0 0,8.8263 -8.765964,0 0,-8.8263 z" fill="#000000" fill-opacity="1" fill-rule="evenodd" stroke="none" marker="none" visibility="visible" display="inline" overflow="visible"></path></g></svg>