<?xml version="1.0" encoding="UTF-8"?>
<svg width="100pt" height="100pt" version="1.1" viewBox="0 0 100 100" xmlns="http://www.w3.org/2000/svg">
 <path d="m2.082 100c0.55469-0.003906 1.082-0.22266 1.4688-0.61328l28.836-28.824c7.1602 6.0938 16.973 8.0352 25.918 5.1289 8.9453-2.9062 15.742-10.246 17.953-19.387 2.2148-9.1406-0.47656-18.777-7.1016-25.449-6.6758-6.6289-16.309-9.3164-25.449-7.1055-9.1445 2.2148-16.48 9.0078-19.391 17.953-2.9062 8.9453-0.96484 18.758 5.1328 25.922l-28.836 28.824c-0.58984 0.59375-0.76562 1.4883-0.44531 2.2617 0.32031 0.77734 1.0742 1.2852 1.9141 1.2891zm47.918-72.918c6.0781 0 11.906 2.4141 16.203 6.7148 4.3008 4.2969 6.7148 10.125 6.7148 16.203s-2.4141 11.906-6.7148 16.203c-4.2969 4.3008-10.125 6.7148-16.203 6.7148s-11.906-2.4141-16.203-6.7148c-4.3008-4.2969-6.7148-10.125-6.7148-16.203-0.03125-6.0859 2.375-11.934 6.6797-16.238 4.3047-4.3047 10.152-6.7109 16.238-6.6797z"/>
</svg>
