<?xml version="1.0" encoding="UTF-8"?>
<svg fill="#1871B9" width="100pt" height="100pt" version="1.1" viewBox="0 0 100 100" xmlns="http://www.w3.org/2000/svg">
 <g>
  <path d="m27.66 53.754c-3.2578 0-5.9062 2.6484-5.9062 5.9062 0 3.2578 2.6484 5.9062 5.9062 5.9062 3.2578 0 5.9062-2.6484 5.9062-5.9062 0.003906-3.2539-2.6445-5.9062-5.9062-5.9062zm0 9.8125c-2.1562 0-3.9062-1.7539-3.9062-3.9062s1.7539-3.9062 3.9062-3.9062c2.1562 0 3.9062 1.7539 3.9062 3.9062 0.003906 2.1562-1.75 3.9062-3.9062 3.9062z"/>
  <path d="m66.426 59.66c0 3.2578 2.6484 5.9062 5.9062 5.9062 3.2578 0 5.9062-2.6484 5.9062-5.9062 0-3.2578-2.6484-5.9062-5.9062-5.9062-3.2578 0-5.9062 2.6523-5.9062 5.9062zm9.8164 0c0 2.1523-1.7539 3.9062-3.9062 3.9062-2.1562 0-3.9062-1.7539-3.9062-3.9062s1.7539-3.9062 3.9062-3.9062c2.1523 0 3.9062 1.7539 3.9062 3.9062z"/>
  <path d="m59.957 55.172h-20.242c-0.55078 0-1 0.44531-1 1s0.44922 1 1 1h20.242c0.55078 0 1-0.44531 1-1s-0.44922-1-1-1z"/>
  <path d="m59.957 47.43h-20.242c-0.55078 0-1 0.44531-1 1 0 0.55469 0.44922 1 1 1h20.242c0.55078 0 1-0.44531 1-1 0-0.55078-0.44922-1-1-1z"/>
  <path d="m59.957 63.297h-20.242c-0.55078 0-1 0.44531-1 1s0.44922 1 1 1h20.242c0.55078 0 1-0.44531 1-1s-0.44922-1-1-1z"/>
  <path d="m84.137 18.445h-6.3945v-2.9727c0-3.0195-2.457-5.4766-5.4805-5.4766l-44.629-0.003906c-3.0195 0-5.4805 2.457-5.4805 5.4766v2.9727h-6.2891c-3.2344 0-5.8633 2.6289-5.8633 5.8594v8.3906c0 0.55469 0.44922 1 1 1h6.875c0.55078 0 1-0.44531 1-1v-12.25h3.2734v27.199c-3.5469 0.82422-6.1953 4.0039-6.1953 7.7969v14.738h-1.5156c-0.55078 0-1 0.44531-1 1v6.3789c0 0.55469 0.44922 1 1 1h7.7148v6.1836c0 2.8945 2.3555 5.2461 5.25 5.2461 2.8945 0 5.25-2.3555 5.25-5.2461v-6.1836h34.598v6.1836c0 2.8945 2.3555 5.2461 5.2461 5.2461 2.8945 0 5.25-2.3555 5.25-5.2461v-6.1836h7.8164c0.55078 0 1-0.44531 1-1v-6.3789c0-0.55469-0.44922-1-1-1l-1.6211 0.007813v-15.535c0-0.15234-0.039062-0.28906-0.097656-0.41797-0.49609-3.2422-2.9414-5.8555-6.1016-6.5898v-27.195h3.3828v12.25c0 0.55469 0.44922 1 1 1h6.875c0.55078 0 1-0.44531 1-1v-8.3906c0-3.2305-2.6289-5.8594-5.8633-5.8594zm-67.262 13.25h-4.875v-7.3906c0-2.1289 1.7344-3.8594 3.8633-3.8594h1.0117zm10.758-19.699h44.633c1.918 0 3.4805 1.5586 3.4805 3.4766v2.9727h-51.59v-2.9727c-0.003906-1.918 1.5586-3.4766 3.4766-3.4766zm3.0156 72.75c0 1.7891-1.457 3.2461-3.25 3.2461-1.7891 0-3.25-1.457-3.25-3.2461v-6.1836h6.4961zm45.094 0c0 1.7891-1.457 3.2461-3.25 3.2461-1.7891 0-3.2461-1.457-3.2461-3.2461v-6.1836h6.4961zm8.8164-8.1836h-69.121v-4.3789h69.121zm-2.6172-21.117v14.738h-63.988v-14.738c0-3.3164 2.6992-6.0156 6.0156-6.0156h6.7188c0.55078 0 1-0.44531 1-1 0-0.55469-0.44922-1-1-1h-6.5352v-26.984h51.59v26.984h-7.4961c-0.55078 0-1 0.44531-1 1 0 0.55469 0.44922 1 1 1h7.6797c3.3164 0 6.0156 2.6992 6.0156 6.0156zm6.0586-23.75h-4.875v-11.25h1.0117c2.1289 0 3.8633 1.7305 3.8633 3.8594z"/>
 </g>
</svg>
