<svg xmlns="http://www.w3.org/2000/svg" xmlns:xlink="http://www.w3.org/1999/xlink" version="1.1" x="0px" y="0px" viewBox="0 0 100 100" style="enable-background:new 0 0 100 100;" xml:space="preserve"><path d="M27.662,53.755c-3.257,0-5.908,2.65-5.908,5.907s2.65,5.906,5.908,5.906c3.258,0,5.908-2.649,5.908-5.906  S30.92,53.755,27.662,53.755z M27.662,63.568c-2.155,0-3.908-1.752-3.908-3.906s1.753-3.907,3.908-3.907s3.908,1.753,3.908,3.907  S29.817,63.568,27.662,63.568z"></path><path d="M66.426,59.662c0,3.257,2.65,5.906,5.908,5.906s5.908-2.649,5.908-5.906s-2.65-5.907-5.908-5.907  S66.426,56.405,66.426,59.662z M76.243,59.662c0,2.154-1.753,3.906-3.908,3.906s-3.908-1.752-3.908-3.906s1.753-3.907,3.908-3.907  S76.243,57.508,76.243,59.662z"></path><path d="M59.956,55.171H39.714c-0.552,0-1,0.447-1,1s0.448,1,1,1h20.242c0.552,0,1-0.447,1-1S60.508,55.171,59.956,55.171z"></path><path d="M59.956,47.431H39.714c-0.552,0-1,0.447-1,1s0.448,1,1,1h20.242c0.552,0,1-0.447,1-1S60.508,47.431,59.956,47.431z"></path><path d="M59.956,63.295H39.714c-0.552,0-1,0.447-1,1s0.448,1,1,1h20.242c0.552,0,1-0.447,1-1S60.508,63.295,59.956,63.295z"></path><path d="M84.137,18.445h-6.395v-2.973c0-3.021-2.458-5.478-5.479-5.478H27.631c-3.021,0-5.479,2.457-5.479,5.478v2.973h-6.289  c-3.233,0-5.863,2.629-5.863,5.861v8.389c0,0.553,0.448,1,1,1h6.876c0.552,0,1-0.447,1-1v-12.25h3.275v27.201  c-3.545,0.826-6.197,4.005-6.197,7.798v14.74h-1.516c-0.552,0-1,0.447-1,1v6.38c0,0.553,0.448,1,1,1h7.713v6.184  c0,2.894,2.354,5.247,5.249,5.247s5.249-2.354,5.249-5.247v-6.184h34.596v6.184c0,2.894,2.354,5.247,5.248,5.247  c2.894,0,5.249-2.354,5.249-5.247v-6.184h7.817c0.552,0,1-0.447,1-1v-6.38c0-0.553-0.448-1-1-1H83.94v-14.74v-0.798  c0-0.151-0.038-0.29-0.098-0.418c-0.497-3.243-2.94-5.855-6.101-6.59V20.445h3.382v12.25c0,0.553,0.448,1,1,1H89  c0.552,0,1-0.447,1-1v-8.389C90,21.074,87.37,18.445,84.137,18.445z M16.876,31.695H12v-7.389c0-2.129,1.733-3.861,3.863-3.861  h1.013V31.695z M27.631,11.995h44.631c1.918,0,3.479,1.56,3.479,3.478v2.973h-51.59v-2.973  C24.152,13.555,25.713,11.995,27.631,11.995z M30.649,84.748c0,1.79-1.458,3.247-3.249,3.247s-3.249-1.457-3.249-3.247v-6.184h6.497  V84.748z M75.742,84.748c0,1.79-1.458,3.247-3.249,3.247s-3.248-1.457-3.248-3.247v-6.184h6.497V84.748z M84.559,76.564h-69.12  v-4.38h69.12V76.564z M81.94,55.444v14.74H17.955v-14.74c0-3.316,2.698-6.014,6.015-6.014h6.719c0.552,0,1-0.447,1-1s-0.448-1-1-1  h-6.537V20.445h51.59v26.985h-7.497c-0.552,0-1,0.447-1,1s0.448,1,1,1h7.68C79.242,49.431,81.94,52.128,81.94,55.444z M88,31.695  h-4.876v-11.25h1.013c2.13,0,3.863,1.732,3.863,3.861V31.695z"></path></svg>