<?xml version="1.0" encoding="UTF-8"?>
<svg fill="#1871B9" width="100pt" height="100pt" version="1.1" viewBox="0 0 100 100" xmlns="http://www.w3.org/2000/svg">
 <g>
  <path d="m27.543 38.973c0-4.1094-3.3438-7.4531-7.4531-7.4531s-7.4531 3.3438-7.4531 7.4531v2.6523l-4.5469 0.003906v6.1602h23.996v-6.1602h-4.5469zm-13.863 0c0-3.5352 2.875-6.4102 6.4102-6.4102s6.4102 2.875 6.4102 6.4102v2.6523h-12.824zm17.367 3.6953v4.0742h-21.914v-4.0742z"/>
  <path d="m20.09 30.746c3.0977 0 5.6133-2.5195 5.6133-5.6133 0-3.0977-2.5195-5.6133-5.6133-5.6133s-5.6133 2.5195-5.6133 5.6133c0 3.0977 2.5156 5.6133 5.6133 5.6133zm0-10.184c2.5234 0 4.5742 2.0508 4.5742 4.5742 0 2.5195-2.0508 4.5703-4.5742 4.5703-2.5195 0-4.5703-2.0508-4.5703-4.5703 0-2.5234 2.0508-4.5742 4.5703-4.5742z"/>
  <path d="m57.312 38.973c0-4.1094-3.3438-7.4531-7.4531-7.4531s-7.4531 3.3438-7.4531 7.4531v2.6523h-4.543v6.1602h23.996v-6.1602h-4.543v-2.6523zm-13.863 0c0-3.5352 2.8789-6.4102 6.4102-6.4102 3.5352 0 6.4102 2.875 6.4102 6.4102v2.6523h-12.824zm17.367 3.6953v4.0742h-21.914v-4.0742z"/>
  <path d="m49.859 30.746c3.0977 0 5.6172-2.5195 5.6172-5.6133 0-3.0977-2.5195-5.6133-5.6172-5.6133s-5.6133 2.5195-5.6133 5.6133c0 3.0977 2.5195 5.6133 5.6133 5.6133zm0-10.184c2.5234 0 4.5742 2.0508 4.5742 4.5742 0 2.5195-2.0508 4.5703-4.5742 4.5703-2.5195 0-4.5703-2.0508-4.5703-4.5703 0-2.5234 2.0508-4.5742 4.5703-4.5742z"/>
  <path d="m80.188 30.746c3.0977 0 5.6172-2.5195 5.6172-5.6133 0-3.0977-2.5195-5.6133-5.6172-5.6133-3.0938 0-5.6133 2.5195-5.6133 5.6133 0 3.0977 2.5195 5.6133 5.6133 5.6133zm0-10.184c2.5234 0 4.5742 2.0508 4.5742 4.5742 0 2.5195-2.0508 4.5703-4.5742 4.5703-2.5195 0-4.5703-2.0508-4.5703-4.5703 0-2.5234 2.0508-4.5742 4.5703-4.5742z"/>
  <path d="m87.641 41.629v-2.6523c0-4.1094-3.3438-7.4531-7.4531-7.4531s-7.4531 3.3438-7.4531 7.4531v2.6523h-4.543v6.1602l23.996-0.003906v-6.1602zm-13.863-2.6562c0-3.5352 2.8789-6.4102 6.4102-6.4102 3.5352 0 6.4102 2.875 6.4102 6.4102v2.6523h-12.824zm17.367 7.7695h-21.914v-4.0742h21.914z"/>
  <path d="m27.262 71.668c0-4.1094-3.3438-7.4531-7.4531-7.4531s-7.4531 3.3438-7.4531 7.4531v2.6523h-4.543v6.1602h23.996v-6.1602h-4.5469zm-13.863 0c0-3.5352 2.875-6.4102 6.4102-6.4102s6.4102 2.875 6.4102 6.4102v2.6523h-12.82zm17.371 3.6953v4.0742h-21.914v-4.0742z"/>
  <path d="m19.809 63.441c3.0977 0 5.6133-2.5195 5.6133-5.6133 0-3.0977-2.5195-5.6172-5.6133-5.6172s-5.6133 2.5195-5.6133 5.6172c0 3.0938 2.5195 5.6133 5.6133 5.6133zm0-10.188c2.5234 0 4.5742 2.0508 4.5742 4.5742 0 2.5195-2.0508 4.5703-4.5742 4.5703-2.5195 0-4.5703-2.0508-4.5703-4.5703s2.0508-4.5742 4.5703-4.5742z"/>
  <path d="m57.035 71.668c0-4.1094-3.3438-7.4531-7.4531-7.4531s-7.4531 3.3438-7.4531 7.4531v2.6523h-4.5469v6.1602h23.996v-6.1602h-4.543zm-13.867 0c0-3.5352 2.8789-6.4102 6.4102-6.4102 3.5352 0 6.4102 2.875 6.4102 6.4102v2.6523h-12.824zm17.371 3.6953v4.0742h-21.914v-4.0742z"/>
  <path d="m49.582 63.441c3.0977 0 5.6172-2.5195 5.6172-5.6133 0-3.0977-2.5195-5.6172-5.6172-5.6172-3.0977 0-5.6133 2.5195-5.6133 5.6172 0 3.0938 2.5156 5.6133 5.6133 5.6133zm0-10.188c2.5234 0 4.5742 2.0508 4.5742 4.5742 0 2.5195-2.0508 4.5703-4.5742 4.5703-2.5195 0-4.5703-2.0508-4.5703-4.5703-0.003907-2.5195 2.0469-4.5742 4.5703-4.5742z"/>
  <path d="m87.363 71.668c0-4.1094-3.3438-7.4531-7.4531-7.4531s-7.4531 3.3438-7.4531 7.4531v2.6523h-4.5469v6.1602h23.996v-6.1602h-4.543zm-13.863 0c0-3.5352 2.8789-6.4102 6.4102-6.4102 3.5352 0 6.4102 2.875 6.4102 6.4102v2.6523h-12.824v-2.6523zm17.367 3.6953v4.0742h-21.914v-4.0742z"/>
  <path d="m79.91 63.441c3.0977 0 5.6172-2.5195 5.6172-5.6133 0-3.0977-2.5195-5.6172-5.6172-5.6172s-5.6133 2.5195-5.6133 5.6172c0 3.0938 2.5156 5.6133 5.6133 5.6133zm0-10.188c2.5234 0 4.5742 2.0508 4.5742 4.5742 0 2.5195-2.0508 4.5703-4.5742 4.5703-2.5195 0-4.5703-2.0508-4.5703-4.5703-0.003906-2.5195 2.0469-4.5742 4.5703-4.5742z"/>
 </g>
</svg>
