<?xml version="1.0" encoding="UTF-8"?>
<svg fill="#1871B9" width="100pt" height="100pt" version="1.1" viewBox="0 0 100 100" xmlns="http://www.w3.org/2000/svg">
 <path d="m89.172 71.137h-22.539v-5.6641h15.57c0.55078 0 1-0.44531 1-1v-11.312c0-0.55469-0.44922-1-1-1h-15.57v-5.6641h9.7578c0.55078 0 1-0.44531 1-1v-11.316c0-0.55469-0.44922-1-1-1h-9.7578v-5.6641h3.75c0.55078 0 1-0.44531 1-1v-11.312c0-0.55469-0.44922-1-1-1h-3.75v-2.75c0-0.55469-0.44922-1-1-1-0.55078 0-1 0.44531-1 1v2.75h-28.918v-2.75c0-0.55469-0.44922-1-1-1-0.55078 0-1 0.44531-1 1v2.75h-3.75c-0.55078 0-1 0.44531-1 1v11.312c0 0.55469 0.44922 1 1 1h3.75v5.6641h-9.7578c-0.55078 0-1 0.44531-1 1v11.312c0 0.55469 0.44922 1 1 1h9.7578v5.6641h-15.57c-0.55078 0-1 0.44531-1 1v11.312c0 0.55469 0.44922 1 1 1h15.57v5.6641l-22.543 0.003907c-0.55078 0-1 0.44531-1 1v11.312c0 0.55469 0.44922 1 1 1h22.543v5c0 0.55469 0.44922 1 1 1 0.55078 0 1-0.44531 1-1v-5h28.918v5c0 0.55469 0.44922 1 1 1 0.55078 0 1-0.44531 1-1v-5h22.543c0.55078 0 1-0.44531 1-1v-11.312c-0.003906-0.55078-0.44922-1-1.0039-1zm-58.207-54.934h38.418v9.3125h-38.418zm4.75 11.312h28.918v5.6641h-28.918zm-10.758 7.6641h50.434v9.3125l-50.434 0.003906zm10.758 11.316h28.918v5.6641h-28.918zm-16.57 7.6641h62.055v9.3125h-62.055zm16.57 11.312h28.918v5.6641h-28.918zm52.457 16.98h-76v-9.3125h76z"/>
</svg>
