<svg xmlns="http://www.w3.org/2000/svg" xmlns:xlink="http://www.w3.org/1999/xlink" version="1.1" x="0px" y="0px" viewBox="0 0 100 100" style="enable-background:new 0 0 100 100;" xml:space="preserve"><path d="M89.173,71.138H66.632v-5.664h15.57c0.552,0,1-0.447,1-1V53.159c0-0.553-0.448-1-1-1h-15.57v-5.664h9.758  c0.552,0,1-0.447,1-1V34.181c0-0.553-0.448-1-1-1h-9.758v-5.664h3.75c0.552,0,1-0.447,1-1V15.202c0-0.553-0.448-1-1-1h-3.75v-2.75  c0-0.553-0.448-1-1-1s-1,0.447-1,1v2.75H35.715v-2.75c0-0.553-0.448-1-1-1s-1,0.447-1,1v2.75h-3.75c-0.552,0-1,0.447-1,1v11.314  c0,0.553,0.448,1,1,1h3.75v5.664h-9.758c-0.552,0-1,0.447-1,1v11.314c0,0.553,0.448,1,1,1h9.758v5.664H18.146c-0.552,0-1,0.447-1,1  v11.314c0,0.553,0.448,1,1,1h15.569v5.664H11.173c-0.552,0-1,0.447-1,1v11.314c0,0.553,0.448,1,1,1h22.542v5c0,0.553,0.448,1,1,1  s1-0.447,1-1v-5h28.917v5c0,0.553,0.448,1,1,1s1-0.447,1-1v-5h22.542c0.552,0,1-0.447,1-1V72.138  C90.173,71.585,89.726,71.138,89.173,71.138z M30.965,16.202h38.417v9.314H30.965V16.202z M35.715,27.517h28.917v5.664H35.715  V27.517z M24.957,35.181H75.39v9.314H24.957V35.181z M35.715,46.495h28.917v5.664H35.715V46.495z M19.146,54.159h62.056v9.314  H19.146V54.159z M35.715,65.474h28.917v5.664H35.715V65.474z M88.173,82.452h-76v-9.314h76V82.452z"></path></svg>